<?xml version="1.0" encoding="UTF-8" standalone="no"?>
<svg
   id="Calque_1"
   data-name="Calque 1"
   version="1.1"
   viewBox="0 0 566.93 566.93"
   sodipodi:docname="bbchallenge_logo.svg"
   inkscape:version="1.3.2 (091e20e, 2023-11-25)"
   inkscape:export-filename="bbchallenge_logo_negative_ F5F0E6.png"
   inkscape:export-xdpi="100"
   inkscape:export-ydpi="100"
   xmlns:inkscape="http://www.inkscape.org/namespaces/inkscape"
   xmlns:sodipodi="http://sodipodi.sourceforge.net/DTD/sodipodi-0.dtd"
   xmlns="http://www.w3.org/2000/svg"
   xmlns:svg="http://www.w3.org/2000/svg">
  <sodipodi:namedview
     id="namedview53"
     pagecolor="#121826"
     bordercolor="#000000"
     borderopacity="0.25"
     inkscape:showpageshadow="2"
     inkscape:pageopacity="0.0"
     inkscape:pagecheckerboard="0"
     inkscape:deskcolor="#d1d1d1"
     inkscape:zoom="0.58793445"
     inkscape:cx="288.29745"
     inkscape:cy="304.45571"
     inkscape:window-width="1472"
     inkscape:window-height="823"
     inkscape:window-x="36"
     inkscape:window-y="231"
     inkscape:window-maximized="0"
     inkscape:current-layer="Calque_1"
     inkscape:export-bgcolor="#121826ff" />
  <defs
     id="defs1">
    <style
       id="style1">
      .cls-1 {
        fill: #fff;
        stroke-width: 0px;
      }
    </style>
  </defs>
  <rect
     style="fill:#121826;fill-opacity:1;stroke:none;stroke-width:0.933543"
     id="rect1"
     width="566.92999"
     height="566.92999"
     x="0"
     y="7.1525574e-07" />
  <path
     class="cls-1"
     d="M261.06,306.52c.47-.65.95-1.28,1.4-1.94.56-.82,1.68-1.64,1.04-2.67-.71-1.16-1.98-.49-2.97-.18-4.73,1.49-9.55,2.41-14.53,2.18-1.23-.06-2.57.08-3.64-1.3.7-.6,1.37-1.15,2.02-1.73,1.82-1.6,3.68-3.16,5.42-4.84.77-.74,1.59-1.8.95-2.9-.69-1.17-1.94-.63-2.97-.38-3.62.88-7.28,1.49-11,1.51-6.55.03-12.81-1.39-18.75-4.21-7.6-3.61-13.85-8.91-19.31-15.24-.87-1.01-1.65-2.14-3.01-2.6-1.12.5-.93,1.41-.74,2.3.63,3.04,1.89,5.84,3.28,8.58,3.27,6.46,7.73,12.05,12.72,17.25,1.15,1.2,2.37,2.34,3.52,3.55.45.48.79,1.06,1.29,1.74-1.39.34-2.33-.16-3.22-.57-3.01-1.41-5.98-2.91-8.99-4.34-.9-.43-1.83-.98-2.89-.42-.49,1.02.04,1.81.64,2.45,1.59,1.66,3.16,3.36,4.92,4.84,2.69,2.26,5.54,4.34,8.3,6.53.61.48,1.46.86,1.39,1.95-.88.53-1.79.35-2.61.1-2.82-.84-5.6-1.76-8.4-2.66-.85-.27-1.68-.66-2.54-.84-1.08-.22-1.64.43-1.22,1.45.36.88.85,1.74,1.46,2.47,3.15,3.79,6.26,7.62,9.57,11.26,3.96,4.36,8.09,8.57,12.18,12.81,1.11,1.15,2.36,2.17,3.53,3.26,2.1,1.96,4.61,2.93,7.44,3.17,3.12.27,6.23.67,9.36.83,5.75.3,11.51.58,17.27.65,3.45.04,6.9-.29,10.34-.56,4.4-.34,8.58.5,12.44,2.53,7.99,4.19,15.94,8.46,23.83,12.82,3.46,1.92,6.2,4.73,8.38,8.04,2.19,3.32,2.34,6.96,1.51,10.71-.24,1.1-.84,2.05-1.94,2.48-1.34.53-2.94.43-3.29-1.7-.15-.95-.24-1.9-.39-2.85-.55-3.59-1.96-6.75-4.73-9.19-.86-.76-1.75-1.51-3.01-1.34-.68.67-.37,1.33-.07,1.97.44.93.93,1.83,1.34,2.77,2.06,4.73,1.24,9.27-1.01,13.67-.36.7-1.06,1.32-1.76,1.71-1.47.83-2.88.05-3.05-1.63-.09-.95,0-1.92-.03-2.88-.07-3.61-1.96-6.26-4.59-8.49-.24-.2-.55-.33-.85-.44-.95-.34-1.5.06-1.41,1.09.05.57.22,1.13.4,1.68,1.24,3.86.84,7.74-.1,11.56-.28,1.12-.94,2.29-1.75,3.12-1.85,1.89-4.19,1.16-4.73-1.42-.28-1.37-.35-2.79-.4-4.19-.1-2.74-1.5-4.55-3.92-5.65-1.28-.58-2.63-1.02-3.88-1.66-2.16-1.11-4.47-2.07-6.34-3.56-2.8-2.24-5.79-2.5-9.05-1.8-3.75.8-7.48,1.73-11.23,2.51-5.08,1.05-10.21,1.67-15.39,2-6.06.38-12.07,1.19-18.05,2.33-2.29.44-4.71.34-7.07.28-1.72-.04-3.13-.97-4.39-2.15-2.91-2.74-5.32-5.89-7.6-9.14-2.61-3.72-5.11-7.52-7.67-11.28-.43-.63-.85-1.3-1.38-1.84-1.03-1.05-2.14-.83-2.7.55-.28.7-.46,1.48-.5,2.23-.11,1.85-.1,3.71-.17,5.57-.02.68-.13,1.36-.2,2.08-1.32,0-1.84-.84-2.39-1.6-2.35-3.24-4.05-6.82-5.38-10.57-1-2.83-1.8-5.73-2.7-8.6-.27-.85-.49-1.74-.91-2.52-.55-1.01-1.48-1.03-2.14-.07-.36.51-.65,1.13-.77,1.74-.31,1.56-.51,3.15-.74,4.73-.16,1.11-.31,2.23-.48,3.48-1.22-.33-1.46-1.19-1.68-1.92-.84-2.75-1.73-5.5-2.35-8.3-1.29-5.81-2.09-11.71-2.48-17.65-.06-.89-.16-1.79-.38-2.66-.15-.58-.53-1.09-.77-1.57-1.39-.02-1.92.85-2.26,1.73-.71,1.84-1.49,3.69-1.89,5.62-.78,3.75-1.31,7.55-1.95,11.33-.17.99-.11,2.05-.94,2.88-1.08-.41-1.34-1.4-1.53-2.29-.66-2.99-1.39-5.99-1.75-9.02-.83-7.03-.37-14.05.65-21.04.09-.63.11-1.29.04-1.92-.13-1.19-.99-1.7-2.05-1.14-.66.35-1.33.86-1.74,1.47-1.37,2.07-2.86,4.12-3.87,6.37-1.25,2.79-2.06,5.77-3.08,8.66-.37,1.05-.5,2.22-1.41,3.19-1.13-1.11-1.03-2.46-1.11-3.66-.35-5.2.16-10.36.83-15.5,1.1-8.51,2.95-16.88,4.97-25.21.48-1.99.48-2.38.03-3.78-1.17-.46-1.94.33-2.61,1.06-1.04,1.12-2.01,2.33-2.93,3.56-2.63,3.5-4.7,7.32-6.55,11.27-.39.84-.91,1.63-1.61,2.84-.38-.84-.7-1.24-.73-1.67-.14-1.72-.32-3.45-.25-5.17.39-8.84,2.17-17.37,6.01-25.4.33-.69.68-1.39.89-2.12.17-.62.15-1.29.21-1.95-1.36-.3-2.16.34-2.8,1-2.13,2.21-4.16,4.51-6.23,6.77-.67.73-1.35,1.46-2.09,2.26-.99-1.04-.69-1.99-.51-2.9.84-4.33,2.62-8.28,4.92-12.01,3.47-5.63,7.99-10.34,13.09-14.46,8.89-7.17,18.39-13.46,28.34-19.05,3.62-2.03,7.47-3.34,11.68-3.36.38,0,.76-.08,1.13-.18,1.42-.38,1.8-1.13,1.09-2.4-.53-.94-1.23-1.79-1.86-2.68-2.35-3.3-4.47-6.72-5.39-10.74-.88-3.83-.81-7.62.6-11.33,1.01-2.67,2.74-4.74,5.24-6.17,2.88-1.64,5.95-2.72,9.26-2.87,5.04-.22,9.03,1.96,12.22,5.73,2.39,2.82,4,6.08,5.17,9.57.24.73.47,1.48.84,2.14.65,1.15,1.85,1.21,2.36,0,.54-1.26.88-2.69.93-4.06.07-1.91-.2-3.83-.36-5.74-.19-2.15.15-2.83,2.24-3.3,2.11-.47,4.27-.86,6.43-1.03,8.72-.67,17.22.68,25.55,3.21,9.36,2.85,18.11,7.06,26.46,12.12,11.56,7.02,22.8,14.49,33.25,23.11,4.7,3.87,9.25,7.91,13.13,12.64,1.01,1.23,1.96,2.54,2.74,3.93,1.04,1.84.5,3.18-1.57,3.59-2.12.42-4.31.48-6.47.65-1.84.14-3.72.06-5.53.36-1.02.17-2.07.73-2.88,1.39-3.26,2.69-3.31,5.66-.09,8.37,1.75,1.48,3.73,2.69,5.62,4.01,1.05.73,2.19,1.35,3.16,2.17,1.74,1.48,2.48,3.37,1.86,5.67-.13.49-.22,1.02-.46,1.46-1.71,3.15-3.36,6.33-5.21,9.39-1.37,2.27-3.55,3.72-6.08,4.44-6.68,1.89-13.17,1.42-19.3-2.03-2.99-1.68-5.46-4.01-7.63-6.65-.49-.59-.99-1.19-1.58-1.67-.87-.69-1.54-.44-1.82.67-.13.53-.11,1.14,0,1.68,1.14,6.12,4.32,10.85,9.64,14.13,1.46.9,2.92,1.85,4.23,2.96,1.57,1.33,2.07,3.2,1.9,5.21-.18,2.22-1.32,3.52-3.52,3.97-2.68.54-5.23-.01-7.61-1.27-1.01-.53-1.92-1.26-2.87-1.92-.42-.29-.79-.67-1.23-.92-1.32-.74-2.23-.22-2.36,1.3,0,.06-.02.13,0,.19.62,2.65-1,3.64-3.11,4.43-3.44,1.3-6.98,2.1-10.62,2.46-.78.08-1.59-.16-2.38-.25-.08-.19-.16-.39-.24-.58ZM239.25,233.12c.78,1.25,1.71,1.29,2.59,1.39,4.07.46,8.09,1.18,11.93,2.64,5.39,2.05,10.15,5.09,14.16,9.27.62.64,1.25,1.3,1.96,1.82.36.26,1.05.43,1.37.25.34-.18.59-.84.58-1.29-.01-.68-.17-1.42-.47-2.03-.54-1.08-1.06-2.25-1.89-3.09-1.85-1.89-2.02-3.73-1.06-6.22,1.63-4.22.05-9-3.46-11.93-3.48-2.9-8.35-3.34-12.38-1.12-2.15,1.18-3.7,2.93-4.72,5.14-.7,1.53-1.81,2.37-3.47,2.68-1.18.22-2.35.62-3.45,1.11-.64.28-1.13.89-1.72,1.38ZM186.2,200.46c.01,4.5,2.17,10.21,5.2,13.51.63.69,1.42,1.32,2.26,1.73,1.67.81,3.5-.2,3.78-1.99.17-1.09-.3-2.01-.93-2.84-.54-.71-1.23-1.31-1.74-2.05-.54-.78-1.11-1.6-1.38-2.49-.71-2.29,1.11-4.14,3.43-3.52.91.24,1.74.76,2.62,1.15,1.11.49,2.18,1.14,3.33,1.43,1.85.46,3.76.48,5.15-1.12,1.36-1.56,1.07-3.42.23-5.06-.86-1.69-1.9-3.35-3.15-4.78-2.33-2.67-5.3-4.07-8.97-3.98-5.79.14-9.86,4.2-9.84,10Z"
     id="path1"
     style="fill:#f5f0e6;fill-opacity:1" />
  <path
     class="cls-1"
     d="M385.79,403.31c-.2-.7-.49-1.33-.55-1.98-.1-1.02-.07-2.05-.07-3.07,0-47.99,0-95.98,0-143.97,0-.96-.01-1.93.07-2.88.13-1.54.83-2.17,2.27-1.81,3.04.76,6.04,1.64,9.05,2.52,1.24.36,1.87,1.29,1.94,2.57.04.83.06,1.66.05,2.5-.11,13.52-.23,27.03-.34,40.55-.18,23-.35,46-.54,68.99-.06,7.43-.24,14.86-.19,22.29.02,2.84-.8,5.08-2.93,6.96-2.11,1.87-4.06,3.91-6.09,5.86-.69.66-1.41,1.28-2.65,1.46Z"
     id="path2"
     style="fill:#f5f0e6;fill-opacity:1" />
  <path
     class="cls-1"
     d="M154.58,441.95c-.57-.91-.97-1.89-1.66-2.57-1.46-1.43-3.03-2.76-4.64-4.01-1.89-1.46-3.4-1.35-5.12.37-2.27,2.29-4.12,4.91-5.39,7.88-.47,1.09-.53,2.35-.75,3.54-.12.69-.11,1.41-.27,2.08-.45,1.84-1.83,2.46-3.5,1.56-.67-.36-1.27-.86-1.85-1.36-3.69-3.17-7.36-6.35-11.04-9.54-.39-.33-.77-.68-1.1-1.07-1.62-1.89-1.09-3.61,1.33-4.33.18-.05.38-.09.57-.11,3.45-.42,6.04-2.32,8.26-4.82,3.53-3.97,7.04-7.95,10.53-11.96,1.17-1.35,2.28-2.76,3.37-4.18,1.6-2.08,2.53-4.42,2.67-7.07.04-.69.18-1.41.41-2.06.62-1.76,2.09-2.33,3.65-1.32,1.06.69,1.98,1.6,2.96,2.43,3.21,2.74,6.41,5.5,9.62,8.24,1.04.89,2.12,1.84,1.75,3.38-.37,1.52-1.73,2.02-3.06,2.28-2.91.57-5.53,1.61-7.46,3.97-.44.54-.89,1.09-1.24,1.7-.85,1.48-.81,2.86.41,4.05,1.68,1.65,3.48,3.21,5.36,4.64,1.47,1.12,2.77.99,4.21-.17,2.47-1.98,3.84-4.57,4.14-7.73.09-.95.17-1.92.42-2.84.65-2.39,2.4-3.04,4.35-1.53,1.66,1.29,3.14,2.82,4.74,4.19,2.14,1.83,4.32,3.61,6.46,5.44.77.66,1.57,1.34,2.18,2.15.96,1.26.64,2.6-.71,3.43-.49.3-1.03.57-1.58.67-3.79.72-6.63,2.95-9.06,5.76-4.05,4.7-8.07,9.43-12.02,14.22-1.63,1.97-3.11,4.09-3.43,6.76-.09.76-.1,1.53-.16,2.29-.25,2.93-2.1,3.84-4.44,2.08-1.48-1.11-2.78-2.46-4.18-3.67-2.48-2.12-4.98-4.21-7.46-6.34-.68-.58-1.38-1.17-1.92-1.87-1.14-1.49-.69-2.99,1.07-3.69.71-.28,1.47-.45,2.22-.58,1.81-.33,3.45-1.06,4.77-2.32,1.81-1.71,3.57-3.48,5.23-5.33.61-.68.88-1.66,1.39-2.66Z"
     id="path3"
     style="fill:#f5f0e6;fill-opacity:1" />
  <path
     class="cls-1"
     d="M99.06,246.63c1.87-.15,3.6-.49,5.26-1.28.69-.33,1.41-.63,2.15-.79,1.46-.31,2.54.5,2.63,2.01.05.82-.04,1.67-.22,2.47-1.09,4.8-2.23,9.59-3.37,14.38-.16.68-.36,1.37-.67,2-.87,1.8-2.38,2.07-3.89.72-.33-.3-.63-.64-.88-1.01-1.64-2.39-3.99-3.78-6.71-4.5-5.06-1.34-10.14-2.64-15.24-3.87-2.54-.61-5.12-1.07-7.7-1.52-2.14-.37-4.18.1-6.19.86-.88.34-1.83.63-2.76.69-1.51.1-2.36-.81-2.38-2.35,0-.57.08-1.15.21-1.71,1.11-4.79,2.24-9.59,3.37-14.38.15-.62.34-1.24.61-1.81.79-1.7,2.2-2.12,3.77-1.07.67.45,1.24,1.1,1.78,1.72,1.8,2.09,3.85,3.75,6.64,4.28.69.13,1.39.2,2.08.24,1.62.1,2.79-.7,3.24-2.18.69-2.25,1.28-4.56,1.69-6.88.33-1.82-.62-3.16-2.44-3.87-2.8-1.11-5.59-1.09-8.41.04-1.17.47-2.42.87-3.67.98-1.73.15-2.76-1.05-2.56-2.77.09-.76.31-1.5.49-2.24.75-3.04,1.52-6.08,2.25-9.12.34-1.43.6-2.88.92-4.31.12-.56.26-1.13.49-1.65.83-1.89,2.32-2.28,4.02-1.05.41.3.82.63,1.13,1.03,1.89,2.43,4.42,3.95,7.33,4.65,7.39,1.77,14.82,3.42,22.26,4.98,2.08.44,4.21.13,6.17-.84.57-.28,1.17-.54,1.77-.73,2.01-.66,3.48.44,3.34,2.55-.05.82-.29,1.64-.47,2.45-1.02,4.36-2.04,8.71-3.08,13.06-.21.87-.4,1.76-.77,2.57-.82,1.81-2.38,2.13-3.86.81-.52-.46-.96-1.03-1.4-1.57-1.24-1.52-2.72-2.73-4.58-3.37-2.11-.73-4.23-1.49-6.4-2-3.01-.71-4.39.21-5.2,3.24-.46,1.73-.92,3.47-1.19,5.23-.4,2.66.33,3.89,2.93,4.55,2.46.62,5,.93,7.51,1.38Z"
     id="path4"
     style="fill:#f5f0e6;fill-opacity:1" />
  <path
     class="cls-1"
     d="M507.76,281.74c0,3.2.03,6.4,0,9.6-.03,2.4-.62,4.68-1.56,6.88-3.22,7.6-14.28,8.56-18.97,2.28-.76-1.02-1.4-2.14-2.11-3.2-1.16-1.73-2.26-1.88-3.45-.19-2.83,4.01-6.79,6.5-11.03,8.71-2.03,1.06-3.87,2.48-5.79,3.73-.11.07-.2.17-.3.24-.88.67-1.77,1.37-2.96.84-1.26-.57-1.38-1.78-1.37-2.94.05-4.93.12-9.86.24-14.79.06-2.3,1.12-3.27,3.39-3.1,1.78.13,3.51.53,5.32.05,2.5-.66,4.87-1.56,7.01-3.01.42-.29.84-.59,1.21-.94.88-.82,1.54-1.78,1.16-3.05-.39-1.3-1.56-1.7-2.71-1.82-3.13-.33-6.13.13-8.85,1.83-.81.51-1.61,1.04-2.4,1.59-2.49,1.75-4.13.09-4.14-2.16-.01-2.69.1-5.38.12-8.07.02-2.69,0-5.38,0-8.07,0-.45-.03-.9.03-1.34.31-2.46,2.17-3.43,4.06-1.83,3.26,2.76,6.99,3.49,11.06,3.51,6.34.03,12.67.22,19.01.18,2.78-.02,5.43-.8,7.73-2.51.61-.45,1.3-.85,2.01-1.11,1.63-.62,3,.08,3.31,1.81.24,1.37.23,2.8.21,4.2-.08,4.22-.22,8.45-.33,12.67.04,0,.07,0,.11,0ZM493.25,288.54c1.13-.25,2.27-.4,3.34-.78,1.34-.47,2.48-1.3,3.16-2.62.92-1.78.23-3.53-1.76-3.7-2.71-.23-5.49-.31-8.18,0-2.63.3-3.41,3.07-1.6,5.05.5.55,1.17,1.03,1.86,1.28,1,.37,2.08.52,3.18.77Z"
     id="path5"
     style="fill:#f5f0e6;fill-opacity:1" />
  <path
     class="cls-1"
     d="M166.53,119.03c3.27-.26,6.25.52,8.74,2.71,3.53,3.1,6.93,8.95,3.22,15.73-1.66,3.03-4.01,5.46-6.59,7.67-4.22,3.62-8.54,7.13-12.8,10.71-1.22,1.03-2.4,2.11-3.61,3.16-.39.33-.8.65-1.24.9-1.89,1.11-3.22.55-3.71-1.55-.13-.56-.22-1.14-.21-1.7.04-2.26-.59-4.33-1.94-6.11-2.71-3.56-5.46-7.09-8.29-10.56-1.94-2.38-4.02-4.64-6.06-6.93-2.09-2.35-4.56-4.08-7.69-4.77-.61-.13-1.23-.39-1.77-.71-1.58-.94-1.83-2.44-.68-3.89.32-.4.7-.75,1.09-1.08,5.61-4.75,11.24-9.48,16.85-14.23,1.87-1.58,3.93-2.83,6.26-3.65,8.12-2.89,14.28,3.65,14.04,10.37-.03.77-.15,1.54-.11,2.3.07,1.21.6,1.74,1.81,1.78.89.03,1.79-.08,2.68-.13ZM157.48,129.61c-.8.2-1.64.3-2.39.62-1.79.74-2.37,2.16-1.2,3.67,2.02,2.63,4.2,5.16,6.49,7.56,1.2,1.26,2.83,1.07,4.15-.11,1-.89,1.54-1.99,1.56-3.37.06-4.03-4.36-8.29-8.61-8.37ZM147.57,125.68c2.18.04,3.73-1.94,3.6-4.07-.16-2.63-2.67-5.33-5.29-5.54-1.47-.12-2.83.32-3.65,1.66-.76,1.24-.17,2.36.62,3.34,1.01,1.24,2.04,2.46,3.16,3.6.51.52,1.24.81,1.56,1.02Z"
     id="path6"
     style="fill:#f5f0e6;fill-opacity:1" />
  <path
     class="cls-1"
     d="M359.44,120.92c-3.85-.13-7.01-.92-10.07-2.08-5.02-1.91-10.01-3.88-15.03-5.79-1.55-.59-3.14-1.08-4.71-1.65-.6-.22-1.2-.47-1.75-.79-1.89-1.09-2.01-2.75-.32-4.17.19-.16.41-.32.63-.44,3.08-1.59,4.88-4.24,6.13-7.36,1.68-4.21,3.37-8.43,5-12.66.81-2.09,1.53-4.2,2.24-6.32.97-2.92,1.17-5.87.34-8.87-.2-.73-.3-1.52-.23-2.27.13-1.45,1.22-2.3,2.66-2.12.75.09,1.49.36,2.2.62,6.58,2.47,13.16,4.95,19.74,7.43,2.72,1.02,5.19,2.39,7.33,4.43,5.32,5.09,3.4,13.1-1.96,16.3-.77.46-1.6.8-2.39,1.22-1.62.87-1.85,1.71-.89,3.26.6.98,1.3,1.91,1.86,2.91,4.08,7.29-1.32,16.48-7.56,17.82-1.24.27-2.51.42-3.23.53ZM356.76,103.24c.02-2.83-.69-4.63-2.12-5.98-1.72-1.64-3.51-1.43-4.45.73-1.15,2.63-2.2,5.31-3.05,8.05-.94,3.02.85,4.98,4.04,4.73,1.15-.09,2.08-.57,2.86-1.38,1.81-1.89,2.6-4.19,2.72-6.14ZM362.5,84.16c-.05-1.4-.44-2.52-1.33-3.45-1.73-1.83-3.71-1.62-4.76.64-.75,1.62-1.34,3.32-1.86,5.03-.52,1.72.35,3.03,2.1,3.43,1.26.28,2.43.04,3.43-.77,1.59-1.29,2.32-3.01,2.41-4.88Z"
     id="path7"
     style="fill:#f5f0e6;fill-opacity:1" />
  <path
     class="cls-1"
     d="M386.73,435.27c-.39,2.85.4,5.2,1.48,7.48,3.37,7.19,7.22,14.12,11.3,20.93.92,1.53,1.8,3.1,2.64,4.68,1.16,2.19,1.03,4.32-.58,6.26-1.7,2.04-3.92,2.65-6.39,1.86-2.49-.8-4.92-1.8-7.36-2.76-5.71-2.23-11.42-4.5-17.13-6.73-.77-.3-1.56-.62-2.37-.73-1.63-.24-2.31.61-1.84,2.16.11.37.25.73.43,1.07,1.88,3.44,4,6.72,6.95,9.35,1.04.93,2.3,1.6,3.47,2.37.69.46,1.48.79,2.1,1.33,1.35,1.16,1.3,2.65-.09,3.75-.49.39-1.07.69-1.64.99-2.71,1.43-5.44,2.85-8.16,4.26-.57.29-1.13.62-1.73.81-1.98.61-3.47-.61-3.3-2.69.03-.38.12-.76.22-1.13.82-2.86.33-5.6-.97-8.18-3.11-6.17-6.26-12.31-9.46-18.43-1.55-2.96-3.77-5.29-6.84-6.76-1.23-.59-2.39-1.42-2.32-3,.07-1.51,1.33-2.1,2.46-2.68,2.17-1.1,4.38-2.1,6.55-3.2,2.2-1.11,4.37-1.12,6.65-.21,5.93,2.37,11.89,4.69,17.85,7,1.01.39,2.04.8,3.09,1,1.92.35,2.74-.67,1.86-2.44-2.02-4.07-4.59-7.69-8.82-9.81-.85-.42-1.72-.89-2.41-1.52-1.3-1.18-1.23-2.47.09-3.6.48-.41,1.05-.73,1.61-1.03,2.55-1.34,5.1-2.65,7.66-3.97.51-.26,1.02-.55,1.56-.74,1.96-.68,3.27.18,3.43,2.28.06.76,0,1.53,0,2.04Z"
     id="path8"
     style="fill:#f5f0e6;fill-opacity:1" />
  <path
     class="cls-1"
     d="M393.44,430.17c-.04-5.84,2.29-10.69,6.15-14.9,1.83-1.99,3.9-3.71,6.25-5.06,1.86-1.07,3.4-2.46,4.69-4.18,1.88-2.5,3.5-2.77,6.08-.98,2.79,1.94,5.47,4.01,8.2,6.03.15.11.28.26.42.39.78.76,1.36,1.63.88,2.73-.48,1.08-1.51,1.34-2.59,1.23-.95-.09-1.89-.28-2.83-.47-2.76-.57-5.5-1.08-8.35-.64-5.67.88-8.9,5.5-7.69,11.13.46,2.16,1.37,4.14,2.67,5.91,3.86,5.23,8.79,8.9,15.29,10.15,1.9.36,3.81.42,5.7-.15.43-.13.86-.28,1.25-.48,2.01-1.06,2.58-2.71,1.35-4.62-2.04-3.14-4.71-5.4-8.73-5.44-.76,0-1.55,0-2.28-.17-2-.47-2.6-2.13-1.4-3.79.45-.62,1.01-1.16,1.58-1.68,3.15-2.91,6.3-5.82,9.47-8.71,2.61-2.38,4.37-2.12,5.71,1.11,1.96,4.7,5.31,8.25,8.95,11.61,1.17,1.09,2.4,2.13,3.44,3.34,1.56,1.82,1.17,3.39-.95,4.51-.17.09-.34.18-.53.23-3.1.83-4.9,3.07-6.32,5.76-2,3.78-4.59,7.11-8.21,9.5-6.75,4.46-13.97,4.83-21.24,1.71-9.03-3.87-14.56-10.81-16.6-20.45-.25-1.18-.23-2.41-.33-3.62Z"
     id="path9"
     style="fill:#f5f0e6;fill-opacity:1" />
  <path
     class="cls-1"
     d="M238.68,69.37c-1.4.41-2.85.67-4.17,1.26-1.29.57-2.1,1.68-2,3.22.09,1.48,1.04,2.4,2.29,2.8,1.75.56,3.59.9,5.4,1.26,3.45.68,6.93,1.19,10.35,2,2.82.68,5.34,2.08,7.51,4.09,5.15,4.79,6.71,16.25-1.2,22.3-3.51,2.69-7.53,4.04-11.82,4.69-2.21.34-4.46.39-6.67.73-2.14.33-4.26.81-6.37,1.31-2.08.49-3.3.13-4.06-1.79-1.44-3.62-2.71-7.31-4.03-10.98-.15-.41-.19-.88-.18-1.32.06-1.57,1.15-2.38,2.59-1.77,1.17.49,2.26,1.19,3.31,1.9,2.64,1.76,5.43,3.13,8.58,3.68,2.23.39,4.46.51,6.64-.25,1.25-.43,2.31-1.14,2.65-2.54.38-1.56-.25-3.05-1.92-3.78-1.44-.63-3.03-.99-4.58-1.3-2.94-.58-5.93-.98-8.87-1.58-1.3-.27-2.58-.77-3.8-1.31-4.8-2.15-7.27-6.05-8.16-11.1-.39-2.23-.37-4.46.17-6.66,1.14-4.63,4.09-7.75,8.33-9.69,2.76-1.26,5.67-1.92,8.72-2.03,2.81-.1,5.59-.31,8.24-1.53,2.35-1.08,3.97-.48,5.09,1.83,1.59,3.28,2.98,6.65,4.44,10,.18.4.27.86.3,1.3.11,1.67-1.2,2.7-2.75,2.05-.87-.36-1.62-1-2.41-1.53-1.7-1.13-3.34-2.37-5.11-3.38-1.97-1.13-4.18-1.56-6.52-1.87Z"
     id="path10"
     style="fill:#f5f0e6;fill-opacity:1" />
  <path
     class="cls-1"
     d="M270.49,442.1c-.75.06-1.5.23-2.24.17-15.73-1.32-30.88-5.04-45.5-10.95-5.53-2.23-10.91-4.76-15.93-7.99-1.34-.86-2.64-1.8-3.88-2.81-2.01-1.64-1.89-2.56.47-3.76,4.05-2.05,8.13-4.06,12.2-6.07,16.74-8.29,33.48-16.57,50.22-24.86.63-.31,1.25-.77,1.91-.86.91-.13,1.94-.18,2.79.12,1.25.44,2.43,1.15,3.56,1.87,1.5.95,1.43,1.74-.15,2.65-.61.35-1.25.65-1.88.95-7.99,3.75-15.99,7.49-23.98,11.23-.41.19-.79.43-1.2.6-2.18.87-3.18,2.47-2.99,4.81.16,2.04-.77,3.4-2.55,4.3-2,1.02-3.96,2.09-5.92,3.18-2.85,1.59-2.9,2.92-.1,4.64,10.03,6.16,20.1,12.28,30.14,18.42,1.36.83,2.73,1.68,4.05,2.58.48.33.83.84,1.25,1.26l-.25.52Z"
     id="path11"
     style="fill:#f5f0e6;fill-opacity:1" />
  <path
     class="cls-1"
     d="M185.21,86.09c-.89,4.61.67,8.72,2.64,12.74,1.43,2.93,2.74,5.93,4.32,8.78.95,1.71,2.12,3.38,3.51,4.75,4.05,4,9.52,1.8,11.68-1.4,1.15-1.7,1.33-3.63.66-5.52-1-2.83-2.04-5.66-3.32-8.37-1.42-3-3.06-5.91-4.76-8.76-1.5-2.51-3.56-4.51-6.22-5.84-.62-.31-1.23-.72-1.71-1.21-1.12-1.13-.98-2.71.31-3.66.56-.41,1.21-.71,1.85-1.02,2.52-1.24,5.06-2.47,7.58-3.7,1.21-.59,2.47-1.32,3.79-.46,1.41.93,1.3,2.45,1.01,3.84-.52,2.51-.01,4.88.98,7.11,1.8,4.03,3.75,7.99,5.69,11.95,1.55,3.16,3.09,6.31,3.95,9.76,1.68,6.7-.19,12.15-5.68,16.27-4.03,3.03-8.46,5.25-13.58,5.85-5.65.66-10.19-1.43-13.75-5.62-1.68-1.98-3.06-4.26-4.3-6.56-2.07-3.82-3.95-7.75-5.86-11.66-1.67-3.42-3.83-6.35-7.39-8.02-.29-.13-.56-.31-.81-.51-1.75-1.37-1.71-3.22.17-4.39,1.13-.7,2.4-1.19,3.6-1.79,3.27-1.61,6.53-3.23,9.8-4.84.75-.37,1.49-.76,2.27-1.03,2.03-.71,3.43.23,3.58,2.36.02.32,0,.64,0,.96Z"
     id="path12"
     style="fill:#f5f0e6;fill-opacity:1" />
  <path
     class="cls-1"
     d="M324.42,466.48c.38,1.55.69,3.11,1.15,4.63.32,1.07.94,2,2.22,2.1,1.26.09,2-.73,2.59-1.68.37-.59.58-1.28.92-1.89.27-.5.57-1.01.96-1.41.83-.84,1.72-.83,2.48.07.44.52.84,1.17,1,1.83,1.03,4.22,1.99,8.46,2.97,12.7.04.19.11.38.09.56-.1.77-.23,1.67-1.08,1.86-.61.14-1.45.04-1.96-.29-.84-.56-1.47-1.41-2.23-2.1-.51-.47-1.03-1-1.64-1.31-1.56-.8-2.99-.03-3.27,1.71-.07.44-.11.92,0,1.34.56,2.16.98,4.38,1.82,6.43,1.14,2.77,3.22,3.66,6.09,2.9,2.96-.79,5.37-2.4,6.87-5.15.64-1.18,1.11-2.44,1.65-3.67.28-.64.49-1.32.8-1.95.42-.83.97-1.53,2.04-1.46,1.09.07,1.58.85,1.79,1.74.31,1.3.51,2.63.66,3.96.29,2.54.5,5.09.76,7.63.22,2.14-.55,3.35-2.79,3.9-3.29.81-6.62,1.44-9.92,2.21-6.41,1.5-12.8,3.05-19.21,4.58-.68.16-1.37.34-2.06.43-2.21.3-3.43-1.14-2.8-3.26.11-.37.22-.74.41-1.07,1.52-2.66,1.62-5.55,1.02-8.4-1.42-6.82-2.99-13.61-4.58-20.39-.7-2.99-2.16-5.59-4.52-7.65-.62-.54-1.18-1.19-1.59-1.9-.76-1.31-.39-2.54.95-3.23.73-.38,1.55-.62,2.35-.8,8.65-2.03,17.3-4.04,25.95-6.05.5-.12,1.01-.18,1.51-.26,2.06-.33,3.3.19,4.32,2.02.71,1.28,1.27,2.65,1.89,3.98.64,1.39,1.28,2.79,1.9,4.19.21.47.41.94.56,1.43.47,1.5.27,2.56-.56,3.16-.87.62-1.92.49-3.15-.52-1.03-.86-2-1.79-2.96-2.73-2.81-2.75-6.13-3.52-9.9-2.57-2.54.64-3.39,1.75-3.54,4.41Z"
     id="path13"
     style="fill:#f5f0e6;fill-opacity:1" />
  <path
     class="cls-1"
     d="M456.55,393.96c-.7,0-1.41-.05-2.11.01-.93.09-1.77.44-2.1,1.41-.31.92-.1,1.8.59,2.48.59.58,1.2,1.18,1.9,1.6,1.58.96,3.15,1.98,4.85,2.67,2.37.96,4.22.31,5.7-1.76,1.97-2.76,2.62-5.82,1.75-9.11-.39-1.47-1.06-2.88-1.55-4.33-.24-.72-.5-1.47-.53-2.21-.07-1.5.97-2.27,2.38-1.77.76.27,1.5.74,2.12,1.28,2.53,2.16,5.05,4.34,7.5,6.59,1.89,1.73,1.99,2.63.56,4.84-1.64,2.52-3.41,4.95-5.08,7.46-3.71,5.6-7.38,11.23-11.09,16.84-.56.85-1.16,1.7-1.86,2.43-1.41,1.44-2.91,1.17-3.87-.62-.21-.39-.41-.81-.52-1.23-.68-2.76-2.34-4.87-4.59-6.43-6.21-4.29-12.47-8.51-18.77-12.65-2.06-1.36-4.44-1.9-6.95-1.81-.94.03-1.94-.04-2.84-.31-1.58-.46-2.15-1.8-1.51-3.33.24-.59.59-1.14.94-1.67,5-7.51,10.01-15.02,15.01-22.53.04-.05.06-.11.1-.16,2.03-2.92,3.32-3.31,6.67-1.96,2.49,1.01,4.97,2.03,7.43,3.1.69.3,1.4.68,1.95,1.18,1.24,1.15.94,2.77-.63,3.38-.7.27-1.49.35-2.25.38-1.28.06-2.56,0-3.84.02-4,.06-6.73,2.16-8.61,5.5-1.03,1.83-.86,3.26.71,4.66,1.28,1.14,2.7,2.17,4.22,2.96,2.29,1.2,3.92-.01,3.7-2.62-.05-.56-.24-1.12-.39-1.67-.12-.43-.34-.84-.4-1.28-.13-.88-.37-1.84.47-2.5.8-.63,1.7-.42,2.54-.02.69.33,1.37.69,2.01,1.11,2.83,1.86,5.66,3.74,8.47,5.64.58.39,1.14.85,1.59,1.37,1.1,1.25.65,2.68-1,3.02-.86.17-1.78.03-2.67.03,0,0,0,0,0-.01Z"
     id="path14"
     style="fill:#f5f0e6;fill-opacity:1" />
  <path
     class="cls-1"
     d="M462.57,255.62c-2.75.02-3.47-.38-4.02-2.4-1.03-3.76-1.87-7.57-2.86-11.35-1.63-6.18-3.32-12.35-4.96-18.53-.18-.67-.28-1.39-.27-2.08.02-1.69.9-2.42,2.59-2.23.44.05.9.15,1.28.35,3.14,1.65,6.44,1.56,9.73.74,6.39-1.58,12.76-3.24,19.13-4.93,2.97-.79,5.57-2.24,7.54-4.69.32-.4.7-.75,1.08-1.09,1.84-1.67,3.59-1.28,4.49,1.01.28.71.48,1.46.67,2.2,2.12,8.11,4.23,16.21,6.33,24.32.27,1.05.48,2.12.62,3.19.19,1.49-.48,2.61-1.72,3.39-.59.37-1.22.71-1.85,1.02-2.12,1.05-4.24,2.1-6.39,3.1-.8.38-1.66.68-2.52.89-.77.19-1.54.03-2.08-.66-.58-.74-.65-1.57-.15-2.33.59-.91,1.27-1.75,1.96-2.6.64-.8,1.37-1.53,2-2.33,2.31-2.95,2.48-6.22,1.33-9.63-.66-1.94-1.87-2.85-3.94-2.61-1.82.2-3.66.64-5.35,1.33-2.12.87-2.24,2.78-.44,4.21.49.39,1.1.64,1.67.93.51.26,1.07.45,1.56.74,1.81,1.08,1.78,2.64-.12,3.63-.84.44-1.77.74-2.69.99-3.21.87-6.43,1.71-9.65,2.51-.73.18-1.52.26-2.28.21-1.39-.09-2.06-1.21-1.41-2.44.38-.72,1.01-1.3,1.54-1.93.58-.68,1.29-1.27,1.76-2.01,1.17-1.84.27-3.63-1.88-3.58-3.05.07-5.95.91-8.5,2.62-1.63,1.09-2.23,2.72-1.8,4.7.81,3.78,2.97,6.46,6.48,8.05,1.05.47,2.16.8,3.23,1.21.66.25,1.34.48,1.93.85,1.53.96,1.5,2.41-.05,3.32-.49.29-1.05.52-1.61.6-3.67.51-7.35.96-10.35,1.35Z"
     id="path15"
     style="fill:#f5f0e6;fill-opacity:1" />
  <path
     class="cls-1"
     d="M397.83,124.88c0-.83.11-1.68-.02-2.49-.32-2.04-2.14-2.84-3.66-1.47-2.32,2.08-4,4.66-4.82,7.7-.45,1.67.03,3.17,1.37,4.33,2.75,2.37,5.92,3.25,9.46,2.44,1.49-.34,2.91-.97,4.36-1.45.72-.24,1.45-.57,2.2-.64,1.53-.15,2.46,1.02,1.9,2.45-.34.87-.89,1.71-1.51,2.42-1.98,2.27-4.01,4.48-6.07,6.68-2.22,2.38-2.97,2.48-5.72.58-3-2.07-5.92-4.26-8.93-6.33-4.85-3.33-9.75-6.59-14.62-9.91-.84-.57-1.71-1.16-2.41-1.88-1.4-1.43-1.09-3,.7-3.89.68-.34,1.43-.56,2.16-.79,1.94-.63,3.56-1.75,4.84-3.32,4.99-6.11,9.38-12.64,13.58-19.3,1.4-2.22,2-4.68,2.09-7.29.02-.58,0-1.16.05-1.73.21-2.27,1.91-3.25,3.92-2.23.62.32,1.2.74,1.78,1.14,7.06,4.87,14.12,9.75,21.18,14.62,3.92,2.7,4.21,3.74,2.27,8.14-.88,1.99-1.71,4-2.61,5.98-.34.75-.73,1.5-1.2,2.18-.5.73-1.23,1.11-2.16.94-.95-.17-1.43-.87-1.6-1.71-.16-.8-.17-1.64-.19-2.47-.05-1.46,0-2.93-.1-4.39-.24-3.45-2.27-5.75-5.06-7.48-1.76-1.08-3.5-.95-4.88.56-1.15,1.26-2.2,2.68-3,4.19-1.17,2.22-.05,3.84,2.43,3.69.81-.05,1.61-.35,2.42-.52.62-.13,1.25-.35,1.87-.34,1.16.03,1.87.96,1.61,2.1-.15.67-.41,1.37-.79,1.94-2.32,3.46-4.68,6.88-7.03,10.31-.14.21-.32.41-.51.57-.59.52-1.22,1.02-2.06.71-.87-.32-1.27-1.04-1.3-1.95-.02-.7,0-1.41,0-2.11.02,0,.05,0,.07,0Z"
     id="path16"
     style="fill:#f5f0e6;fill-opacity:1" />
  <path
     class="cls-1"
     d="M124.95,184.17c.15-2.13-.7-4.13-1.68-6.09-.46-.92-.97-1.81-1.35-2.75-.31-.78-.43-1.65.25-2.34.74-.75,1.66-.6,2.5-.25.7.29,1.36.71,1.98,1.16,2.53,1.85,5.06,3.71,7.56,5.6,1.97,1.49,2.24,2.56,1.02,4.79-2.03,3.7-4.21,7.32-6.25,11.02-2.69,4.87-5.31,9.78-7.98,14.67-.49.9-.99,1.81-1.64,2.59-1.21,1.44-2.77,1.3-3.81-.28-.31-.48-.56-1.01-.77-1.54-.88-2.3-2.39-4.09-4.44-5.4-2.69-1.72-5.41-3.41-8.19-5-3.5-2-7.06-3.89-10.6-5.81-2.94-1.6-6.08-2.31-9.43-1.94-1.37.15-2.79.21-3.62-1.13-.83-1.33-.09-2.59.56-3.77,4.44-8,8.89-15.99,13.34-23.98.25-.45.53-.87.82-1.29.98-1.43,2.39-2.05,4-1.58,3.49,1.02,6.94,2.2,10.4,3.34.41.14.79.44,1.1.75,1.1,1.07.97,2.47-.4,3.18-.71.37-1.57.49-2.38.61-1.89.28-3.83.33-5.68.79-3.33.82-5.25,3.29-6.47,6.32-.54,1.34-.2,2.66.9,3.69,1.56,1.47,3.41,2.43,5.41,3.18,1.84.69,3.57-1.31,3.03-2.92-.25-.73-.5-1.45-.76-2.17-.18-.48-.43-.94-.55-1.43-.4-1.69.65-2.79,2.36-2.42.74.16,1.47.46,2.14.83,3.31,1.81,6.6,3.66,9.89,5.5.28.16.54.35.8.53.78.55,1.36,1.23,1.09,2.25-.27,1.02-1.17,1.3-2.07,1.45-.5.08-1.02.02-1.53.05-.7.03-1.41.04-2.11.12-1.15.13-2.15.59-2.47,1.8-.3,1.13.33,2,1.19,2.63,2.07,1.53,4.31,2.77,6.8,3.45,2.3.63,4.1-.15,5.42-2.2,1.09-1.69,1.6-3.55,1.6-5.96Z"
     id="path17"
     style="fill:#f5f0e6;fill-opacity:1" />
  <path
     class="cls-1"
     d="M353.44,343.94c.17.61.3,1.34.57,2.01.61,1.47,1.39,2.88,1.94,4.38,1.41,3.84,1.06,7.67-.28,11.45-.46,1.31-1.3,2.36-2.54,3.02-2,1.07-3.84-.03-3.81-2.29,0-.63.17-1.26.28-1.89.8-4.85-1.39-9.46-5.58-11.64-.76-.4-1.63-1.12-2.47-.4-.92.8-.29,1.77.11,2.63.43.93.95,1.82,1.36,2.75,1.61,3.75,1.47,7.5-.3,11.13-.57,1.17-1.53,2.2-2.46,3.14-.73.73-1.76,1.12-2.83.64-1.11-.5-1.32-1.5-1.19-2.59.12-1.01.23-2.04.48-3.02.59-2.27.01-4.3-1.15-6.23-1.68-2.76-3.82-5.13-6.3-7.18-1.18-.98-2.41-1.91-3.69-2.75-1.51-1-2.41-.94-3.26.01-.91,1.03-1.08,2.82-.29,3.93.48.67,1.11,1.24,1.61,1.9,1.3,1.7.82,3.18-1.22,3.8-.42.13-.88.27-1.31.23-4.05-.37-7.5-1.98-9.43-5.67-1.66-3.17-1.86-6.72-1.64-10.28.15-2.48,1.4-4.37,3.15-5.95,3.26-2.94,7.01-5.15,11.08-6.78,2.86-1.15,5.89-1.51,8.84-.61,8.52,2.59,16.89,5.62,24.21,10.88,1.81,1.3,3.51,2.79,5.1,4.35,2.47,2.42,3.79,5.46,4.04,8.89.12,1.67-.28,3.32-1.22,4.75-.27.42-.64.82-1.06,1.08-1.14.71-2.15.32-2.52-.98-.19-.67-.23-1.38-.29-2.08-.25-3.15-1.33-5.99-3.2-8.51-.6-.8-1.41-1.48-2.22-2.09-.66-.5-1.47-.83-2.52-.04Z"
     id="path18"
     style="fill:#f5f0e6;fill-opacity:1" />
  <path
     class="cls-1"
     d="M209.82,448.85c-.32,4.29-.61,8.5-.94,12.7-.36,4.59-.75,9.17-1.12,13.76-.23,2.93-.56,5.86-.62,8.8-.04,2.02.29,4.06.5,6.08.07.63.34,1.24.43,1.87.31,2.15-1.06,3.51-3.2,3.05-1.05-.22-2.06-.69-3.04-1.16-4.56-2.18-9.1-4.39-13.63-6.63-.8-.39-1.6-.84-2.26-1.42-1.46-1.29-1.27-2.75.44-3.72.72-.41,1.57-.58,2.28-1,.93-.54,1.92-1.09,2.62-1.87,1.28-1.42,1.06-2.94-.4-4.19-.29-.25-.6-.49-.94-.66-2.13-1.04-4.24-2.1-6.4-3.07-1.41-.64-2.88-.76-4.15.36-1.25,1.1-1.7,2.52-1.3,4.16.18.75.37,1.49.5,2.25.44,2.41-.87,3.57-3.2,2.84-.36-.12-.72-.25-1.07-.42-2.76-1.34-5.52-2.68-8.27-4.04-1.05-.52-2.09-1.1-2.1-2.48,0-1.39,1.02-2,2.11-2.46,3.18-1.35,5.81-3.47,8.28-5.81,5.21-4.94,10.43-9.85,15.59-14.83,1.56-1.51,3.16-3.05,4.38-4.83,2.5-3.66,6.07-4.15,10-3.82.95.08,1.9.28,2.81.58,1.87.62,2.64,1.75,2.69,3.74.02.77,0,1.54,0,2.23ZM194.87,461.4s-.07-.01-.1-.02c0-.32,0-.64,0-.96-.01-.87-.19-1.71-1.03-2.12-.84-.41-1.67-.09-2.31.48-1.15,1.02-2.31,2.03-3.32,3.19-1.04,1.19-.89,2.45.33,3.32.82.58,1.76,1.08,2.71,1.38,1.58.5,2.63-.09,3.08-1.7.32-1.16.44-2.38.64-3.57Z"
     id="path19"
     style="fill:#f5f0e6;fill-opacity:1" />
  <path
     class="cls-1"
     d="M423.66,167.25c1.07-.15,2.18-.16,3.2-.47,2.5-.77,3.26-2.84,1.71-4.93-1.56-2.1-3.24-4.14-5.06-6.01-2.61-2.68-5.44-.98-6.38,1.52-.29.77-.37,1.62-.55,2.42-.25,1.07-.45,2.21-1.7,2.57-1.31.38-2.16-.49-2.96-1.34-.44-.46-.8-.99-1.22-1.48-1.44-1.71-2.89-3.41-4.32-5.14-.53-.64-1.09-1.28-1.46-2.01-.7-1.35-.18-2.56,1.26-3.06.53-.19,1.13-.28,1.69-.26,2.99.11,5.83-.54,8.63-1.51,6.88-2.39,13.79-4.71,20.64-7.18,2.58-.93,5.1-2.07,7.54-3.3,2.27-1.15,4.51-1.38,6.83-.4,1.41.59,2.82,1.22,4.12,2.02,2.65,1.64,3.52,3.48,1.86,6.63-1.31,2.49-2.66,4.96-4,7.43-4.23,7.75-8.46,15.49-12.71,23.23-1.33,2.43-2.43,4.93-2.77,7.71-.05.38-.15.75-.25,1.12-.74,2.54-2.64,3.1-4.64,1.31-.76-.68-1.42-1.47-2.08-2.25-3.05-3.62-6.1-7.24-9.12-10.88-.65-.78-1.32-1.59-1.79-2.48-1-1.88-.12-3.28,2.01-3.39.51-.02,1.02,0,1.54,0,0,.05.01.09.02.14ZM434.36,155.76c.53-.29,1.13-.46,1.49-.84,1.35-1.47,2.37-3.17,2.91-5.1.36-1.27-.57-2.4-1.91-2.1-1.84.41-3.67,1.04-5.38,1.85-1.28.61-1.47,1.85-.66,3.1.58.89,1.35,1.69,2.12,2.44.33.32.89.42,1.43.65Z"
     id="path20"
     style="fill:#f5f0e6;fill-opacity:1" />
  <path
     class="cls-1"
     d="M91.32,397.53c.04-8.03,2.64-13.33,6.96-17.82,4.09-4.25,9.06-7.16,14.86-8.3,9.58-1.89,17.28,1.28,22.9,9.24,1.35,1.91,2.38,4.09,3.35,6.23.83,1.84,1.82,3.5,3.23,4.94,2.17,2.22,2.28,3.73.19,5.97-2.36,2.53-4.89,4.89-7.35,7.32-.23.22-.5.4-.77.58-.79.52-1.63.83-2.51.27-.92-.58-1.18-1.5-.91-2.51.3-1.11.66-2.2,1.08-3.27.87-2.21,1.64-4.45,1.8-6.84.17-2.49-.21-4.86-1.73-6.93-2-2.72-4.75-3.89-8.05-3.44-7.05.95-14.74,7.99-16.56,14.95-1.8,6.88,2.48,14.17,10.02,15.04.7.08,1.4.15,2.08.32,1.64.41,1.98,1.67.71,2.81-.66.59-1.46,1.05-2.27,1.41-4.55,2.07-9.15,1.89-13.51-.37-8.57-4.44-12.86-11.71-13.52-19.6Z"
     id="path21"
     style="fill:#f5f0e6;fill-opacity:1" />
  <path
     class="cls-1"
     d="M450.51,206.32c-4.6.22-7.75-.88-10.27-3.61-1.9-2.06-2.19-4.16-.57-6.44,1.4-1.98,3-3.82,4.61-5.64,6.28-7.1,12.58-14.17,18.91-21.23,1.73-1.93,3.14-4.03,4.12-6.43.26-.65.55-1.31.95-1.88,1.13-1.61,2.69-1.71,4.03-.27.47.51.88,1.11,1.2,1.73,2.7,5.16,5.39,10.32,8.06,15.5.29.56.53,1.18.64,1.8.32,1.78-.82,3-2.64,2.86-.63-.05-1.27-.16-1.89-.31-2.24-.54-4.22.07-5.89,1.53-2.26,1.98-4.43,4.07-6.62,6.13-.84.79-1.63,1.63-2.4,2.49-.55.62-1.12,1.25-1.53,1.96-.81,1.38-.24,2.41,1.38,2.45.82.02,1.67-.08,2.48-.26,3.8-.87,7.6-1.75,11.38-2.69,2.78-.69,4.87-2.22,5.69-5.13.05-.18.14-.36.23-.53,1.12-2.27,2.75-2.43,4.22-.39.37.51.65,1.1.94,1.67,1.33,2.55,2.66,5.11,3.98,7.67.23.45.45.92.61,1.4.59,1.77-.34,3.05-2.21,3.06-.51,0-1.03-.05-1.52-.19-2.91-.84-5.83-.61-8.75-.09-8.06,1.42-16.11,2.87-24.17,4.25-1.95.33-3.93.47-4.97.59Z"
     id="path22"
     style="fill:#f5f0e6;fill-opacity:1" />
  <path
     class="cls-1"
     d="M283.72,105.88c-2.75,0-5.51.02-8.26-.01-.7,0-1.42-.06-2.08-.26-1.68-.53-2.17-1.8-1.27-3.29.43-.71.99-1.34,1.55-1.95,1.25-1.36,2.13-2.91,2.33-4.74.25-2.29.49-4.58.54-6.88.06-2.48-.71-4.83-1.96-6.94-2.79-4.74-5.64-9.45-8.56-14.11-.77-1.23-1.93-2.21-2.87-3.35-.56-.68-1.17-1.39-1.53-2.18-.66-1.46,0-2.86,1.51-3.39.59-.21,1.25-.29,1.88-.32,1.15-.05,2.3-.01,3.46-.01,4.16,0,8.32-.02,12.48.02.82,0,1.68.08,2.45.35,1.37.47,1.92,1.72,1.41,3.1-.29.77-.73,1.49-1.13,2.22-.86,1.53-1.15,3.15-.52,4.8.63,1.67,1.26,3.36,2.15,4.89,1.08,1.85,2.61,1.85,3.75.08,1.29-2.01,2.19-4.23,2.29-6.64.04-1.03-.39-2.11-.72-3.13-.19-.6-.64-1.11-.94-1.67-1.15-2.16-.44-3.64,1.99-3.93,1.32-.16,2.68-.02,4.03-.02,1.98,0,3.96-.03,5.93,0,.89.01,1.8.01,2.66.22,1.63.41,2.24,1.7,1.55,3.25-.31.69-.74,1.38-1.28,1.89-3.92,3.65-6.52,8.19-8.94,12.87-1.17,2.27-2.34,4.55-3.45,6.86-1.35,2.81-1.43,5.8-1.18,8.83.06.76.21,1.52.29,2.28.23,2.24,1.04,4.2,2.61,5.84.44.46.87.95,1.23,1.48,1.22,1.78.53,3.43-1.62,3.8-.75.13-1.53.09-2.3.09-2.5,0-4.99,0-7.49,0,0,0,0-.02,0-.02Z"
     id="path23"
     style="fill:#f5f0e6;fill-opacity:1" />
  <path
     class="cls-1"
     d="M105.64,287.76c0,3.01,0,6.01,0,9.02,0,.44-.02.91-.16,1.32-.46,1.42-1.73,1.98-3.05,1.27-.78-.42-1.48-1.01-2.12-1.63-1.71-1.64-3.8-2.47-6.08-2.48-6.65-.04-13.31.07-19.96.14-1.28.01-2.56.07-3.83.22-.81.09-1.66.26-2.39.61-1.7.82-2.03,2.59-.71,3.95.7.72,1.59,1.28,2.46,1.81,1.2.74,2.46,1.36,3.68,2.07.55.32,1.09.69,1.54,1.14.66.65,1.07,1.45.75,2.43-.33,1-1.17,1.38-2.09,1.41-1.4.04-2.81-.03-4.22-.14-2.1-.16-4.19-.43-6.29-.59-3.38-.27-4.68-1.6-4.72-5-.06-5.19-.04-10.37-.17-15.56-.1-4.28-.37-8.56-.56-12.84-.02-.45-.06-.9-.04-1.34.12-3.11,1.25-4.39,4.33-4.84,2.65-.39,5.31-.78,7.97-1.11,1.01-.12,2.05-.18,3.06-.09,1.77.16,2.5,1.72,1.49,3.2-.45.66-1.12,1.23-1.79,1.69-1.26.87-2.62,1.61-3.89,2.47-.74.5-1.47,1.05-2.05,1.71-1.28,1.46-.93,3.16.84,3.9.86.36,1.86.56,2.79.55,4.8-.04,9.59-.14,14.39-.29,2.68-.08,5.36-.29,8.04-.45,3-.17,5.59-1.22,7.66-3.47.83-.9,1.79-1.78,3.15-1.28,1.45.54,1.59,1.86,1.59,3.19,0,3.01,0,6.01,0,9.02.13,0,.26,0,.39,0Z"
     id="path24"
     style="fill:#f5f0e6;fill-opacity:1" />
  <path
     class="cls-1"
     d="M229.07,463.9c-.38-1.59-.72-3.2-1.14-4.79-.21-.8-.64-1.54-.82-2.35-.51-2.28.75-3.63,3.05-3.32.44.06.88.15,1.32.24,5.18,1.11,10.37,2.23,15.55,3.36.56.12,1.13.24,1.65.47,1.87.82,2.22,2.5.81,4-.47.51-1.05.95-1.65,1.3-2.69,1.6-4.3,3.98-5.01,6.97-1.06,4.48-2.05,8.97-3.04,13.46-.48,2.18-.92,4.38-1.32,6.58-.15.81-.21,1.65-.19,2.47.05,2.21,1.25,3.73,3.37,4.37,2.81.84,5.49.42,7.88-1.2,1.3-.88,2.39-2.09,3.56-3.18.88-.82,1.64-1.81,2.62-2.49,1.22-.85,2.42-.28,2.7,1.19.1.54.08,1.17-.08,1.7-1.12,3.87-2.21,7.74-3.46,11.56-.64,1.96-1.59,2.47-3.71,2.09-3.01-.54-5.99-1.29-8.99-1.92-6.82-1.42-13.64-2.82-20.45-4.25-.93-.2-1.89-.44-2.72-.88-1.31-.7-1.53-2.04-.68-3.26.29-.41.65-.8,1.05-1.1,2.47-1.86,3.92-4.36,4.62-7.31,1.19-5.04,2.37-10.07,3.48-15.13.61-2.8,1.06-5.64,1.6-8.57Z"
     id="path25"
     style="fill:#f5f0e6;fill-opacity:1" />
  <path
     class="cls-1"
     d="M283.75,507.92c-4.61.11-9.22.24-13.82.33-.7.02-1.42,0-2.1-.13-2.08-.41-2.75-1.85-1.75-3.68.24-.45.54-.87.87-1.26,1.69-1.99,2.48-4.32,2.53-6.89.12-5.57.2-11.13.24-16.7.01-2.11-.13-4.22-.23-6.32-.13-2.49-.92-4.75-2.39-6.78-.41-.57-.82-1.15-1.14-1.78-.99-1.95-.28-3.4,1.86-3.81.75-.14,1.52-.22,2.28-.22,5.05-.03,10.1-.04,15.16-.04.7,0,1.42-.01,2.1.14,1.81.41,2.47,1.88,1.59,3.52-.3.55-.71,1.08-1.17,1.5-2.69,2.46-3.73,5.6-3.75,9.13-.04,5.89-.03,11.79.01,17.68,0,1.27.15,2.56.36,3.82.44,2.59,2.16,4.05,4.78,4.09,3.14.04,5.75-1.2,7.73-3.59.93-1.12,1.61-2.46,2.4-3.7.48-.76.86-1.6,1.44-2.26,1.23-1.4,2.86-1.02,3.28.8.25,1.1.27,2.29.2,3.43-.17,2.81-.44,5.61-.68,8.41-.06.63-.16,1.27-.28,1.89-.29,1.42-1.14,2.28-2.61,2.38-1.72.11-3.45.19-5.17.2-3.9.03-7.81,0-11.72,0,0-.05,0-.1,0-.15Z"
     id="path26"
     style="fill:#f5f0e6;fill-opacity:1" />
  <path
     class="cls-1"
     d="M333.69,161.29c.65-1.17,1.82-1.2,2.85-1.37,4.82-.8,9.47-.11,13.76,2.2,8.16,4.39,12.5,11.35,12.31,20.58-.3,14.96-13.86,24.26-26.58,21.79-.88-.17-1.77-.3-2.32-1.25.06-1.01.93-1.43,1.62-1.95,2.8-2.1,5.11-4.63,6.79-7.72,5.61-10.32,3-22.7-6.29-29.97-.83-.65-1.91-1.1-2.14-2.31Z"
     id="path27"
     style="fill:#f5f0e6;fill-opacity:1" />
  <path
     class="cls-1"
     d="M310.66,439.18c1.18-.71,2.32-1.5,3.54-2.13,5.4-2.77,10.82-5.51,16.25-8.25,14.5-7.31,29.01-14.61,43.52-21.91.68-.34,1.37-.71,2.09-.96,1.36-.48,1.99,0,2.16,1.47.23,1.99-.5,3.49-2.13,4.6-3.82,2.57-7.55,5.29-11.46,7.7-14.99,9.23-31.11,15.74-48.31,19.5-1.31.29-2.64.44-3.97.6-.48.06-.98-.05-1.47-.08-.07-.18-.14-.36-.2-.54Z"
     id="path28"
     style="fill:#f5f0e6;fill-opacity:1" />
  <path
     class="cls-1"
     d="M389.18,241.83c.49-1.23,1.59-1.54,2.55-1.99,5.15-2.42,10.31-4.81,15.47-7.2,5.62-2.61,11.25-5.21,16.87-7.82.52-.24,1.04-.5,1.58-.7,1.64-.62,2.52-.45,3.5.98.97,1.42,1.85,2.92,2.61,4.46.86,1.73.56,2.54-1.18,3.38-2.71,1.3-5.46,2.5-8.2,3.72-5.95,2.66-11.92,5.28-17.84,7.99-1.96.9-3.86,1.12-5.94.48-2.26-.7-4.56-1.22-6.83-1.87-.9-.26-1.9-.38-2.57-1.43Z"
     id="path29"
     style="fill:#f5f0e6;fill-opacity:1" />
  <path
     class="cls-1"
     d="M314.19,304.17c-1.39.43-1.64,1.37-2.03,2.14-.71,1.43-1.28,2.93-2,4.35-1.17,2.3-4.72,3.88-7.18,3.28-.85-.21-1.39-.7-1.31-1.62.12-1.27.31-2.53.47-3.8.48-3.67.98-7.34,1.44-11.02.25-2.01.69-2.64,2.72-3.18,3.36-.89,6.53-2.18,9.46-4.08,1.87-1.21,4.02-1.19,6.13-1.02,1.33.11,1.77.69,1.7,2.05-.04.82-.21,1.65-.39,2.45-1.04,4.56-2.45,9.01-4.53,13.21-.42.85-.93,1.7-1.58,2.37-.38.39-1.16.66-1.69.58-.78-.12-.68-.95-.68-1.59,0-.77.06-1.54-.02-2.3-.07-.59-.31-1.15-.51-1.83Z"
     id="path30"
     style="fill:#f5f0e6;fill-opacity:1" />
  <path
     class="cls-1"
     d="M89.68,348.54c-4.85,0-9.51-4.35-9.67-9.84-.09-3.24,1.36-5.81,4.2-7.49,6.39-3.78,15.22-.11,15.78,8.12.21,3.12-1.18,5.58-3.73,7.35-1.78,1.24-3.76,1.88-6.58,1.85Z"
     id="path31"
     style="fill:#f5f0e6;fill-opacity:1" />
  <path
     class="cls-1"
     d="M484.37,342.26c.02,4.49-2.71,8.22-6.59,9.03-4.59.95-9.46-1.45-11.5-5.75-.92-1.94-1.33-3.95-.9-6.14,1.11-5.66,5.86-8.64,11.45-7.09,4.54,1.26,7.53,5.21,7.54,9.95Z"
     id="path32"
     style="fill:#f5f0e6;fill-opacity:1" />
  <path
     class="cls-1"
     d="M264.85,188.14c-1.58.35-2.5-.34-3.45-.8-5.11-2.43-10.39-4.32-15.96-5.35-1.25-.23-2.52-.39-3.78-.6-.5-.08-1.02-.15-1.5-.32-1.08-.37-1.24-.92-.58-1.87.18-.26.4-.51.64-.71,4.97-4.16,9.45-5.02,15.08-2.51,4.45,1.98,7.37,5.42,9.15,9.88.26.67.26,1.44.4,2.28Z"
     id="path33"
     style="fill:#f5f0e6;fill-opacity:1" />
  <path
     class="cls-1"
     d="M378.2,340.71c0,2.56.03,5.12,0,7.69-.03,1.85-.79,2.3-2.43,1.42-1.95-1.05-3.62-2.32-4.27-4.65-.69-2.46-2.33-4.38-4.02-6.24-.26-.28-.56-.53-.79-.84-.7-.94-.7-1.71.34-2.27,3.04-1.62,6.13-3.16,9.27-4.58,1.15-.52,1.85.15,1.89,1.59.05,2.18.02,4.36.02,6.53,0,.45,0,.9,0,1.35h0Z"
     id="path34"
     style="fill:#f5f0e6;fill-opacity:1" />
  <path
     class="cls-1"
     d="M318.82,411.6c-.68.57-1.18,1.16-1.81,1.49-2.6,1.38-5.23,2.69-7.86,4.02-1.38.69-2.71.62-3.98-.29-.99-.71-2.04-1.34-2.97-2.11-1.06-.89-1.06-1.82.14-2.46,2.98-1.6,6.04-3.08,9.08-4.57.38-.19.92-.29,1.3-.17,2.35.72,4.38,1.94,6.11,4.09Z"
     id="path35"
     style="fill:#f5f0e6;fill-opacity:1" />
  <path
     class="cls-1"
     d="M332.93,396.98c.52.14,1.05.18,1.48.43,1.27.73,2.55,1.46,3.72,2.33,1.22.9,1.22,1.84-.06,2.54-2.97,1.61-5.98,3.14-9.03,4.59-.63.3-1.64.41-2.2.1-1.55-.84-3-1.9-4.41-2.99-.65-.5-.56-1.25.08-1.82.28-.25.6-.48.94-.65,2.61-1.34,5.22-2.67,7.85-3.98.5-.25,1.08-.36,1.64-.54Z"
     id="path36"
     style="fill:#f5f0e6;fill-opacity:1" />
  <path
     class="cls-1"
     d="M348.24,396.79c-.38-.09-.73-.1-.98-.26-1.39-.9-2.83-1.75-4.11-2.79-.93-.75-.79-1.47.15-2.2.3-.23.64-.43.98-.6,2.45-1.25,4.91-2.48,7.36-3.72,1.43-.72,2.82-.73,4.18.17.85.56,1.76,1.06,2.58,1.66,1.58,1.15,1.54,2.01-.19,2.98-1.95,1.09-3.96,2.08-5.96,3.1-.91.46-1.84.89-2.78,1.29-.4.17-.85.26-1.23.37Z"
     id="path37"
     style="fill:#f5f0e6;fill-opacity:1" />
  <path
     class="cls-1"
     d="M291.92,417.84c.35.1.75.14,1.07.33,1.43.83,2.9,1.62,4.23,2.6,1.15.83,1.13,1.73-.1,2.41-2.73,1.51-5.52,2.93-8.36,4.24-.66.3-1.71.21-2.39-.1-1.49-.7-2.93-1.57-4.27-2.53-1.13-.81-1.17-1.63-.02-2.25,2.97-1.61,6.03-3.05,9.06-4.54.22-.11.5-.1.78-.15Z"
     id="path38"
     style="fill:#f5f0e6;fill-opacity:1" />
  <path
     class="cls-1"
     d="M374.31,376.26c1.68.19,2.92,1.01,3.64,2.49.67,1.4.22,2.93-1.28,3.79-2.27,1.29-4.64,2.4-6.97,3.56-.81.41-1.65.31-2.38-.15-1.18-.75-2.37-1.51-3.44-2.4-1.08-.9-1.06-1.8.13-2.45,2.97-1.61,6-3.09,9.03-4.59.38-.19.86-.17,1.28-.24Z"
     id="path39"
     style="fill:#f5f0e6;fill-opacity:1" />
  <path
     class="cls-1"
     d="M355.85,377.43c-.51-.16-.99-.21-1.35-.44-1.19-.74-2.4-1.47-3.5-2.34-1.07-.85-1.04-1.83.14-2.46,2.81-1.51,5.68-2.91,8.56-4.28.47-.22,1.22-.31,1.64-.09,1.63.84,3.24,1.75,4.74,2.82.79.56.65,1.27-.13,1.92-.34.28-.74.51-1.13.71-2.28,1.15-4.56,2.3-6.86,3.41-.68.33-1.43.51-2.11.75Z"
     id="path40"
     style="fill:#f5f0e6;fill-opacity:1" />
  <path
     class="cls-1"
     d="M346.15,381.9c-.66.58-1.1,1.13-1.67,1.43-2.54,1.32-5.11,2.59-7.69,3.84-1.24.61-2.48.54-3.64-.22-.96-.63-1.93-1.26-2.79-2.01-.97-.85-.95-1.73.14-2.32,2.8-1.52,5.66-2.91,8.52-4.31.38-.19.9-.29,1.3-.18,2.27.59,4.11,1.86,5.82,3.78Z"
     id="path41"
     style="fill:#f5f0e6;fill-opacity:1" />
  <path
     class="cls-1"
     d="M325.42,392.34c-.81.63-1.35,1.18-2,1.52-2.27,1.19-4.59,2.27-6.85,3.45-1.66.87-3.18.74-4.65-.39-.66-.51-1.39-.93-2.02-1.47-1.05-.91-1.08-1.83.09-2.47,2.75-1.5,5.57-2.87,8.39-4.24.43-.21,1.04-.24,1.51-.12,2.15.54,3.94,1.66,5.54,3.71Z"
     id="path42"
     style="fill:#f5f0e6;fill-opacity:1" />
  <path
     class="cls-1"
     d="M272.72,418.74c-2.05-.37-3.62-1.46-5.08-2.7-.48-.41-.46-1.08.05-1.53.47-.42,1.02-.78,1.58-1.07,2.27-1.17,4.58-2.25,6.83-3.45,1.65-.88,3.17-.76,4.68.27.68.47,1.41.88,2.04,1.41,1.11.94,1.05,1.54-.14,2.42-.15.11-.31.23-.48.31-2.57,1.28-5.13,2.57-7.72,3.82-.56.27-1.2.37-1.76.53Z"
     id="path43"
     style="fill:#f5f0e6;fill-opacity:1" />
  <path
     class="cls-1"
     d="M304.51,402.73c-.62.49-1.14,1.06-1.79,1.39-2.31,1.22-4.68,2.33-7,3.55-1.53.81-2.93.68-4.29-.34-.71-.54-1.49-1.01-2.14-1.61-1.04-.97-.96-1.62.24-2.45.42-.29.88-.52,1.33-.75,1.99-1.01,3.99-2.01,5.98-3.03,1.5-.76,2.94-.72,4.34.24,1.14.78,2.53,1.26,3.32,3Z"
     id="path44"
     style="fill:#f5f0e6;fill-opacity:1" />
  <path
     class="cls-1"
     d="M265.63,401.69c1.86-.03,3.02.77,4.02,1.78.51.51.48,1.17-.1,1.69-.23.21-.5.41-.78.55-2.8,1.4-5.58,2.84-8.42,4.15-1.83.85-4.09.22-5.4-1.29-.56-.65-.54-1.25.11-1.83.28-.25.62-.46.96-.62,2.75-1.35,5.51-2.69,8.28-4.01.51-.24,1.08-.35,1.32-.42Z"
     id="path45"
     style="fill:#f5f0e6;fill-opacity:1" />
  <path
     class="cls-1"
     d="M341.92,412.29c-.02,1.01-.48,2.14-1.76,2.8-2.71,1.4-5.41,2.84-8.17,4.15-1.7.81-2.54.22-2.58-1.64-.03-1.37.42-2.53,1.69-3.19,2.76-1.44,5.52-2.9,8.34-4.24,1.64-.78,2.47-.13,2.48,2.12Z"
     id="path46"
     style="fill:#f5f0e6;fill-opacity:1" />
  <path
     class="cls-1"
     d="M361.29,402.22c.13,1.34-.49,2.37-1.75,3.02-2.66,1.37-5.3,2.79-8,4.08-1.81.86-2.55.26-2.62-1.77-.05-1.54.65-2.58,1.92-3.25,2.59-1.38,5.18-2.75,7.82-4.02,1.94-.93,2.65-.38,2.63,1.95Z"
     id="path47"
     style="fill:#f5f0e6;fill-opacity:1" />
  <path
     class="cls-1"
     d="M309.91,427.53c.08-1.41.56-2.55,1.83-3.21,2.72-1.41,5.43-2.85,8.2-4.17,1.59-.76,2.45-.18,2.51,1.56.05,1.38-.41,2.54-1.68,3.21-2.78,1.45-5.55,2.91-8.37,4.25-1.55.73-2.45.04-2.48-1.63Z"
     id="path48"
     style="fill:#f5f0e6;fill-opacity:1" />
  <path
     class="cls-1"
     d="M302.91,432.13c.06,1.01-.45,2.06-1.65,2.68-2.2,1.15-4.38,2.34-6.63,3.38-1.62.75-2.39.15-2.45-1.62-.04-1.26.39-2.31,1.48-2.91,2.34-1.29,4.7-2.55,7.12-3.67,1.43-.66,2.14.03,2.13,2.14Z"
     id="path49"
     style="fill:#f5f0e6;fill-opacity:1" />
  <path
     class="cls-1"
     d="M378.2,393.64c.1,1.27-.45,2.31-1.62,2.94-1.91,1.02-3.82,2.03-5.79,2.93-1.55.71-2.32.23-2.46-1.43-.12-1.48.26-2.81,1.67-3.58,1.79-.97,3.59-1.93,5.42-2.8,2.02-.96,2.8-.39,2.77,1.95Z"
     id="path50"
     style="fill:#f5f0e6;fill-opacity:1" />
  <path
     class="cls-1"
     d="M325.71,279.42c.25-.9.33-1.53.59-2.08,1.03-2.2,2.04-4.41,3.2-6.54.54-.99,1.34-1.86,2.14-2.66.4-.4,1.07-.52,1.61-.75,1.23,2.18.38,6.59-1.76,9.25-1.37,1.7-2.94,3.18-5.78,2.78Z"
     id="path51"
     style="fill:#f5f0e6;fill-opacity:1" />
  <path
     class="cls-1"
     d="M378.18,362.94c0,.7.07,1.41-.01,2.1-.19,1.59-1.46,2.41-2.87,1.69-1.4-.72-2.71-1.65-3.93-2.65-.86-.7-.76-1.63.22-2.21,1.47-.87,3.01-1.65,4.58-2.32,1.11-.47,1.84.07,1.99,1.29.08.69.01,1.4.02,2.1Z"
     id="path52"
     style="fill:#f5f0e6;fill-opacity:1" />
  <path
     class="cls-1"
     d="M324.31,374.85c-.13-1.06.39-1.94,1.43-2.53,1.69-.96,3.38-1.88,5.33-.51,1.5,1.06,1.57,1.95.02,2.86-1.31.77-2.7,1.45-4.09,2.06-1.85.81-2.65.26-2.68-1.88Z"
     id="path53"
     style="fill:#f5f0e6;fill-opacity:1" />
</svg>
