<?xml version="1.0" encoding="UTF-8"?>
<svg id="Calque_1" data-name="Calque 1" xmlns="http://www.w3.org/2000/svg" version="1.1" viewBox="0 0 566.93 566.93">
  <defs>
    <style>
      .cls-1 {
        fill: #000;
        stroke-width: 0px;
      }
    </style>
  </defs>
  <path class="cls-1" d="M389.29,242.57c.93.43,1.56.87,2.25,1.03,2.47.6,4.96,1.15,7.46,1.64,1.88.37,3.63-.08,5.36-.87,9.86-4.48,19.73-8.92,29.6-13.37.58-.26,1.17-.51,1.77-.71,1.31-.42,2.24-.1,2.91,1.06.35.6.59,1.27.81,1.93,3.11,9.46,5.46,19.09,6.64,28.98.53,4.48.94,8.99,1.15,13.49.24,5.03.45,10.08.24,15.1-1.06,25.39-7.27,49.41-19.4,71.83-6.62,12.23-14.72,23.4-24.25,33.52-.47.5-1.02.98-1.63,1.31-.88.48-1.66.13-1.92-.84-.15-.54-.17-1.14-.17-1.71.1-18.75.21-37.5.32-56.25,0-1.28.05-2.55.05-3.83.04-18.5.07-37,.14-55.49.03-7.91.16-15.82.25-23.72,0-.57.02-1.15-.03-1.72-.13-1.26-.76-2.22-2.03-2.47-3.12-.62-6.24-1.22-9.39-1.66-1.71-.24-2.27.43-2.34,2.2-.02.51,0,1.02,0,1.53,0,22.77,0,45.54,0,68.32,0,12.69-.06,25.39-.1,38.08-.05,16.26-.14,32.53-.11,48.79,0,2.33-.7,4.08-2.57,5.4-.83.59-1.57,1.31-2.45,1.81-1.33.76-2.16.35-2.52-1.15-.12-.49-.11-1.01-.11-1.52-.01-1.66.04-3.32-.02-4.97-.08-2.21-.95-2.75-2.95-1.76-4.22,2.1-8.41,4.26-12.61,6.41-20.17,10.36-40.34,20.74-60.52,31.1-3.57,1.83-7.17,3.61-10.72,5.48-2.17,1.14-4.12,1.07-6.29-.22-16.48-9.82-33-19.55-49.51-29.32-.71-.42-1.42-.87-2.02-1.43-.89-.83-.86-1.64.03-2.45.41-.38.92-.69,1.42-.96,2.01-1.11,4.01-2.22,6.05-3.27,1.71-.88,2.62-2.18,2.44-4.14-.23-2.61,1.08-4.09,3.37-5.14,8.5-3.92,16.96-7.93,25.43-11.92.69-.32,1.38-.68,1.98-1.14.78-.6.84-1.37,0-1.88-1.62-.99-3.32-1.86-5.06-2.63-.5-.22-1.26,0-1.84.19-.9.3-1.76.74-2.61,1.16-22.94,11.37-45.91,22.71-68.8,34.17-2.93,1.47-5.16,1.37-7.87-.56-34.26-24.41-56.57-56.93-66.62-97.8-1.82-7.42-2.93-14.98-3.65-22.6-.71-7.57-.95-15.15-.57-22.72.96-19.24,5.01-37.81,12.45-55.62,7.32-17.52,17.33-33.33,30.06-47.39,12.78-14.11,27.56-25.71,44.34-34.73,13.38-7.19,27.47-12.43,42.3-15.69,6.34-1.4,12.75-2.35,19.21-3.04,8.45-.9,16.93-1.02,25.39-.56,14.42.78,28.53,3.46,42.24,8.09,21.23,7.16,40.21,18.19,56.95,33.08,17.48,15.55,31.1,33.97,40.88,55.24,1.5,3.27,1.23,4.1-2.01,5.68-12.55,6.09-25.11,12.16-37.66,18.25-.74.36-1.47.77-2.16,1.22-.29.19-.48.55-.98,1.16ZM242.83,302.82c.81,1.21,1.74,1.27,2.61,1.33,1.33.1,2.68.14,4.01.09,3.84-.14,7.56-.95,11.23-2.07.78-.24,1.6-.47,2.41-.52,1.03-.06,1.43.55.94,1.48-.44.83-1.13,1.53-1.64,2.33-.29.46-.75,1.26-.59,1.45.34.41,1.03.56,1.6.75.23.08.51,0,.76-.01,4.09-.33,8.02-1.3,11.81-2.9,1.6-.68,2.52-1.69,2.16-3.53-.02-.12-.03-.25-.03-.38-.01-.72.03-1.56.8-1.77.52-.14,1.23.1,1.75.38.66.36,1.2.93,1.82,1.39,2.65,1.99,5.62,2.95,8.94,2.66,2.84-.25,4.37-1.96,4.36-4.8,0-2.35-1.03-4.18-2.89-5.54-1.03-.75-2.12-1.42-3.22-2.05-4.95-2.81-7.81-7.18-9.42-12.49-.27-.9-.43-1.88-.42-2.81,0-.47.41-1.12.82-1.34.28-.15.98.18,1.32.49.7.64,1.27,1.42,1.91,2.14,3.44,3.91,7.45,6.99,12.59,8.24,3.23.79,6.5,1.01,9.85.62,4.8-.56,8.65-2.51,11.1-6.8,1.23-2.16,2.46-4.32,3.59-6.53,2.47-4.87,1.32-7.7-2.78-10.16-1.53-.92-3.05-1.86-4.5-2.89-1.13-.81-2.23-1.71-3.2-2.71-1.79-1.86-1.88-3.76-.42-5.88,1.18-1.72,2.77-2.86,4.87-3.01,2.41-.18,4.83-.14,7.24-.33,1.63-.13,3.3-.33,4.86-.79,1.45-.43,1.85-1.5,1.22-2.88-.53-1.14-1.23-2.23-2-3.24-3.18-4.18-6.98-7.77-10.93-11.21-9.15-7.98-19.09-14.87-29.3-21.41-6.71-4.3-13.51-8.44-20.8-11.72-11.92-5.37-24.25-8.93-37.5-8.18-2.65.15-5.3.63-7.91,1.16-1.67.34-2.27,1.37-2.11,2.92.15,1.45.53,2.91.49,4.35-.05,1.82-.37,3.64-.69,5.44-.11.6-.62,1.26-1.36,1.07-.47-.12-.98-.58-1.21-1.02-.45-.9-.72-1.9-1.07-2.85-1.45-3.94-3.46-7.52-6.59-10.39-3.06-2.82-6.66-4.23-10.8-3.98-3.02.18-5.85,1.17-8.53,2.58-3.29,1.74-5.35,4.45-6.31,8.01-1.39,5.16-.72,10.14,1.72,14.82,1.26,2.42,2.91,4.63,4.37,6.94.44.7.93,1.37,1.27,2.12.35.76.05,1.39-.7,1.67-.35.13-.75.16-1.13.17-4.69.17-9.01,1.56-13.04,3.89-9.39,5.42-18.44,11.38-26.94,18.13-5.27,4.18-9.96,8.94-13.57,14.67-2.54,4.02-4.47,8.29-5.3,13.01-.15.84-.27,1.61.64,2.41.62-.58,1.25-1.09,1.77-1.69.91-1.06,1.69-2.25,2.65-3.26,1.48-1.57,3.04-3.07,4.64-4.52.6-.55,1.37-.97,2.36-.05-.42,1.06-.79,2.2-1.3,3.27-4.45,9.39-6.38,19.29-6.05,29.66.03.92,0,1.9,1.06,2.69.4-.58.8-1.05,1.09-1.59.51-.95.96-1.94,1.43-2.91,2.15-4.43,4.73-8.6,7.97-12.32.54-.61,1.17-1.19,1.86-1.61.88-.52,1.53-.14,1.56.86.02.75-.11,1.52-.29,2.26-2.47,10.28-4.78,20.59-5.66,31.15-.31,3.74-.14,7.51-.15,11.27,0,.56.16,1.14.35,1.67.13.36.45.64.89,1.24.41-.92.73-1.52.95-2.16.34-1.03.6-2.08.91-3.12,1.13-3.8,2.45-7.53,4.64-10.85.87-1.31,1.92-2.56,3.08-3.61,1.18-1.06,2.36-.43,2.45,1.17.02.37-.11.75-.15,1.13-.28,2.66-.68,5.31-.82,7.97-.26,4.9-.43,9.82.31,14.69.44,2.88,1.18,5.72,1.87,8.56.16.67.71,1.24,1.29,2.23.39-.84.69-1.25.77-1.7.27-1.5.49-3.01.69-4.52.55-4.17,1.23-8.31,2.65-12.29.34-.95.78-1.89,1.34-2.73.27-.4.98-.81,1.38-.72.4.09.84.75.97,1.23.25.98.36,2.01.42,3.02.37,5.92,1.19,11.78,2.48,17.56.65,2.91,1.62,5.75,2.51,8.6.21.68.47,1.47,1.63,1.63.15-.91.31-1.76.43-2.62.25-1.76.44-3.53.72-5.29.1-.62.31-1.26.66-1.77.29-.42.82-.85,1.29-.9.33-.03.86.5,1.05.9.36.73.57,1.55.78,2.34,1.49,5.55,3.27,10.99,6.14,16.01.82,1.43,1.81,2.77,2.82,4.08.26.34.86.42,1.3.62.18-.44.5-.86.52-1.31.07-1.46-.07-2.94.05-4.4.12-1.44.3-2.92.75-4.29.43-1.33,1.56-1.48,2.52-.46.56.6.99,1.32,1.46,2,2.99,4.36,5.9,8.78,9,13.07,1.71,2.37,3.71,4.54,5.65,6.73,1.64,1.86,3.76,2.87,6.25,2.82,2.22-.05,4.5-.01,6.64-.51,6.55-1.52,13.23-1.74,19.86-2.48,4.29-.48,8.58-1.05,12.84-1.81,4.07-.72,8.08-1.75,12.12-2.62,2.82-.6,5.33-.13,7.74,1.67,1.97,1.47,4.24,2.57,6.44,3.72,1.35.7,2.83,1.15,4.22,1.78,2.4,1.1,3.79,2.9,3.88,5.64.04,1.33.18,2.66.35,3.98.15,1.22.7,2.22,1.98,2.54,1.3.33,2.48-.13,3.23-1.16.7-.96,1.36-2.07,1.6-3.21.62-2.92,1.11-5.89.57-8.89-.21-1.19-.6-2.34-.82-3.53-.09-.46-.13-1.13.13-1.4.51-.53,1.23-.25,1.73.17.77.65,1.53,1.35,2.18,2.12,2.08,2.47,2.84,5.35,2.52,8.56-.1,1.05.09,2.07,1.18,2.61.87.43,2.18.03,3.1-.92.22-.23.43-.48.58-.76,1.76-3.34,2.74-6.82,2.15-10.65-.31-2-1.22-3.74-2.07-5.52-.34-.71-.95-1.39-.4-2.53.63.17,1.34.22,1.88.55.8.49,1.56,1.12,2.2,1.81,1.9,2.07,3.03,4.55,3.55,7.29.23,1.19.29,2.4.5,3.59.4,2.25,2.34,3.03,4.07,1.54.67-.58,1.23-1.52,1.43-2.39.94-3.95.49-7.72-1.95-11.1-2.11-2.93-4.63-5.43-7.7-7.34-8.08-5.01-16.61-9.18-25.1-13.42-3.71-1.85-7.7-2.55-11.88-2.14-2.47.24-4.95.4-7.43.38-6.18-.06-12.36-.16-18.53-.4-3.56-.14-7.1-.52-10.65-.87-2.71-.27-5.23-1.08-7.3-2.97-.8-.73-1.65-1.41-2.41-2.18-6.72-6.71-13.3-13.56-19.46-20.8-1.53-1.8-2.97-3.66-4.37-5.55-.54-.73-1.17-1.55-.67-2.82.65.05,1.34.02,1.97.18.73.19,1.42.57,2.13.84,2.85,1.11,5.71,2.16,8.77,2.57.72.09,1.37.21,1.92-.49-.21-.97-.99-1.45-1.68-1.98-2.02-1.56-4.13-3.01-6.06-4.66-2.32-1.98-4.52-4.1-6.73-6.21-.68-.65-1.15-1.48-1.18-2.46,1.28-.53,1.3-.58,2.37-.08,1.79.84,3.53,1.77,5.32,2.6,1.9.89,3.84,1.71,5.76,2.55.57.25,1.16.47,1.81-.01-.29-1.11-1.08-1.77-1.77-2.49-1.98-2.07-4.05-4.07-5.96-6.2-4.28-4.77-7.95-9.97-10.59-15.83-.89-1.97-1.57-4.03-2.23-6.09-.28-.87-.51-1.86.28-2.73,1.42.08,2.07,1.19,2.83,2.07,3.71,4.32,7.77,8.25,12.47,11.51,7.91,5.49,16.62,8.52,26.3,8.45,3.63-.03,7.22-.64,10.75-1.5.61-.15,1.25-.27,1.88-.26,1,.01,1.45.52,1.17,1.48-.22.77-.62,1.59-1.18,2.13-1.7,1.62-3.52,3.12-5.29,4.67-.65.57-1.31,1.13-2.01,1.73ZM310.41,343.16c.25,1.76.47,3.53.77,5.28.89,5.18,4.49,7.59,9.18,8.81,1.19.31,2.41.22,3.53-.39,1.38-.75,1.7-1.86.87-3.18-.33-.53-.85-.95-1.21-1.47-.43-.62-.95-1.24-1.15-1.94-.35-1.19.13-2.25,1.03-3.07.89-.81,1.81-.4,2.63.13,4.11,2.67,7.65,5.93,10.24,10.14,1.07,1.74,1.54,3.61,1.15,5.66-.21,1.12-.41,2.25-.56,3.39-.13.98-.03,1.97.9,2.55,1.04.64,2.16.46,3.04-.26.87-.72,1.73-1.55,2.28-2.52,2.41-4.23,2.54-8.57.34-12.95-.49-.97-1.06-1.91-1.38-2.93-.42-1.34.29-1.95,1.63-1.53.24.08.49.16.71.28,2.95,1.55,6.4,5.14,6.04,10.07-.07,1.01-.26,2.02-.4,3.03-.18,1.23.05,2.31,1.16,3.02.93.6,2.48.31,3.54-.58,1.17-.99,1.83-2.29,2.21-3.72,1.13-4.26,1.08-8.44-.99-12.45-.5-.96-1.03-1.92-1.4-2.93-.17-.46-.16-1.27.12-1.51.29-.25,1.08-.17,1.53.03,1.52.65,2.5,1.93,3.36,3.29,1.68,2.65,2.42,5.59,2.62,8.68.07,1.01.28,1.92,1.36,2.3.77.27,1.79-.28,2.49-1.38.34-.53.62-1.12.83-1.71.54-1.6.6-3.25.24-4.91-.6-2.74-1.82-5.15-3.79-7.17-2.96-3.04-6.34-5.53-10.05-7.56-5.55-3.04-11.47-5.22-17.43-7.28-3.32-1.15-6.75-1.36-10.13-.14-4.42,1.6-8.4,3.96-11.9,7.1-2.32,2.08-3.53,4.64-3.41,7.83ZM334.33,161.2c.56,1.18.59,1.15,2.25,2.51,7.28,5.94,10.27,13.61,8.71,22.86-1.03,6.1-4.3,10.94-9.25,14.66-.72.54-1.93,1-1.63,2.12.3,1.13,1.59,1.14,2.56,1.34,2.65.56,5.31.45,7.96-.04,13.11-2.44,21.34-15.7,17.74-28.56-3.14-11.22-14.46-18.35-25.78-16.24-.99.18-2.03.31-2.57,1.35ZM314.61,304.15c.35.81.55,1.08.57,1.37.06,1.02-.02,2.04.11,3.05.07.58.29,1.32.71,1.62.66.47,1.4-.04,1.84-.56.64-.77,1.22-1.63,1.66-2.53,2.11-4.37,3.59-8.96,4.59-13.7.14-.68.32-1.37.35-2.06.05-1.16-.49-1.87-1.64-1.95-2.35-.15-4.68-.19-6.8,1.22-2.67,1.77-5.6,2.97-8.72,3.73-2.4.59-2.83,1.21-3.14,3.66-.48,3.78-1.01,7.55-1.53,11.32-.14,1.01-.37,2.01-.43,3.02-.06,1.05.41,1.65,1.26,1.87,2.8.71,6.28-.86,7.57-3.47.74-1.48,1.33-3.03,2.07-4.5.31-.63.83-1.15,1.52-2.07ZM265.52,186.94c-.09-.28-.21-.78-.4-1.25-1.22-3.01-3.03-5.63-5.6-7.61-3.56-2.75-7.52-4.31-12.11-3.28-2.74.61-5.08,2.03-7.04,4.02-1.24,1.26-.94,2.09.79,2.48.31.07.63.08.95.13,1.19.19,2.39.35,3.58.57,5.8,1.05,11.3,3.03,16.61,5.56.63.3,1.28.6,1.95.74.94.19,1.33-.22,1.28-1.35ZM379.19,341.04c0-2.29.02-4.58,0-6.87-.03-2.94-.85-3.49-3.44-2.26-2.29,1.09-4.57,2.22-6.83,3.38-2.47,1.27-2.58,2.1-.62,4.13,1.65,1.71,3.13,3.57,3.82,5.85.64,2.1,1.95,3.49,3.77,4.56,2.35,1.39,3.25.95,3.29-1.74.04-2.35,0-4.71,0-7.06ZM313.23,407.8c-.48.09-.96.08-1.34.27-2.97,1.46-5.95,2.9-8.87,4.47-1.28.69-1.33,1.66-.24,2.61.86.75,1.86,1.35,2.78,2.03,1.48,1.1,3,1.18,4.63.32,2.08-1.11,4.19-2.16,6.28-3.25.68-.35,1.39-.67,2-1.12,1.11-.82,1.17-1.65.07-2.47-1.28-.94-2.67-1.72-4.05-2.52-.37-.21-.84-.24-1.25-.35ZM333.86,397.28c-.35.09-.68.11-.96.25-3.18,1.58-6.39,3.11-9.52,4.79-1.08.58-1.08,1.5-.11,2.34.95.83,2.04,1.51,3.08,2.24,1.26.9,2.59.95,3.96.26,1.7-.86,3.4-1.72,5.1-2.59,1.08-.55,2.18-1.05,3.21-1.67,1.55-.93,1.64-1.89.22-2.94-1.07-.79-2.23-1.46-3.39-2.12-.49-.28-1.07-.38-1.58-.56ZM349.12,397.26c.63-.23,1.31-.41,1.93-.72,2.51-1.24,5-2.52,7.49-3.8.39-.2.79-.42,1.13-.7.95-.79,1.03-1.42.09-2.19-1.03-.84-2.19-1.52-3.31-2.25-1.22-.79-2.49-.85-3.8-.19-2.67,1.35-5.34,2.69-8.01,4.04-.23.11-.45.25-.64.41-1,.79-1.13,1.57-.15,2.36,1.23.99,2.6,1.82,3.94,2.67.36.22.84.24,1.34.37ZM288.3,428.22c.4-.09.74-.11,1.01-.25,2.9-1.45,5.82-2.85,8.65-4.41,1.11-.61,1.12-1.52.11-2.31-1.15-.89-2.42-1.64-3.66-2.42-1.24-.78-2.51-.78-3.81-.11-1.87.96-3.75,1.88-5.62,2.83-.79.4-1.62.77-2.33,1.29-1.12.81-1.14,1.65,0,2.44,1.35.94,2.81,1.73,4.26,2.53.43.24.96.28,1.39.39ZM361.31,367.91c-.63.22-1.37.39-2.04.72-2.11,1.02-4.2,2.1-6.3,3.16-.23.11-.45.24-.67.37-1.81,1.1-1.85,1.97-.14,3.29.7.54,1.47,1,2.19,1.52,1.32.96,2.69,1,4.12.28,2.5-1.25,5-2.5,7.49-3.75.17-.08.33-.19.48-.3,1.21-.86,1.32-1.68.15-2.56-1.16-.87-2.43-1.61-3.7-2.33-.42-.24-.97-.25-1.61-.39ZM374.72,376.5c-.43.16-1.17.36-1.85.69-2.51,1.24-5,2.52-7.49,3.79-.28.14-.57.3-.81.5-1,.81-1.12,1.57-.14,2.36,1.23,1,2.6,1.81,3.93,2.68.78.51,1.64.32,2.38-.05,2.28-1.12,4.57-2.24,6.78-3.5,1.45-.82,1.89-2.31,1.37-3.78-.48-1.38-2.4-2.72-4.17-2.69ZM335.84,388.12c.29-.05.57-.03.79-.14,3.07-1.5,6.18-2.95,9.19-4.57,1.18-.64,1.16-1.59.03-2.42-1.17-.86-2.43-1.61-3.73-2.28-.52-.27-1.34-.47-1.82-.25-3.15,1.47-6.28,3-9.35,4.65-.89.48-.91,1.41-.09,2.07,1.28,1.02,2.7,1.87,4.08,2.75.25.16.61.14.89.19ZM315.23,398.49c.59-.21,1.33-.4,2.01-.73,2.29-1.11,4.56-2.26,6.83-3.4.34-.17.68-.35.98-.58,1.03-.8,1.12-1.52.13-2.34-.87-.73-1.88-1.29-2.84-1.92-1.35-.88-2.73-.89-4.16-.15-2.26,1.17-4.54,2.3-6.81,3.45-.28.14-.56.3-.82.49-.99.75-1.14,1.59-.19,2.36,1.17.96,2.5,1.73,3.78,2.55.25.16.61.16,1.08.27ZM273.09,419.15c.56-.05.85,0,1.06-.1,3.18-1.56,6.39-3.09,9.51-4.76.91-.48.88-1.38.09-2.07-.71-.62-1.56-1.09-2.34-1.63-1.57-1.09-3.17-1.1-4.84-.23-2.25,1.17-4.53,2.28-6.79,3.45-.56.29-1.09.66-1.56,1.07-.49.43-.6,1.05-.11,1.51,1.5,1.39,3.13,2.56,4.97,2.76ZM294.23,408.78c.41-.07.69-.05.91-.16,3.08-1.51,6.18-2.97,9.21-4.58,1.01-.54,1-1.4.1-2.19-.86-.74-1.85-1.33-2.81-1.96-1.28-.84-2.6-.87-3.97-.17-2.26,1.16-4.54,2.29-6.81,3.43-.11.06-.23.11-.34.18-1.76,1.09-1.85,1.92-.27,3.19.79.63,1.65,1.19,2.53,1.7.48.28,1.05.41,1.46.56ZM266.57,401.88c-.6.21-1.35.38-2.03.71-2.59,1.22-5.16,2.49-7.73,3.75-.29.14-.57.29-.83.47-1.22.85-1.25,1.62-.07,2.57,1.71,1.38,3.52,1.92,5.63.79,2.41-1.29,4.89-2.46,7.33-3.7.5-.26.98-.59,1.41-.96.58-.5.6-1.14.09-1.68-.99-1.04-2.23-1.67-3.79-1.95ZM362.23,402.44c0-2.09-.88-2.75-2.73-1.87-2.69,1.29-5.32,2.69-7.97,4.06-1.54.8-2.1,2.11-1.96,3.79.14,1.6.95,2.19,2.44,1.48,2.87-1.35,5.69-2.81,8.49-4.3,1.21-.64,1.78-1.77,1.72-3.17ZM342.72,412.46c.03-2.11-.86-2.8-2.69-1.92-2.75,1.32-5.45,2.74-8.15,4.17-1.46.77-1.97,2.08-1.81,3.69.15,1.49.96,2.11,2.33,1.47,2.99-1.41,5.92-2.94,8.83-4.49,1.09-.59,1.51-1.67,1.48-2.91ZM323.21,422.18c.02-1.86-.86-2.52-2.72-1.62-2.7,1.3-5.34,2.71-8,4.08-1.39.72-2.02,1.87-1.95,3.43.09,1.75.9,2.4,2.46,1.66,2.88-1.36,5.7-2.84,8.52-4.31,1.19-.62,1.69-1.68,1.68-3.24ZM303.69,432.12c.02-1.63-.8-2.45-2.22-1.79-2.47,1.14-4.88,2.42-7.26,3.74-1.07.59-1.52,1.67-1.52,2.9,0,1.79.95,2.53,2.56,1.79,2.36-1.09,4.64-2.33,6.93-3.56,1.11-.6,1.52-1.65,1.51-3.08ZM334.78,269.81c0-.19.06-.4-.01-.56-.23-.56-.37-1.29-.8-1.58-.29-.2-1.17.08-1.5.42-.91.95-1.82,1.96-2.46,3.09-1.07,1.87-1.93,3.86-2.87,5.81-.22.46-.43.92-.57,1.41-.28,1.03.04,1.42,1.13,1.38,1.28-.05,2.29-.72,3.21-1.51,2.59-2.22,3.5-5.21,3.86-8.46ZM379.17,393.78c0-2.1-.97-2.74-2.92-1.82-1.72.8-3.38,1.73-5.08,2.59-1.62.81-2.24,2.12-2.09,3.9.15,1.74.9,2.29,2.51,1.56,1.96-.89,3.86-1.91,5.76-2.91,1.32-.69,1.81-1.88,1.82-3.31ZM379.25,363.32c-.07-.79-.05-1.63-.23-2.43-.25-1.09-.98-1.55-2-1.11-1.64.69-3.24,1.49-4.76,2.41-1,.6-1.07,1.45-.18,2.2,1.21,1.02,2.52,1.96,3.9,2.71,1.41.77,2.66.11,3.04-1.46.18-.73.16-1.51.23-2.32ZM324.83,374.99c.03,2.22,1.09,3,2.83,2.22,1.56-.69,3.09-1.46,4.54-2.36,1.16-.71,1.11-1.56.08-2.44-1.95-1.68-5.96-.89-7.1,1.42-.22.44-.29.96-.34,1.15Z"/>
  <path class="cls-1" d="M165.62,416.65c-.12,1.73-.84,2.69-2.02,3.2-1.04.45-2.15.77-3.26,1.02-2.55.57-4.53,1.98-6.13,3.97-1.24,1.54-1.53,3.28.32,4.87,1.3,1.12,2.54,2.32,3.89,3.39,1.77,1.42,3.12,1.32,4.74-.24,1.92-1.84,2.95-4.11,3.2-6.75.1-1.07.21-2.16.5-3.19.54-1.97,2.59-3.78,5.21-1.8,1.57,1.19,2.94,2.63,4.44,3.91,2.47,2.11,4.98,4.17,7.45,6.28.72.62,1.45,1.27,2,2.03,1.08,1.5.82,3.09-.68,4.17-.65.47-1.45.85-2.23,1.01-3.35.67-5.97,2.54-8.14,5.03-4.06,4.66-8.03,9.39-12.01,14.11-.82.97-1.53,2.04-2.23,3.1-1.07,1.63-1.61,3.43-1.65,5.41-.01.87-.15,1.79-.45,2.61-.57,1.6-2.16,2.3-3.72,1.6-.91-.41-1.76-1.02-2.53-1.67-3.68-3.14-7.33-6.32-10.98-9.5-.67-.58-1.34-1.2-1.86-1.91-1.28-1.76-.72-3.68,1.27-4.54.64-.27,1.33-.43,2.02-.54,2.27-.38,4.23-1.39,5.87-2.98,1.46-1.42,2.92-2.86,4.22-4.42,1.47-1.78,1.33-3.16-.32-4.68-1.36-1.25-2.76-2.46-4.22-3.59-1.68-1.3-2.91-1.25-4.39.26-2.25,2.29-4.08,4.91-5.27,7.9-.44,1.09-.46,2.36-.65,3.55-.09.56-.04,1.15-.19,1.7-.62,2.39-2.6,3.26-4.7,1.92-1.38-.88-2.58-2.06-3.84-3.14-2.96-2.52-5.92-5.03-8.84-7.59-.8-.71-1.6-1.49-2.16-2.39-.97-1.55-.44-3.18,1.2-4,.67-.34,1.42-.61,2.17-.7,2.67-.34,4.81-1.65,6.57-3.58,3.52-3.86,6.99-7.76,10.45-11.67,1.14-1.29,2.2-2.65,3.32-3.95,2.19-2.54,3.5-5.43,3.71-8.81.05-.74.25-1.53.58-2.19.86-1.7,2.55-2.23,4.19-1.24,1.18.72,2.23,1.68,3.29,2.59,3.1,2.65,6.18,5.32,9.25,7.99.62.54,1.27,1.09,1.76,1.74.44.59.66,1.33.84,1.7Z"/>
  <path class="cls-1" d="M99.27,245.99c1.95-.08,3.71-.52,5.4-1.38.56-.29,1.16-.54,1.78-.69,2.08-.53,3.71.69,3.74,2.85.01.94-.12,1.91-.33,2.83-1.06,4.65-2.15,9.3-3.26,13.93-.22.92-.48,1.87-.93,2.7-.98,1.83-2.9,2.18-4.51.88-.54-.43-1.02-.97-1.43-1.53-1.48-2.06-3.48-3.35-5.89-3.99-5.29-1.4-10.58-2.77-15.89-4.1-2.03-.51-4.1-.87-6.16-1.29-2.37-.48-4.68-.23-6.93.66-.83.33-1.66.66-2.53.85-2.03.44-3.71-.91-3.77-2.97-.02-.56.05-1.14.18-1.7,1.19-5.14,2.4-10.28,3.62-15.42.13-.55.31-1.11.57-1.62.89-1.74,2.67-2.35,4.34-1.35.85.51,1.59,1.27,2.24,2.03,1.83,2.14,3.97,3.75,6.8,4.3,2.5.48,3.75-.21,4.41-2.67.48-1.78.89-3.58,1.2-5.4.29-1.71-.26-2.68-1.83-3.33-2.38-.98-4.81-1.15-7.26-.23-.95.36-1.89.77-2.87,1.05-.72.2-1.5.35-2.25.3-1.65-.1-2.71-1.2-2.75-2.84-.02-.82.1-1.65.28-2.45,1.08-4.71,2.19-9.42,3.31-14.12.19-.8.42-1.61.78-2.35.84-1.69,2.52-2.25,4.17-1.34.76.42,1.49,1.02,2.04,1.69,1.99,2.43,4.61,3.8,7.57,4.54,4.87,1.23,9.76,2.41,14.66,3.51,2.29.52,4.64.75,6.94,1.24,2.18.46,4.14-.1,6.12-.89.93-.37,1.92-.74,2.9-.82,1.63-.13,2.67.8,2.84,2.43.08.81.02,1.67-.16,2.46-1.18,5.14-2.41,10.28-3.65,15.41-.18.73-.44,1.48-.82,2.12-1.01,1.73-2.79,2.06-4.36.81-.64-.51-1.18-1.16-1.69-1.8-1.31-1.63-2.91-2.85-4.89-3.52-1.75-.59-3.5-1.16-5.27-1.67-.6-.17-1.26-.17-1.89-.22-1.32-.11-2.31.5-2.66,1.72-.65,2.25-1.23,4.54-1.63,6.85-.27,1.53.53,2.63,2.25,3.06,2.45.61,4.97.97,7.46,1.44Z"/>
  <path class="cls-1" d="M509.52,278.85c0,4.33.06,8.67-.02,13-.04,2.17-.64,4.25-1.42,6.3-3.25,8.54-15.57,9.89-20.79,2.44-.59-.83-1.1-1.72-1.69-2.55-.89-1.24-1.71-1.38-2.57-.16-3.03,4.27-7.39,6.71-11.87,9.07-1.73.91-3.29,2.16-4.93,3.25-.63.42-1.22.94-1.91,1.24-1.57.69-3.16-.05-3.62-1.67-.22-.79-.36-1.63-.35-2.44.04-4.39.15-8.79.23-13.18.01-.64,0-1.28.08-1.91.33-2.36,2.01-3.72,4.31-3.19,4.41,1,8.14-.56,11.74-2.76.53-.33,1.02-.78,1.43-1.25,1.13-1.31.78-2.55-.87-3.06-2.02-.62-4.07-.38-6,.3-1.48.52-2.85,1.37-4.25,2.12-.78.42-1.47,1.03-2.28,1.38-1.62.69-3.09.08-3.7-1.58-.3-.81-.4-1.74-.4-2.61.02-2.48.18-4.97.19-7.45.01-2.68-.13-5.35-.12-8.03,0-.88.12-1.79.39-2.62.59-1.83,2.21-2.53,3.95-1.71.74.35,1.42.85,2.05,1.38,1.83,1.55,3.98,2.27,6.31,2.43,3.05.2,6.1.37,9.15.42,3.82.07,7.65,0,11.47.02,3.46.01,6.7-.64,9.53-2.78.5-.38,1.09-.67,1.68-.89,2.25-.84,4.19.35,4.34,2.74.12,1.91.03,3.82.04,5.74,0,2.68,0,5.35,0,8.03-.04,0-.08,0-.11,0ZM494.86,281.88v.11c-1.08,0-2.16-.01-3.24,0-.25,0-.5.09-.74.17-2.04.66-2.47,2.42-1.01,3.98.83.88,1.9,1.28,3.04,1.44,2.59.38,4.98-.09,6.76-2.16,1.3-1.5.74-3-1.2-3.34-1.18-.21-2.4-.15-3.61-.21Z"/>
  <path class="cls-1" d="M359.49,121.42c-3.52-.03-6.81-1.03-10.03-2.23-6.62-2.46-13.22-4.99-19.81-7.52-.77-.29-1.54-.65-2.19-1.13-1.5-1.11-1.64-2.95-.34-4.32.48-.5,1.04-.96,1.64-1.29,2.34-1.28,3.96-3.19,4.96-5.62,1.8-4.35,3.57-8.71,5.29-13.1.95-2.43,1.78-4.91,2.61-7.38.89-2.66,1.04-5.34.27-8.08-.25-.9-.31-1.89-.24-2.83.11-1.55,1.23-2.58,2.78-2.55.87.01,1.79.16,2.6.47,7.09,2.64,14.18,5.31,21.25,8.02,2.46.94,4.66,2.31,6.56,4.18,6,5.87,3.51,14.41-2.58,17.82-.67.37-1.38.67-2.02,1.07-.76.48-.96,1.18-.49,1.98.42.71.89,1.4,1.34,2.09,5.17,8.01-.45,18.6-7.99,19.99-1.18.22-2.39.29-3.59.43ZM356.68,102.42c.06-1.87-.45-3.54-1.8-4.87-1.24-1.23-2.59-1.16-3.26.37-1.2,2.73-2.32,5.52-3.12,8.38-.67,2.4,1.26,4.08,3.7,3.43.7-.19,1.41-.62,1.94-1.13,1.75-1.67,2.45-3.81,2.54-6.18ZM362.59,83.71c-.36-.85-.58-1.81-1.12-2.53-1.3-1.75-2.88-1.55-3.81.44-.62,1.32-1,2.75-1.59,4.09-.73,1.68.39,3.32,2.51,3.11,1.02-.1,1.84-.53,2.45-1.31.85-1.07,1.44-2.26,1.56-3.79Z"/>
  <path class="cls-1" d="M163.24,115.28c-.04.28-.1.6-.11.91-.04,1.47.42,1.97,1.89,1.99,1.33.01,2.66-.1,3.99-.04,6.76.29,10.66,6.11,11.82,10.38.79,2.92.27,5.67-.97,8.34-1.62,3.5-4.26,6.19-7.11,8.65-5.35,4.62-10.78,9.14-16.19,13.69-.58.49-1.18.99-1.84,1.36-2.2,1.25-4.26.25-4.69-2.25-.09-.5-.12-1.02-.11-1.52.06-2.54-.81-4.77-2.34-6.72-2.82-3.62-5.68-7.2-8.6-10.73-1.82-2.21-3.75-4.33-5.68-6.45-1.84-2.03-4.1-3.39-6.79-4.03-.79-.19-1.6-.49-2.28-.93-1.85-1.19-2.08-3.26-.61-4.91.51-.57,1.08-1.09,1.66-1.58,5.24-4.45,10.49-8.89,15.74-13.33,2.75-2.33,5.73-4.15,9.36-4.89,4.5-.91,9.05,1.67,11.07,5.11,1.26,2.15,1.82,4.46,1.79,6.97ZM165.77,137.53c-.16-.61-.24-1.25-.49-1.82-.91-2.03-2.34-3.6-4.32-4.67-1.35-.73-2.78-.87-4.25-.64-2.14.34-2.82,1.82-1.52,3.52,1.5,1.97,3.16,3.81,4.77,5.7.29.34.61.65.95.93,1.27,1.03,2.61.95,3.73-.23.73-.77,1.11-1.69,1.14-2.79ZM145.6,116.61c-.87.1-1.86.33-2.41,1.34-.51.94-.04,1.73.53,2.43,1,1.22,1.98,2.48,3.1,3.58,1.11,1.08,2.41.92,3.23-.33.36-.56.64-1.27.67-1.93.13-2.42-2.56-5.12-5.12-5.09Z"/>
  <path class="cls-1" d="M397.62,478.26c-1.45-.43-2.95-.76-4.36-1.3-6.82-2.65-13.62-5.36-20.44-8.04-1.01-.4-2.01-.82-3.06-1.08-.49-.12-1.29-.08-1.55.23-.26.31-.18,1.11.03,1.57,1.35,2.91,3.21,5.49,5.33,7.88,1.46,1.64,3.19,2.91,5.16,3.88.68.33,1.37.72,1.93,1.22,1.56,1.37,1.55,3.26,0,4.63-.57.5-1.25.88-1.92,1.23-2.76,1.46-5.52,2.9-8.29,4.34-.62.32-1.28.57-1.9.88-2.03,1-4.49-.72-4.18-3.49.06-.57.15-1.14.31-1.69.66-2.2.28-4.31-.59-6.34-.96-2.22-2-4.41-3.11-6.56-2.15-4.19-4.36-8.35-6.57-12.52-1.56-2.94-3.65-5.37-6.76-6.76-.29-.13-.55-.31-.81-.5-2.65-1.87-2.59-4.52.25-6.06,2.74-1.48,5.58-2.8,8.41-4.11,1.9-.87,3.84-.67,5.75.08,3.55,1.41,7.11,2.8,10.66,4.18,2.97,1.16,5.92,2.33,8.91,3.43.78.29,1.76.91,2.48.04.71-.86-.05-1.7-.48-2.43-2.08-3.59-4.63-6.7-8.58-8.42-.79-.34-1.52-.94-2.12-1.58-1.13-1.2-1.02-2.95.18-4.1.41-.39.89-.73,1.39-.99,3.04-1.61,6.08-3.21,9.14-4.77.56-.28,1.18-.51,1.8-.59,1.73-.23,2.83.45,3.32,2.15.22.77.36,1.67.19,2.44-.54,2.51,0,4.85,1.05,7.05,1.8,3.8,3.66,7.57,5.67,11.26,2.31,4.25,4.81,8.4,7.22,12.6.6,1.05,1.24,2.09,1.7,3.2,1.79,4.29-1.46,8.96-6.18,9.06Z"/>
  <path class="cls-1" d="M420.93,457.46c-8.93-.23-15.83-3.93-21.2-10.59-3.43-4.26-5.61-9.07-6.03-14.59-.48-6.33,1.65-11.75,5.77-16.47,2.03-2.32,4.36-4.29,7.02-5.84,1.73-1.01,3.23-2.26,4.37-3.92,2.04-2.98,4.62-3,7.23-1.11,2.68,1.94,5.34,3.91,7.99,5.91.55.42,1.07.93,1.45,1.5,1.26,1.86.32,3.98-1.91,4.27-.8.1-1.65,0-2.46-.13-2.07-.34-4.12-.81-6.19-1.11-2.46-.35-4.83.12-7,1.32-2.87,1.58-4.78,5.11-3.56,9.6.84,3.1,2.55,5.68,4.76,7.95,3.75,3.84,8.15,6.48,13.55,7.23,1.8.25,3.57.11,5.23-.65,1.79-.82,2.27-2.28,1.18-3.92-1.93-2.88-4.44-4.9-8.15-4.84-.76.01-1.54-.01-2.29-.15-2.31-.43-3.31-2.65-2.09-4.65.43-.69,1-1.32,1.6-1.88,2.92-2.75,5.86-5.47,8.82-8.19.8-.73,1.62-1.45,2.52-2.04,1.68-1.1,3.13-.82,4.35.77.42.55.8,1.17,1.05,1.81,1.74,4.39,4.81,7.76,8.21,10.89,1.12,1.04,2.28,2.03,3.38,3.1.5.48.95,1.04,1.3,1.64.94,1.58.65,3.14-.84,4.21-.76.55-1.66.94-2.55,1.27-1.63.6-2.86,1.65-3.76,3.09-.94,1.51-1.79,3.09-2.77,4.57-3.63,5.48-8.46,9.3-15.05,10.53-1.37.25-2.78.3-3.9.41Z"/>
  <path class="cls-1" d="M248.03,59.46c1.37.03,2.38.61,3.18,1.61.28.35.56.71.74,1.11,1.53,3.43,3.04,6.87,4.56,10.31.05.12.08.24.1.37.19,1.34.45,2.76-.94,3.63-1.28.8-2.57.51-3.75-.33-.73-.52-1.41-1.1-2.1-1.66-1.9-1.53-3.96-2.75-6.27-3.59-1.97-.72-4-.79-6.03-.58-.73.08-1.47.42-2.14.76-.97.49-1.62,1.31-1.57,2.43.04,1.13.77,1.92,1.8,2.25,1.45.46,2.93.83,4.43,1.12,3.62.69,7.29,1.16,10.87,2,3.46.81,6.6,2.44,8.96,5.18,6.72,7.8,4.45,19.48-4.72,24.49-3,1.64-6.22,2.62-9.59,3.05-2.58.33-5.2.45-7.77.84-1.81.27-3.59.82-5.37,1.27-2.09.52-3.45-.02-4.48-1.89-.34-.61-.58-1.28-.82-1.93-.98-2.62-1.98-5.24-2.9-7.88-.37-1.07-.69-2.21-.73-3.33-.07-1.99,1.4-3.09,3.29-2.52.9.27,1.71.82,2.53,1.31,1.59.93,3.12,1.98,4.75,2.84,2.23,1.16,4.65,1.82,7.15,1.83,1.43,0,2.9-.29,4.3-.66,1.1-.3,1.85-1.18,1.88-2.4.03-1.14-.67-1.96-1.63-2.39-1.09-.48-2.26-.87-3.44-1.09-3-.56-6.02-.99-9.02-1.52-.93-.17-1.85-.47-2.75-.76-5.61-1.84-9.09-5.62-10.39-11.41-1.71-7.62,1.17-14.38,7.81-17.75,1.85-.94,3.9-1.57,5.92-2.07,1.59-.4,3.27-.5,4.92-.54,2.39-.05,4.68-.36,6.86-1.39.73-.34,1.57-.46,2.35-.69Z"/>
  <path class="cls-1" d="M207.62,76.8c-.28,2.01.1,4.13,1.02,6.13,1.66,3.58,3.34,7.15,5.09,10.69,1.94,3.94,4,7.83,4.81,12.22,1.07,5.77-.35,10.72-4.8,14.69-3.58,3.19-7.72,5.45-12.33,6.66-7.26,1.91-13.38-.12-18.03-6.02-1.68-2.13-3.02-4.56-4.31-6.96-2.11-3.93-4.06-7.94-6.06-11.92-1.38-2.76-3.32-4.94-6.1-6.36-.83-.42-1.6-1.06-2.21-1.77-1-1.15-.92-2.73.2-3.78.68-.64,1.52-1.16,2.36-1.58,4.27-2.13,8.57-4.21,12.86-6.29.74-.36,1.5-.73,2.3-.92,1.96-.45,3.6.69,3.82,2.7.12,1.07.07,2.17-.06,3.24-.3,2.41.06,4.73,1.04,6.9,2.05,4.52,4.18,9.01,6.4,13.45.64,1.29,1.58,2.49,2.61,3.51,3.74,3.73,8.05,2.12,10.32-.33,1.24-1.34,1.75-2.95,1.35-4.76-.25-1.11-.54-2.23-.94-3.3-1.73-4.53-3.82-8.89-6.28-13.07-1.81-3.07-4.02-5.73-7.33-7.31-.56-.27-1.09-.68-1.53-1.12-1.49-1.5-1.29-3.5.43-4.76.1-.08.2-.16.32-.22,3.54-1.75,7.03-3.6,10.63-5.2,2.56-1.14,4.54.36,4.56,3.2,0,.7-.07,1.4-.11,2.3Z"/>
  <path class="cls-1" d="M96.65,159.8c.68.15,1.38.25,2.04.46,2.79.88,5.58,1.77,8.35,2.7.72.24,1.44.55,2.06.97,2.02,1.37,1.84,3.86-.39,4.85-.85.38-1.83.48-2.77.61-1.32.18-2.66.24-3.98.41-3.53.45-5.65,2.7-7.09,5.73-.61,1.28-.42,2.6.71,3.46,1.36,1.03,2.82,2,4.37,2.66,1.79.76,2.88-.25,2.54-2.17-.14-.8-.55-1.55-.84-2.32-.47-1.23-.81-2.54.19-3.59,1.07-1.13,2.52-.89,3.74-.29,2.91,1.44,5.74,3.02,8.6,4.56.95.51,1.9,1.04,2.82,1.61.53.34,1.05.73,1.48,1.19,1.39,1.49.92,3.45-1.03,4.06-.89.28-1.87.3-2.82.39-.7.07-1.42-.05-2.1.09-1.58.32-2.12,1.79-.93,2.8,2.25,1.92,4.82,3.36,7.81,3.74,1.71.21,2.9-.84,3.7-2.25,1.47-2.6,2.02-5.37.93-8.25-.56-1.48-1.33-2.88-1.94-4.35-.36-.87-.78-1.78-.87-2.69-.18-1.84,1.31-3.03,3.08-2.5.9.27,1.8.68,2.56,1.23,2.8,2,5.57,4.04,8.3,6.14,2.05,1.58,2.38,3.04,1.12,5.34-1.89,3.47-3.95,6.84-5.86,10.3-2.93,5.29-5.78,10.63-8.69,15.94-.49.89-1.01,1.79-1.67,2.55-1.48,1.71-3.57,1.54-4.82-.34-.35-.53-.64-1.11-.86-1.7-.86-2.31-2.37-4.08-4.43-5.35-3.86-2.36-7.74-4.67-11.66-6.92-2.6-1.48-5.27-2.84-7.94-4.19-2.32-1.17-4.77-1.74-7.39-1.43-.82.1-1.66.09-2.48,0-2.3-.23-3.46-2.04-2.7-4.24.27-.78.68-1.51,1.08-2.23,4.2-7.58,8.4-15.15,12.62-22.72.53-.94,1.13-1.85,1.79-2.7.83-1.08,1.97-1.59,3.36-1.55Z"/>
  <path class="cls-1" d="M462.44,256.67c-2.09.02-3.1-.64-3.74-2.81-.77-2.62-1.35-5.3-2.04-7.95-1.88-7.14-3.78-14.27-5.67-21.4-.21-.8-.45-1.6-.58-2.41-.36-2.31,1.09-3.88,3.4-3.63.74.08,1.5.33,2.17.66,2.28,1.13,4.71,1.31,7.09.75,6.99-1.65,13.95-3.43,20.9-5.25,2.82-.74,5.28-2.16,7.15-4.51.58-.73,1.34-1.39,2.14-1.87,1.64-.97,3.33-.47,4.2,1.22.43.84.71,1.77.95,2.69,2.2,8.37,4.38,16.74,6.55,25.12.21.8.36,1.61.54,2.42.45,1.98-.27,3.52-1.9,4.6-1,.66-2.12,1.16-3.2,1.7-2,.99-3.99,2-6.03,2.89-.85.37-1.83.6-2.75.62-1.98.03-3.14-1.65-2.45-3.52.28-.76.78-1.46,1.29-2.1.91-1.14,1.95-2.19,2.87-3.33,2.09-2.59,2.46-5.5,1.47-8.63-.66-2.09-1.92-2.98-4.01-2.62-1.43.25-2.87.62-4.21,1.17-1.7.7-1.8,2.14-.3,3.22.56.4,1.25.63,1.87.95.62.32,1.29.59,1.83,1.01,1.29,1.02,1.33,2.72.06,3.79-.57.48-1.27.91-1.98,1.11-4.29,1.2-8.59,2.35-12.91,3.44-1.25.32-2.44-.01-3.22-1.14-.56-.81-.29-2.34.58-3.37.57-.68,1.25-1.27,1.85-1.93.38-.42.8-.85,1.04-1.35.55-1.12.06-2.03-1.14-2.3-.12-.03-.26-.06-.38-.04-2.87.32-5.67.93-8.04,2.68-1.37,1.01-1.72,2.48-1.31,4.11.77,3.06,2.43,5.47,5.3,6.88,1.31.64,2.72,1.06,4.07,1.63.87.37,1.8.71,2.54,1.28,1.34,1.04,1.35,2.79-.06,3.73-.97.65-2.18,1.08-3.34,1.26-3.26.51-6.55.85-9.84,1.24-.25.03-.51,0-.76,0Z"/>
  <path class="cls-1" d="M414.39,116.2c.09-2.72-.07-5.42-2.01-7.55-.93-1.02-2.08-1.87-3.24-2.63-1.13-.74-2.44-.62-3.33.37-1.18,1.31-2.31,2.73-3.16,4.27-.87,1.59.05,2.75,1.89,2.62.62-.05,1.23-.3,1.85-.43.74-.16,1.49-.39,2.24-.41,1.93-.03,2.96,1.27,2.45,3.13-.21.79-.58,1.57-1.03,2.25-2.2,3.28-4.44,6.53-6.69,9.78-.32.47-.75.87-1.15,1.28-.73.75-1.61,1.05-2.61.71-1.08-.37-1.62-1.24-1.68-2.33-.06-1.08.04-2.16.05-3.24,0-.57.05-1.16-.08-1.71-.27-1.21-1.39-1.76-2.3-.95-2.46,2.2-4.38,4.81-4.76,8.22-.14,1.28.61,2.3,1.62,3.09,2.65,2.06,5.65,2.56,8.85,1.81,1.35-.32,2.64-.92,3.96-1.37.78-.26,1.57-.59,2.37-.66,2.13-.19,3.42,1.47,2.63,3.44-.4.98-1.04,1.91-1.74,2.72-2.14,2.45-4.34,4.84-6.55,7.22-1.76,1.89-3.23,2.12-5.4.66-3.12-2.1-6.13-4.36-9.22-6.48-5.09-3.5-10.23-6.93-15.33-10.42-.94-.64-1.89-1.33-2.65-2.17-1.43-1.58-1.12-3.4.71-4.5.64-.39,1.39-.63,2.11-.86,2.27-.69,4.1-1.97,5.58-3.83,4.68-5.89,8.91-12.1,12.93-18.46,1.5-2.37,2.21-4.97,2.18-7.79,0-.93.11-1.93.46-2.78.7-1.69,2.24-2.25,3.93-1.53.75.32,1.47.76,2.15,1.23,7.4,5.09,14.79,10.19,22.17,15.31,3.43,2.38,3.89,3.96,2.28,7.77-.99,2.35-1.99,4.69-3.04,7.01-.36.81-.81,1.59-1.33,2.31-.69.96-1.67,1.35-2.85,1.13-1.22-.24-1.86-1.12-2.1-2.22-.21-.92-.18-1.89-.22-2.84-.02-.38.04-.76.07-1.14Z"/>
  <path class="cls-1" d="M457.94,395.01c-.83,0-1.67-.12-2.47.03-1.51.28-1.9,1.47-.96,2.72.15.2.32.42.53.55,1.83,1.15,3.59,2.45,5.53,3.36,2.31,1.08,3.99.42,5.4-1.72,1.75-2.64,2.28-5.5,1.34-8.55-.43-1.39-1.06-2.73-1.54-4.11-.25-.71-.52-1.46-.56-2.2-.14-2.08,1.36-3.26,3.33-2.61.77.25,1.52.7,2.14,1.23,2.8,2.4,5.59,4.83,8.31,7.33,1.51,1.39,1.72,2.88.64,4.63-1.41,2.27-2.99,4.44-4.46,6.67-4.04,6.11-8.06,12.24-12.11,18.35-.63.95-1.28,1.92-2.08,2.73-1.67,1.7-3.76,1.35-4.87-.76-.33-.61-.56-1.28-.78-1.95-.64-2-1.69-3.74-3.4-4.97-4.71-3.38-9.44-6.72-14.2-10.03-1.57-1.09-3.22-2.06-4.86-3.04-2.29-1.37-4.74-2.15-7.45-1.99-.76.04-1.54,0-2.28-.14-2.37-.48-3.35-2.43-2.34-4.62.4-.86.94-1.66,1.46-2.46,4.69-7.06,9.39-14.11,14.09-21.16.42-.64.85-1.27,1.32-1.87,1.45-1.84,3.08-2.51,5.22-1.72,3.4,1.27,6.73,2.71,10.05,4.18,1.33.59,2.36,1.61,2.2,3.25-.13,1.37-1.49,2.45-3.37,2.6-1.52.12-3.06.06-4.59.04-3.69-.05-6.29,1.75-8.13,4.8-1.05,1.74-.89,3.12.65,4.43,1.11.94,2.34,1.78,3.63,2.44,1.81.93,3.07,0,2.77-2.01-.15-1-.5-1.97-.84-2.93-.41-1.15-.19-2.16.67-2.97.9-.85,1.98-.76,3.04-.3.7.3,1.41.62,2.04,1.04,3.19,2.1,6.38,4.22,9.53,6.38.62.42,1.21.97,1.61,1.59,1,1.57.26,3.29-1.56,3.66-.86.18-1.76.11-2.65.15,0-.01,0-.02,0-.04Z"/>
  <path class="cls-1" d="M340.18,483.69c.07,1.23-.15,2.35-1.4,2.89-1.19.52-2.27.06-3.16-.76-.7-.64-1.26-1.44-1.97-2.08-.74-.67-1.51-1.55-2.66-.99-1.14.55-1.08,1.69-.85,2.69.45,1.92.87,3.86,1.6,5.68,1,2.5,2.78,3.26,5.39,2.58,3.07-.8,5.35-2.63,6.75-5.47.62-1.25,1.02-2.61,1.6-3.88.37-.8.77-1.63,1.36-2.27,1.04-1.15,2.78-1.02,3.6.29.52.83.89,1.85,1.03,2.83.35,2.52.53,5.06.78,7.59.07.7.13,1.4.24,2.09.5,3.21-.3,4.56-3.41,5.3-4.27,1.02-8.57,1.87-12.85,2.87-5.7,1.33-11.38,2.75-17.07,4.1-.73.17-1.51.26-2.26.23-2.01-.07-3.14-1.49-2.78-3.47.14-.74.41-1.48.76-2.15,1.16-2.18,1.49-4.51.98-6.87-1.53-7.15-3.15-14.28-4.79-21.41-.64-2.8-2.04-5.19-4.24-7.1-.71-.62-1.37-1.37-1.82-2.18-.93-1.66-.39-3.32,1.33-4.17.84-.42,1.79-.65,2.72-.86,8.79-2.06,17.59-4.1,26.39-6.13.62-.14,1.25-.23,1.88-.28,1.85-.15,3.3.64,4.09,2.25,1.62,3.32,3.15,6.68,4.58,10.08.71,1.68.23,3.27-.86,3.99-1.12.75-2.62.57-4.05-.62-1.22-1.02-2.35-2.15-3.52-3.23-2.66-2.45-5.77-2.78-9.1-1.85-1.89.53-2.67,1.58-2.46,3.54.16,1.56.51,3.15,1.07,4.61.65,1.71,2.13,1.79,3.21.31.33-.46.56-1,.81-1.51.23-.45.4-.94.67-1.37.59-.95,1.32-1.75,2.58-1.67,1.16.07,1.85.81,2.27,1.79.38.87.73,1.77.96,2.69.82,3.34,1.6,6.68,2.37,10.03.14.62.15,1.26.23,1.9Z"/>
  <path class="cls-1" d="M203.23,441.83c1.38.2,2.79.31,4.14.63,2.46.59,3.74,2.1,3.71,4.64-.03,2.86-.26,5.72-.47,8.58-.2,2.79-.47,5.58-.7,8.37-.46,5.51-.97,11.02-1.35,16.54-.25,3.61-.63,7.24.5,10.81.22.71.21,1.52.18,2.27-.08,1.91-1.61,3.18-3.49,2.82-1.05-.2-2.11-.53-3.07-1-5-2.39-9.97-4.82-14.94-7.27-.68-.33-1.35-.74-1.91-1.25-1.79-1.62-1.56-3.68.53-4.86.72-.4,1.53-.63,2.26-1.01.78-.41,1.62-.81,2.25-1.4,1.27-1.2,1.2-2.86-.32-3.7-2.44-1.36-4.97-2.59-7.56-3.63-1.88-.75-3.59.57-3.7,2.64-.05.87.17,1.76.26,2.64.09.82.27,1.64.24,2.46-.06,1.52-1.08,2.49-2.61,2.39-.86-.05-1.76-.31-2.55-.67-2.94-1.37-5.84-2.83-8.76-4.26-.34-.17-.68-.36-.98-.59-1.82-1.36-1.84-3.41-.05-4.81.35-.27.74-.51,1.15-.68,3.04-1.28,5.61-3.23,7.98-5.49,5.8-5.55,11.63-11.07,17.42-16.64,1.01-.97,1.98-2.01,2.76-3.16,2.19-3.23,5.26-4.47,9.06-4.37ZM194.52,462.32s-.1-.02-.14-.02c0-.51.06-1.02-.01-1.52-.16-1.16-.87-1.54-1.87-.94-.75.45-1.44,1.04-2.07,1.65-.81.78-1.84,1.55-1.51,2.87.34,1.36,1.67,1.65,2.78,2.04,1.08.39,1.87,0,2.24-1.12.31-.95.4-1.97.59-2.96Z"/>
  <path class="cls-1" d="M424.46,166.5c1.06-.17,2.17-.2,3.17-.53,1.73-.57,2.34-2.19,1.24-3.65-1.64-2.18-3.41-4.3-5.32-6.24-1.51-1.53-3.6-1.03-4.59.92-.39.78-.55,1.68-.79,2.54-.17.61-.23,1.26-.47,1.84-.75,1.79-2.41,2.34-4.04,1.33-.58-.36-1.12-.85-1.57-1.38-2.1-2.48-4.19-4.97-6.23-7.49-.47-.58-.91-1.27-1.08-1.97-.43-1.75.42-3.02,2.17-3.4.87-.19,1.77-.34,2.65-.31,2.27.08,4.44-.36,6.56-1.09,7.59-2.61,15.18-5.19,22.74-7.88,2.15-.77,4.25-1.75,6.26-2.83,2.48-1.34,4.96-1.59,7.51-.48,1.74.76,3.48,1.6,5.04,2.67,2.37,1.62,2.92,3.78,1.62,6.36-1.83,3.64-3.82,7.2-5.77,10.78-3.78,6.94-7.57,13.87-11.38,20.78-1.31,2.37-2.24,4.84-2.65,7.52-.1.68-.29,1.38-.58,2.01-.91,1.92-2.89,2.51-4.62,1.29-.93-.65-1.75-1.49-2.49-2.36-3.46-4.08-6.87-8.2-10.29-12.32-.52-.63-1.04-1.31-1.4-2.04-1-2.09-.07-3.85,2.21-4.22.68-.11,1.38-.02,2.08-.02,0,.05.01.11.02.16ZM437.25,148.25c-1.45.59-2.96,1.07-4.33,1.82-1.12.61-1.07,1.65-.12,2.92,1.24,1.67,2.36,2.06,3.44,1.22.1-.08.21-.15.27-.26.72-1.25,1.55-2.46,2.11-3.79.44-1.04-.17-1.7-1.38-1.92Z"/>
  <path class="cls-1" d="M90.82,396.94c.06-6.85,2.38-12.11,6.46-16.61,4.89-5.38,10.92-8.77,18.15-9.7,6.82-.88,12.87,1,17.94,5.74,3.08,2.87,5.35,6.31,6.9,10.22.78,1.99,1.86,3.73,3.38,5.26,2.29,2.31,2.32,4.49.04,6.85-2.48,2.57-5.06,5.04-7.65,7.49-1.46,1.38-2.79,1.6-3.96.87-1.21-.75-1.65-2.24-1.1-4.11.3-1.04.8-2.02,1.11-3.05.57-1.88,1.15-3.77,1.58-5.68.43-1.92.07-3.81-.71-5.59-1.64-3.76-5.44-5.42-9.73-4.27-2.95.79-5.51,2.33-7.8,4.3-3.1,2.66-5.62,5.75-6.64,9.82-1.74,6.93,2.69,13.41,9.41,14.13.82.09,1.65.2,2.45.38,2.04.46,2.59,2.17,1.13,3.69-1.8,1.88-4.16,2.67-6.64,3.09-6.3,1.07-11.53-1.28-16.03-5.43-4.02-3.71-6.73-8.29-7.81-13.73-.28-1.43-.37-2.9-.46-3.67Z"/>
  <path class="cls-1" d="M450.71,207.17c-3.49.2-6.58-.71-9.2-3.06-.56-.51-1.1-1.07-1.55-1.68-1.45-1.94-1.63-4.03-.3-6.05,1.08-1.64,2.33-3.19,3.63-4.66,6.75-7.63,13.54-15.23,20.32-22.84,1.71-1.92,3.12-4.02,4.04-6.43.27-.71.62-1.41,1.07-2.02,1.31-1.8,3.38-1.97,4.91-.36.69.73,1.26,1.61,1.73,2.5,2.61,4.96,5.19,9.93,7.75,14.91.35.67.64,1.4.79,2.14.49,2.34-.85,3.88-3.23,3.77-.76-.04-1.54-.1-2.27-.29-1.75-.46-3.34-.03-4.69,1.02-3.72,2.91-7.11,6.19-10.15,9.8-.35.42-.63,1.24-.46,1.68.29.7,1.13.69,1.86.52,4.21-.97,8.43-1.91,12.63-2.93,2.4-.58,4.04-2.05,4.83-4.44.22-.66.54-1.31.95-1.86,1.06-1.43,2.66-1.6,3.95-.36.63.61,1.16,1.36,1.57,2.14,1.56,2.92,3.06,5.87,4.55,8.82.26.51.46,1.06.6,1.61.42,1.62-.59,3.19-2.25,3.28-1.25.06-2.53-.13-3.78-.35-2.81-.5-5.57-.1-8.33.39-7.45,1.32-14.89,2.66-22.35,3.94-2.19.37-4.41.55-6.62.81Z"/>
  <path class="cls-1" d="M298.19,57.68c1.91,0,3.82,0,5.73,0,1.35,0,2.55.32,3.23,1.61.71,1.34.37,2.64-.49,3.75-.85,1.1-1.86,2.09-2.8,3.12-2.17,2.37-3.89,5.03-5.38,7.86-1.51,2.87-3.01,5.75-4.52,8.63-1.73,3.29-1.93,6.76-1.56,10.4.32,3.11,1.23,5.82,3.55,7.99.4.38.68.92.92,1.44.66,1.44.21,2.9-1.24,3.52-.91.39-1.96.61-2.94.61-3.12,0-6.23-.2-9.35-.21-2.35,0-4.71.19-7.06.22-.81.01-1.65-.1-2.44-.31-2.28-.59-3.02-2.6-1.73-4.6.31-.48.69-.92,1.1-1.32,1.91-1.89,2.8-4.23,2.94-6.86.11-2.1.33-4.23.05-6.29-.24-1.79-.85-3.63-1.74-5.2-2.66-4.71-5.49-9.33-8.38-13.9-.87-1.38-2.11-2.54-3.22-3.76-.83-.91-1.57-1.84-1.63-3.14-.09-1.73.73-3.05,2.41-3.4,1.36-.28,2.77-.38,4.16-.38,4.33,0,8.65.07,12.98.13.95.01,1.92,0,2.85.17,2.32.4,3.36,2.43,2.4,4.58-.29.64-.66,1.23-1.02,1.83-.91,1.52-1.12,3.11-.47,4.77.53,1.36,1.02,2.76,1.76,4,.95,1.6,2.17,1.58,3-.07.77-1.52,1.37-3.15,1.8-4.8.38-1.44.1-2.91-.75-4.22-.35-.53-.69-1.08-.97-1.65-1.12-2.26-.02-4.32,2.51-4.48,2.09-.13,4.2-.03,6.31-.03,0,0,0-.01,0-.02Z"/>
  <path class="cls-1" d="M57.88,292.83c-.2-5.92-.4-11.84-.6-17.76-.01-.38,0-.76,0-1.15,0-3.94.94-5.17,4.79-5.81,3.38-.56,6.79-1,10.2-1.31,2.02-.19,3.2.55,3.64,1.8.46,1.31-.1,2.73-1.72,3.91-1.5,1.08-3.11,1.99-4.64,3.03-.68.46-1.38.95-1.89,1.58-.92,1.12-.53,2.43.83,2.9.77.26,1.62.41,2.43.4,6.05-.09,12.1-.2,18.15-.4,1.96-.06,3.92-.37,5.87-.64,1.75-.24,3.26-1.01,4.53-2.26.59-.58,1.2-1.15,1.86-1.65,2.03-1.52,4.22-.72,4.84,1.74.14.55.16,1.14.17,1.71.03.89,0,1.79.01,2.68.12,4.9.27,9.8.36,14.71.02.81-.06,1.68-.33,2.43-.62,1.75-2.18,2.35-3.84,1.52-.62-.31-1.19-.75-1.68-1.23-2.12-2.09-4.64-2.99-7.61-2.94-6.75.09-13.5.09-20.25.15-1.01.01-2.03.15-3.03.33-1.02.19-2.05.5-2.32,1.69-.25,1.13.56,1.81,1.34,2.34,1.16.78,2.41,1.42,3.62,2.13.88.52,1.78,1.01,2.59,1.61,1.48,1.09,2.06,2.5,1.54,3.78-.59,1.44-1.85,1.92-3.26,1.86-2.54-.12-5.07-.37-7.6-.58-1.08-.09-2.16-.16-3.23-.29-3.1-.37-4.42-1.67-4.59-4.81-.2-3.81-.27-7.64-.39-11.46.07,0,.14,0,.22,0Z"/>
  <path class="cls-1" d="M284.69,509.46c-4.71,0-9.43,0-14.14,0-.76,0-1.53,0-2.29-.08-2.52-.29-3.59-2.33-2.39-4.58.3-.56.67-1.09,1.08-1.57,1.48-1.78,2.19-3.86,2.34-6.14.16-2.35.34-4.7.33-7.06-.02-5.22-.13-10.45-.26-15.67-.06-2.54-.83-4.87-2.31-6.97-.61-.87-1.22-1.81-1.55-2.81-.61-1.87.21-3.27,2.07-3.82.66-.19,1.37-.29,2.06-.3,5.48-.06,10.95-.1,16.43-.12.7,0,1.42.01,2.09.16,2.24.5,3.18,2.54,2.07,4.55-.46.82-1.08,1.59-1.77,2.24-2.04,1.91-2.96,4.3-3.02,7-.11,4.59-.08,9.18-.09,13.76,0,2.17-.01,4.34.1,6.5.06,1.13.26,2.28.6,3.35.47,1.48,1.65,2.22,3.18,2.34,2.84.23,5.33-.63,7.21-2.77,1.08-1.23,1.89-2.7,2.8-4.07.53-.79.98-1.64,1.56-2.39.7-.92,1.64-1.43,2.84-1.09,1.13.32,1.65,1.25,1.78,2.27.17,1.32.2,2.67.11,4-.18,2.79-.47,5.58-.71,8.36-.02.19,0,.38-.02.57-.31,2.95-1.61,4.15-4.63,4.16-5.16.02-10.32,0-15.48,0,0,.06,0,.12,0,.18Z"/>
  <path class="cls-1" d="M244.74,496.81c2.92.08,5.02-1.03,6.83-2.75,1.01-.96,1.87-2.09,2.85-3.08.58-.58,1.22-1.15,1.93-1.52,1.56-.8,3.2.08,3.36,1.82.09,1,.07,2.07-.19,3.03-.96,3.43-1.99,6.84-3.09,10.23-.98,3-2.4,3.77-5.56,3.08-5.09-1.11-10.17-2.32-15.26-3.41-4.72-1.01-9.47-1.91-14.2-2.9-.8-.17-1.61-.42-2.33-.81-1.58-.87-1.98-2.55-.99-4.07.37-.58.87-1.11,1.42-1.53,2.23-1.7,3.6-3.94,4.25-6.62,1.21-5.01,2.4-10.02,3.49-15.05.6-2.79,1.04-5.62,1.42-8.45.26-1.93-.35-3.76-1.07-5.56-.39-.99-.73-2.06-.77-3.11-.07-1.7,1.15-2.9,2.86-2.89,1.13,0,2.27.24,3.38.47,4.61.95,9.2,1.94,13.8,2.93.99.21,2.01.4,2.93.81,2.03.89,2.54,2.99,1.16,4.72-.54.68-1.27,1.27-2.02,1.72-2.69,1.6-4.24,4-4.93,6.98-1.07,4.65-2.08,9.31-3.09,13.97-.44,2.05-.86,4.11-1.2,6.18-.64,3.85,1.05,5.8,4.96,5.83.13,0,.25,0,.05,0Z"/>
  <path class="cls-1" d="M475.02,331.4c5.58.05,11,4.02,11.09,11.01.09,7.15-5.77,11.53-12.44,9.62-6.23-1.78-9.71-8.28-7.64-14.27,1.38-4.01,4.75-6.39,9-6.36Z"/>
  <path class="cls-1" d="M100.93,339.54c.04,4.67-2.71,8.11-7.23,9.55-7.26,2.3-14.3-3.61-14.23-10.35.04-4.27,2.74-7.77,7.11-9.08,6.23-1.86,12.65,1.84,14.12,8.17.16.68.19,1.38.23,1.71Z"/>
  <path class="cls-1" d="M269.73,232.75c-.32,1.29-.46,2.74-1.04,3.98-.9,1.92-.44,3.37.84,4.88.93,1.11,1.67,2.4,2.37,3.67.32.59.45,1.34.47,2.02.04,1.33-.72,1.75-1.81,1.05-.42-.27-.81-.63-1.15-1-6.72-7.3-15.08-11.33-24.87-12.52-1.19-.15-2.4-.32-3.56-.64-1.1-.31-1.28-1.19-.31-1.76,1.13-.67,2.4-1.28,3.68-1.49,2.16-.35,3.42-1.41,4.46-3.36,2.31-4.35,6.1-6.36,11.06-5.95,4.08.34,7.88,3.52,9.15,7.65.33,1.09.47,2.23.73,3.47Z"/>
  <path class="cls-1" d="M196.94,190.49c2.02,0,3.91.51,5.61,1.6,3.05,1.96,5.24,4.64,6.36,8.1,1.03,3.15-.6,5.26-3.91,5.32-1.52.03-2.88-.41-4.19-1.11-.9-.48-1.77-1.03-2.71-1.4-1.29-.51-2.65-.66-3.73.47-1.06,1.12-1,2.47-.3,3.72.59,1.04,1.39,1.96,2.1,2.94.45.61.99,1.18,1.32,1.85.59,1.19.31,2.55-.56,3.34-.79.71-2.11.83-3.21.18-.65-.39-1.29-.86-1.76-1.44-3.19-3.83-5.06-8.25-5.25-13.24-.23-6.09,4.09-10.36,10.22-10.33Z"/>
</svg>