<?xml version="1.0" encoding="UTF-8" standalone="no"?>
<svg
   id="Calque_1"
   data-name="Calque 1"
   version="1.1"
   viewBox="0 0 450.32483 449.82181"
   sodipodi:docname="bbchallenge_logo_no_margins.svg"
   inkscape:version="1.3.2 (091e20e, 2023-11-25)"
   inkscape:export-filename="bbchallenge_logo_negative_ F5F0E6.png"
   inkscape:export-xdpi="100"
   inkscape:export-ydpi="100"
   width="450.32483"
   height="449.82181"
   xmlns:inkscape="http://www.inkscape.org/namespaces/inkscape"
   xmlns:sodipodi="http://sodipodi.sourceforge.net/DTD/sodipodi-0.dtd"
   xmlns="http://www.w3.org/2000/svg"
   xmlns:svg="http://www.w3.org/2000/svg">
  <sodipodi:namedview
     id="namedview53"
     pagecolor="#121826"
     bordercolor="#000000"
     borderopacity="0.25"
     inkscape:showpageshadow="2"
     inkscape:pageopacity="0.0"
     inkscape:pagecheckerboard="0"
     inkscape:deskcolor="#d1d1d1"
     inkscape:zoom="0.53096794"
     inkscape:cx="267.43611"
     inkscape:cy="403.03752"
     inkscape:window-width="1472"
     inkscape:window-height="823"
     inkscape:window-x="20"
     inkscape:window-y="131"
     inkscape:window-maximized="0"
     inkscape:current-layer="Calque_1"
     inkscape:export-bgcolor="#121826ff" />
  <defs
     id="defs1">
    <style
       id="style1">
      .cls-1 {
        fill: #fff;
        stroke-width: 0px;
      }
    </style>
  </defs>
  <path
     class="cls-1"
     d="m 203.38545,248.08515 c 0.47,-0.65 0.95,-1.28 1.4,-1.94 0.56,-0.82 1.68,-1.64 1.04,-2.67 -0.71,-1.16 -1.98,-0.49 -2.97,-0.18 -4.73,1.49 -9.55,2.41 -14.53,2.18 -1.23,-0.06 -2.57,0.08 -3.64,-1.3 0.7,-0.6 1.37,-1.15 2.02,-1.73 1.82,-1.6 3.68,-3.16 5.42,-4.84 0.77,-0.74 1.59,-1.8 0.95,-2.9 -0.69,-1.17 -1.94,-0.63 -2.97,-0.38 -3.62,0.88 -7.28,1.49 -11,1.51 -6.55,0.03 -12.81,-1.39 -18.75,-4.21 -7.6,-3.61 -13.85,-8.91 -19.31,-15.24 -0.87,-1.01 -1.65,-2.14 -3.01,-2.6 -1.12,0.5 -0.93,1.41 -0.74,2.3 0.63,3.04 1.89,5.84 3.28,8.58 3.27,6.46 7.73,12.05 12.72,17.25 1.15,1.2 2.37,2.34 3.52,3.55 0.45,0.48 0.79,1.06 1.29,1.74 -1.39,0.34 -2.33,-0.16 -3.22,-0.57 -3.01,-1.41 -5.98,-2.91 -8.99,-4.34 -0.9,-0.43 -1.83,-0.98 -2.89,-0.42 -0.49,1.02 0.04,1.81 0.64,2.45 1.59,1.66 3.16,3.36 4.92,4.84 2.69,2.26 5.54,4.34 8.3,6.53 0.61,0.48 1.46,0.86 1.39,1.95 -0.88,0.53 -1.79,0.35 -2.61,0.1 -2.82,-0.84 -5.6,-1.76 -8.4,-2.66 -0.85,-0.27 -1.68,-0.66 -2.54,-0.84 -1.08,-0.22 -1.64,0.43 -1.22,1.45 0.36,0.88 0.85,1.74 1.46,2.47 3.15,3.79 6.26,7.62 9.57,11.26 3.96,4.36 8.09,8.57 12.18,12.81 1.11,1.15 2.36,2.17 3.53,3.26 2.1,1.96 4.61,2.93 7.44,3.17 3.12,0.27 6.23,0.67 9.36,0.83 5.75,0.3 11.51,0.58 17.27,0.65 3.45,0.04 6.9,-0.29 10.34,-0.56 4.4,-0.34 8.58,0.5 12.44,2.53 7.99,4.19 15.94,8.46 23.83,12.82 3.46,1.92 6.2,4.73 8.38,8.04 2.19,3.32 2.34,6.96 1.51,10.71 -0.24,1.1 -0.84,2.05 -1.94,2.48 -1.34,0.53 -2.94,0.43 -3.29,-1.7 -0.15,-0.95 -0.24,-1.9 -0.39,-2.85 -0.55,-3.59 -1.96,-6.75 -4.73,-9.19 -0.86,-0.76 -1.75,-1.51 -3.01,-1.34 -0.68,0.67 -0.37,1.33 -0.07,1.97 0.44,0.93 0.93,1.83 1.34,2.77 2.06,4.73 1.24,9.27 -1.01,13.67 -0.36,0.7 -1.06,1.32 -1.76,1.71 -1.47,0.83 -2.88,0.05 -3.05,-1.63 -0.09,-0.95 0,-1.92 -0.03,-2.88 -0.07,-3.61 -1.96,-6.26 -4.59,-8.49 -0.24,-0.2 -0.55,-0.33 -0.85,-0.44 -0.95,-0.34 -1.5,0.06 -1.41,1.09 0.05,0.57 0.22,1.13 0.4,1.68 1.24,3.86 0.84,7.74 -0.1,11.56 -0.28,1.12 -0.94,2.29 -1.75,3.12 -1.85,1.89 -4.19,1.16 -4.73,-1.42 -0.28,-1.37 -0.35,-2.79 -0.4,-4.19 -0.1,-2.74 -1.5,-4.55 -3.92,-5.65 -1.28,-0.58 -2.63,-1.02 -3.88,-1.66 -2.16,-1.11 -4.47,-2.07 -6.34,-3.56 -2.8,-2.24 -5.79,-2.5 -9.05,-1.8 -3.75,0.8 -7.48,1.73 -11.23,2.51 -5.08,1.05 -10.21,1.67 -15.39,2 -6.06,0.38 -12.07,1.19 -18.05,2.33 -2.29,0.44 -4.71,0.34 -7.07,0.28 -1.72,-0.04 -3.13,-0.97 -4.39,-2.15 -2.91,-2.74 -5.32,-5.89 -7.6,-9.14 -2.61,-3.72 -5.11,-7.52 -7.67,-11.28 -0.43,-0.63 -0.85,-1.3 -1.38,-1.84 -1.03,-1.05 -2.14,-0.83 -2.7,0.55 -0.28,0.7 -0.46,1.48 -0.5,2.23 -0.11,1.85 -0.1,3.71 -0.17,5.57 -0.02,0.68 -0.13,1.36 -0.2,2.08 -1.32,0 -1.84,-0.84 -2.39,-1.6 -2.35,-3.24 -4.05,-6.82 -5.38,-10.57 -1,-2.83 -1.8,-5.73 -2.7,-8.6 -0.27,-0.85 -0.49,-1.74 -0.91,-2.52 -0.55,-1.01 -1.48,-1.03 -2.14,-0.07 -0.36,0.51 -0.65,1.13 -0.77,1.74 -0.31,1.56 -0.51,3.15 -0.74,4.73 -0.16,1.11 -0.31,2.23 -0.48,3.48 -1.22,-0.33 -1.46,-1.19 -1.68,-1.92 -0.84,-2.75 -1.73,-5.5 -2.35,-8.3 -1.29,-5.81 -2.09,-11.71 -2.48,-17.65 -0.06,-0.89 -0.16,-1.79 -0.38,-2.66 -0.15,-0.58 -0.53,-1.09 -0.77,-1.57 -1.39,-0.02 -1.92,0.85 -2.26,1.73 -0.71,1.84 -1.49,3.69 -1.89,5.62 -0.78,3.75 -1.31,7.55 -1.95,11.33 -0.17,0.99 -0.11,2.05 -0.939999,2.88 -1.08,-0.41 -1.34,-1.4 -1.53,-2.29 -0.66,-2.99 -1.39,-5.99 -1.75,-9.02 -0.83,-7.03 -0.37,-14.05 0.65,-21.04 0.09,-0.63 0.11,-1.29 0.04,-1.92 -0.13,-1.19 -0.99,-1.7 -2.05,-1.14 -0.66,0.35 -1.33,0.86 -1.74,1.47 -1.37,2.07 -2.86,4.12 -3.87,6.37 -1.25,2.79 -2.06,5.77 -3.08,8.66 -0.37,1.05 -0.5,2.22 -1.41,3.19 -1.13,-1.11 -1.03,-2.46 -1.11,-3.66 -0.35,-5.2 0.16,-10.36 0.83,-15.5 1.1,-8.51 2.95,-16.88 4.97,-25.21 0.48,-1.99 0.48,-2.38 0.03,-3.78 -1.17,-0.46 -1.94,0.33 -2.61,1.06 -1.04,1.12 -2.01,2.33 -2.93,3.56 -2.63,3.5 -4.7,7.32 -6.55,11.27 -0.39,0.84 -0.91,1.63 -1.61,2.84 -0.38,-0.84 -0.7,-1.24 -0.73,-1.67 -0.14,-1.72 -0.32,-3.45 -0.25,-5.17 0.39,-8.84 2.17,-17.37 6.01,-25.4 0.33,-0.69 0.68,-1.39 0.89,-2.12 0.17,-0.62 0.15,-1.29 0.21,-1.95 -1.36,-0.3 -2.16,0.34 -2.8,1 -2.13,2.21 -4.16,4.51 -6.23,6.77 -0.67,0.73 -1.35,1.46 -2.09,2.26 -0.99,-1.04 -0.69,-1.99 -0.51,-2.9 0.84,-4.33 2.62,-8.28 4.92,-12.01 3.47,-5.63 7.99,-10.34 13.09,-14.46 8.89,-7.17 18.389999,-13.46 28.339999,-19.05 3.62,-2.03 7.47,-3.34 11.68,-3.36 0.38,0 0.76,-0.08 1.13,-0.18 1.42,-0.38 1.8,-1.13 1.09,-2.4 -0.53,-0.94 -1.23,-1.79 -1.86,-2.68 -2.35,-3.3 -4.47,-6.72 -5.39,-10.74 -0.88,-3.83 -0.81,-7.62 0.6,-11.33 1.01,-2.67 2.74,-4.74 5.24,-6.17 2.88,-1.64 5.95,-2.72 9.26,-2.87 5.04,-0.22 9.03,1.96 12.22,5.73 2.39,2.82 4,6.08 5.17,9.57 0.24,0.73 0.47,1.48 0.84,2.14 0.65,1.15 1.85,1.21 2.36,0 0.54,-1.26 0.88,-2.69 0.93,-4.06 0.07,-1.91 -0.2,-3.83 -0.36,-5.74 -0.19,-2.15 0.15,-2.83 2.24,-3.3 2.11,-0.47 4.27,-0.86 6.43,-1.03 8.72,-0.67 17.22,0.68 25.55,3.21 9.36,2.85 18.11,7.06 26.46,12.12 11.56,7.02 22.8,14.49 33.25,23.11 4.7,3.87 9.25,7.91 13.13,12.64 1.01,1.23 1.96,2.54 2.74,3.93 1.04,1.84 0.5,3.18 -1.57,3.59 -2.12,0.42 -4.31,0.48 -6.47,0.65 -1.84,0.14 -3.72,0.06 -5.53,0.36 -1.02,0.17 -2.07,0.73 -2.88,1.39 -3.26,2.69 -3.31,5.66 -0.09,8.37 1.75,1.48 3.73,2.69 5.62,4.01 1.05,0.73 2.19,1.35 3.16,2.17 1.74,1.48 2.48,3.37 1.86,5.67 -0.13,0.49 -0.22,1.02 -0.46,1.46 -1.71,3.15 -3.36,6.33 -5.21,9.39 -1.37,2.27 -3.55,3.72 -6.08,4.44 -6.68,1.89 -13.17,1.42 -19.3,-2.03 -2.99,-1.68 -5.46,-4.01 -7.63,-6.65 -0.49,-0.59 -0.99,-1.19 -1.58,-1.67 -0.87,-0.69 -1.54,-0.44 -1.82,0.67 -0.13,0.53 -0.11,1.14 0,1.68 1.14,6.12 4.32,10.85 9.64,14.13 1.46,0.9 2.92,1.85 4.23,2.96 1.57,1.33 2.07,3.2 1.9,5.21 -0.18,2.22 -1.32,3.52 -3.52,3.97 -2.68,0.54 -5.23,-0.01 -7.61,-1.27 -1.01,-0.53 -1.92,-1.26 -2.87,-1.92 -0.42,-0.29 -0.79,-0.67 -1.23,-0.92 -1.32,-0.74 -2.23,-0.22 -2.36,1.3 0,0.06 -0.02,0.13 0,0.19 0.62,2.65 -1,3.64 -3.11,4.43 -3.44,1.3 -6.98,2.1 -10.62,2.46 -0.78,0.08 -1.59,-0.16 -2.38,-0.25 -0.08,-0.19 -0.16,-0.39 -0.24,-0.58 z m -21.81,-73.4 c 0.78,1.25 1.71,1.29 2.59,1.39 4.07,0.46 8.09,1.18 11.93,2.64 5.39,2.05 10.15,5.09 14.16,9.27 0.62,0.64 1.25,1.3 1.96,1.82 0.36,0.26 1.05,0.43 1.37,0.25 0.34,-0.18 0.59,-0.84 0.58,-1.29 -0.01,-0.68 -0.17,-1.42 -0.47,-2.03 -0.54,-1.08 -1.06,-2.25 -1.89,-3.09 -1.85,-1.89 -2.02,-3.73 -1.06,-6.22 1.63,-4.22 0.05,-9 -3.46,-11.93 -3.48,-2.9 -8.35,-3.34 -12.38,-1.12 -2.15,1.18 -3.7,2.93 -4.72,5.14 -0.7,1.53 -1.81,2.37 -3.47,2.68 -1.18,0.22 -2.35,0.62 -3.45,1.11 -0.64,0.28 -1.13,0.89 -1.72,1.38 z m -53.05,-32.66 c 0.01,4.5 2.17,10.21 5.2,13.51 0.63,0.69 1.42,1.32 2.26,1.73 1.67,0.81 3.5,-0.2 3.78,-1.99 0.17,-1.09 -0.3,-2.01 -0.93,-2.84 -0.54,-0.71 -1.23,-1.31 -1.74,-2.05 -0.54,-0.78 -1.11,-1.6 -1.38,-2.49 -0.71,-2.29 1.11,-4.14 3.43,-3.52 0.91,0.24 1.74,0.76 2.62,1.15 1.11,0.49 2.18,1.14 3.33,1.43 1.85,0.46 3.76,0.48 5.15,-1.12 1.36,-1.56 1.07,-3.42 0.23,-5.06 -0.86,-1.69 -1.9,-3.35 -3.15,-4.78 -2.33,-2.67 -5.3,-4.07 -8.97,-3.98 -5.79,0.14 -9.86,4.2 -9.84,10 z"
     id="path1"
     style="fill:#f5f0e6;fill-opacity:1" />
  <path
     class="cls-1"
     d="m 328.11545,344.87515 c -0.2,-0.7 -0.49,-1.33 -0.55,-1.98 -0.1,-1.02 -0.07,-2.05 -0.07,-3.07 0,-47.99 0,-95.98 0,-143.97 0,-0.96 -0.01,-1.93 0.07,-2.88 0.13,-1.54 0.83,-2.17 2.27,-1.81 3.04,0.76 6.04,1.64 9.05,2.52 1.24,0.36 1.87,1.29 1.94,2.57 0.04,0.83 0.06,1.66 0.05,2.5 -0.11,13.52 -0.23,27.03 -0.34,40.55 -0.18,23 -0.35,46 -0.54,68.99 -0.06,7.43 -0.24,14.86 -0.19,22.29 0.02,2.84 -0.8,5.08 -2.93,6.96 -2.11,1.87 -4.06,3.91 -6.09,5.86 -0.69,0.66 -1.41,1.28 -2.65,1.46 z"
     id="path2"
     style="fill:#f5f0e6;fill-opacity:1" />
  <path
     class="cls-1"
     d="m 96.905451,383.51515 c -0.57,-0.91 -0.97,-1.89 -1.66,-2.57 -1.46,-1.43 -3.03,-2.76 -4.64,-4.01 -1.89,-1.46 -3.4,-1.35 -5.12,0.37 -2.27,2.29 -4.12,4.91 -5.39,7.88 -0.47,1.09 -0.53,2.35 -0.75,3.54 -0.12,0.69 -0.11,1.41 -0.27,2.08 -0.45,1.84 -1.83,2.46 -3.5,1.56 -0.67,-0.36 -1.27,-0.86 -1.85,-1.36 -3.69,-3.17 -7.36,-6.35 -11.04,-9.54 -0.39,-0.33 -0.77,-0.68 -1.1,-1.07 -1.62,-1.89 -1.09,-3.61 1.33,-4.33 0.18,-0.05 0.38,-0.09 0.57,-0.11 3.45,-0.42 6.04,-2.32 8.26,-4.82 3.53,-3.97 7.04,-7.95 10.53,-11.96 1.17,-1.35 2.28,-2.76 3.37,-4.18 1.6,-2.08 2.53,-4.42 2.67,-7.07 0.04,-0.69 0.18,-1.41 0.41,-2.06 0.62,-1.76 2.09,-2.33 3.65,-1.32 1.06,0.69 1.98,1.6 2.96,2.43 3.21,2.74 6.409999,5.5 9.619999,8.24 1.04,0.89 2.12,1.84 1.75,3.38 -0.37,1.52 -1.73,2.02 -3.06,2.28 -2.91,0.57 -5.529999,1.61 -7.459999,3.97 -0.44,0.54 -0.89,1.09 -1.24,1.7 -0.85,1.48 -0.81,2.86 0.41,4.05 1.68,1.65 3.48,3.21 5.359999,4.64 1.47,1.12 2.77,0.99 4.21,-0.17 2.47,-1.98 3.84,-4.57 4.14,-7.73 0.09,-0.95 0.17,-1.92 0.42,-2.84 0.65,-2.39 2.4,-3.04 4.35,-1.53 1.66,1.29 3.14,2.82 4.74,4.19 2.14,1.83 4.32,3.61 6.46,5.44 0.77,0.66 1.57,1.34 2.18,2.15 0.96,1.26 0.64,2.6 -0.71,3.43 -0.49,0.3 -1.03,0.57 -1.58,0.67 -3.79,0.72 -6.63,2.95 -9.06,5.76 -4.05,4.7 -8.07,9.43 -12.02,14.22 -1.63,1.97 -3.11,4.09 -3.43,6.76 -0.09,0.76 -0.1,1.53 -0.16,2.29 -0.25,2.93 -2.099999,3.84 -4.439999,2.08 -1.48,-1.11 -2.78,-2.46 -4.18,-3.67 -2.48,-2.12 -4.98,-4.21 -7.46,-6.34 -0.68,-0.58 -1.38,-1.17 -1.92,-1.87 -1.14,-1.49 -0.69,-2.99 1.07,-3.69 0.71,-0.28 1.47,-0.45 2.22,-0.58 1.81,-0.33 3.45,-1.06 4.77,-2.32 1.81,-1.71 3.57,-3.48 5.23,-5.33 0.61,-0.68 0.88,-1.66 1.39,-2.66 z"
     id="path3"
     style="fill:#f5f0e6;fill-opacity:1" />
  <path
     class="cls-1"
     d="m 41.385451,188.19515 c 1.87,-0.15 3.6,-0.49 5.26,-1.28 0.69,-0.33 1.41,-0.63 2.15,-0.79 1.46,-0.31 2.54,0.5 2.63,2.01 0.05,0.82 -0.04,1.67 -0.22,2.47 -1.09,4.8 -2.23,9.59 -3.37,14.38 -0.16,0.68 -0.36,1.37 -0.67,2 -0.87,1.8 -2.38,2.07 -3.89,0.72 -0.33,-0.3 -0.63,-0.64 -0.88,-1.01 -1.64,-2.39 -3.99,-3.78 -6.71,-4.5 -5.06,-1.34 -10.14,-2.64 -15.24,-3.87 -2.54,-0.61 -5.12,-1.07 -7.7,-1.52 -2.14,-0.37 -4.1800002,0.1 -6.1900002,0.86 -0.88,0.34 -1.83,0.63 -2.76,0.69 -1.51,0.1 -2.36,-0.81 -2.38,-2.35 0,-0.57 0.08,-1.15 0.21,-1.71 1.11,-4.79 2.24,-9.59 3.37,-14.38 0.15,-0.62 0.34,-1.24 0.61,-1.81 0.79,-1.7 2.2,-2.12 3.77,-1.07 0.6700002,0.45 1.2400002,1.1 1.7800002,1.72 1.8,2.09 3.85,3.75 6.64,4.28 0.69,0.13 1.39,0.2 2.08,0.24 1.62,0.1 2.79,-0.7 3.24,-2.18 0.69,-2.25 1.28,-4.56 1.69,-6.88 0.33,-1.82 -0.62,-3.16 -2.44,-3.87 -2.8,-1.11 -5.59,-1.09 -8.41,0.04 -1.17,0.47 -2.42,0.87 -3.67,0.98 -1.7300002,0.15 -2.7600002,-1.05 -2.5600002,-2.77 0.09,-0.76 0.31,-1.5 0.49,-2.24 0.75,-3.04 1.52,-6.08 2.2500002,-9.12 0.34,-1.43 0.6,-2.88 0.92,-4.31 0.12,-0.56 0.26,-1.13 0.49,-1.65 0.83,-1.89 2.32,-2.28 4.02,-1.05 0.41,0.3 0.82,0.63 1.13,1.03 1.89,2.43 4.42,3.95 7.33,4.65 7.39,1.77 14.82,3.42 22.26,4.98 2.08,0.44 4.21,0.13 6.17,-0.84 0.57,-0.28 1.17,-0.54 1.77,-0.73 2.01,-0.66 3.48,0.44 3.34,2.55 -0.05,0.82 -0.29,1.64 -0.47,2.45 -1.02,4.36 -2.04,8.71 -3.08,13.06 -0.21,0.87 -0.4,1.76 -0.77,2.57 -0.82,1.81 -2.38,2.13 -3.86,0.81 -0.52,-0.46 -0.96,-1.03 -1.4,-1.57 -1.24,-1.52 -2.72,-2.73 -4.58,-3.37 -2.11,-0.73 -4.23,-1.49 -6.4,-2 -3.01,-0.71 -4.39,0.21 -5.2,3.24 -0.46,1.73 -0.92,3.47 -1.19,5.23 -0.4,2.66 0.33,3.89 2.93,4.55 2.46,0.62 5,0.93 7.51,1.38 z"
     id="path4"
     style="fill:#f5f0e6;fill-opacity:1" />
  <path
     class="cls-1"
     d="m 450.08545,223.30515 c 0,3.2 0.03,6.4 0,9.6 -0.03,2.4 -0.62,4.68 -1.56,6.88 -3.22,7.6 -14.28,8.56 -18.97,2.28 -0.76,-1.02 -1.4,-2.14 -2.11,-3.2 -1.16,-1.73 -2.26,-1.88 -3.45,-0.19 -2.83,4.01 -6.79,6.5 -11.03,8.71 -2.03,1.06 -3.87,2.48 -5.79,3.73 -0.11,0.07 -0.2,0.17 -0.3,0.24 -0.88,0.67 -1.77,1.37 -2.96,0.84 -1.26,-0.57 -1.38,-1.78 -1.37,-2.94 0.05,-4.93 0.12,-9.86 0.24,-14.79 0.06,-2.3 1.12,-3.27 3.39,-3.1 1.78,0.13 3.51,0.53 5.32,0.05 2.5,-0.66 4.87,-1.56 7.01,-3.01 0.42,-0.29 0.84,-0.59 1.21,-0.94 0.88,-0.82 1.54,-1.78 1.16,-3.05 -0.39,-1.3 -1.56,-1.7 -2.71,-1.82 -3.13,-0.33 -6.13,0.13 -8.85,1.83 -0.81,0.51 -1.61,1.04 -2.4,1.59 -2.49,1.75 -4.13,0.09 -4.14,-2.16 -0.01,-2.69 0.1,-5.38 0.12,-8.07 0.02,-2.69 0,-5.38 0,-8.07 0,-0.45 -0.03,-0.9 0.03,-1.34 0.31,-2.46 2.17,-3.43 4.06,-1.83 3.26,2.76 6.99,3.49 11.06,3.51 6.34,0.03 12.67,0.22 19.01,0.18 2.78,-0.02 5.43,-0.8 7.73,-2.51 0.61,-0.45 1.3,-0.85 2.01,-1.11 1.63,-0.62 3,0.08 3.31,1.81 0.24,1.37 0.23,2.8 0.21,4.2 -0.08,4.22 -0.22,8.45 -0.33,12.67 0.04,0 0.07,0 0.11,0 z m -14.51,6.8 c 1.13,-0.25 2.27,-0.4 3.34,-0.78 1.34,-0.47 2.48,-1.3 3.16,-2.62 0.92,-1.78 0.23,-3.53 -1.76,-3.7 -2.71,-0.23 -5.49,-0.31 -8.18,0 -2.63,0.3 -3.41,3.07 -1.6,5.05 0.5,0.55 1.17,1.03 1.86,1.28 1,0.37 2.08,0.52 3.18,0.77 z"
     id="path5"
     style="fill:#f5f0e6;fill-opacity:1" />
  <path
     class="cls-1"
     d="m 108.85545,60.595148 c 3.27,-0.26 6.25,0.52 8.74,2.71 3.53,3.1 6.93,8.95 3.22,15.73 -1.66,3.03 -4.01,5.46 -6.59,7.67 -4.22,3.62 -8.54,7.13 -12.8,10.71 -1.22,1.03 -2.399999,2.11 -3.609999,3.160002 -0.39,0.33 -0.8,0.65 -1.24,0.9 -1.89,1.11 -3.22,0.55 -3.71,-1.550002 -0.13,-0.56 -0.22,-1.14 -0.21,-1.7 0.04,-2.26 -0.59,-4.33 -1.94,-6.11 -2.71,-3.56 -5.46,-7.09 -8.29,-10.56 -1.94,-2.38 -4.02,-4.64 -6.06,-6.93 -2.09,-2.35 -4.56,-4.08 -7.69,-4.77 -0.61,-0.13 -1.23,-0.39 -1.77,-0.71 -1.58,-0.94 -1.83,-2.44 -0.68,-3.89 0.32,-0.4 0.7,-0.75 1.09,-1.08 5.61,-4.75 11.24,-9.48 16.85,-14.23 1.87,-1.58 3.93,-2.83 6.26,-3.65 8.12,-2.89 14.279999,3.65 14.039999,10.37 -0.03,0.77 -0.15,1.54 -0.11,2.3 0.07,1.21 0.6,1.74 1.81,1.78 0.89,0.03 1.79,-0.08 2.68,-0.13 z m -9.049999,10.58 c -0.8,0.2 -1.64,0.3 -2.39,0.62 -1.79,0.74 -2.37,2.16 -1.2,3.67 2.02,2.63 4.199999,5.16 6.489999,7.56 1.2,1.26 2.83,1.07 4.15,-0.11 1,-0.89 1.54,-1.99 1.56,-3.37 0.06,-4.03 -4.36,-8.29 -8.609999,-8.37 z m -9.91,-3.93 c 2.18,0.04 3.73,-1.94 3.6,-4.07 -0.16,-2.63 -2.67,-5.33 -5.29,-5.54 -1.47,-0.12 -2.83,0.32 -3.65,1.66 -0.76,1.24 -0.17,2.36 0.62,3.34 1.01,1.24 2.04,2.46 3.16,3.6 0.51,0.52 1.24,0.81 1.56,1.02 z"
     id="path6"
     style="fill:#f5f0e6;fill-opacity:1" />
  <path
     class="cls-1"
     d="m 301.76545,62.485148 c -3.85,-0.13 -7.01,-0.92 -10.07,-2.08 -5.02,-1.91 -10.01,-3.88 -15.03,-5.79 -1.55,-0.59 -3.14,-1.08 -4.71,-1.65 -0.6,-0.22 -1.2,-0.47 -1.75,-0.79 -1.89,-1.09 -2.01,-2.75 -0.32,-4.17 0.19,-0.16 0.41,-0.32 0.63,-0.44 3.08,-1.59 4.88,-4.24 6.13,-7.36 1.68,-4.21 3.37,-8.43 5,-12.66 0.81,-2.09 1.53,-4.2 2.24,-6.32 0.97,-2.92 1.17,-5.87 0.34,-8.87 -0.2,-0.73 -0.3,-1.52 -0.23,-2.27 0.13,-1.4500001 1.22,-2.3000001 2.66,-2.1200001 0.75,0.09 1.49,0.36 2.2,0.62 6.58,2.4700001 13.16,4.9500001 19.74,7.4300001 2.72,1.02 5.19,2.39 7.33,4.43 5.32,5.09 3.4,13.1 -1.96,16.3 -0.77,0.46 -1.6,0.8 -2.39,1.22 -1.62,0.87 -1.85,1.71 -0.89,3.26 0.6,0.98 1.3,1.91 1.86,2.91 4.08,7.29 -1.32,16.48 -7.56,17.82 -1.24,0.27 -2.51,0.42 -3.23,0.53 z m -2.68,-17.68 c 0.02,-2.83 -0.69,-4.63 -2.12,-5.98 -1.72,-1.64 -3.51,-1.43 -4.45,0.73 -1.15,2.63 -2.2,5.31 -3.05,8.05 -0.94,3.02 0.85,4.98 4.04,4.73 1.15,-0.09 2.08,-0.57 2.86,-1.38 1.81,-1.89 2.6,-4.19 2.72,-6.14 z m 5.74,-19.08 c -0.05,-1.4 -0.44,-2.52 -1.33,-3.45 -1.73,-1.83 -3.71,-1.62 -4.76,0.64 -0.75,1.62 -1.34,3.32 -1.86,5.03 -0.52,1.72 0.35,3.03 2.1,3.43 1.26,0.28 2.43,0.04 3.43,-0.77 1.59,-1.29 2.32,-3.01 2.41,-4.88 z"
     id="path7"
     style="fill:#f5f0e6;fill-opacity:1" />
  <path
     class="cls-1"
     d="m 329.05545,376.83515 c -0.39,2.85 0.4,5.2 1.48,7.48 3.37,7.19 7.22,14.12 11.3,20.93 0.92,1.53 1.8,3.1 2.64,4.68 1.16,2.19 1.03,4.32 -0.58,6.26 -1.7,2.04 -3.92,2.65 -6.39,1.86 -2.49,-0.8 -4.92,-1.8 -7.36,-2.76 -5.71,-2.23 -11.42,-4.5 -17.13,-6.73 -0.77,-0.3 -1.56,-0.62 -2.37,-0.73 -1.63,-0.24 -2.31,0.61 -1.84,2.16 0.11,0.37 0.25,0.73 0.43,1.07 1.88,3.44 4,6.72 6.95,9.35 1.04,0.93 2.3,1.6 3.47,2.37 0.69,0.46 1.48,0.79 2.1,1.33 1.35,1.16 1.3,2.65 -0.09,3.75 -0.49,0.39 -1.07,0.69 -1.64,0.99 -2.71,1.43 -5.44,2.85 -8.16,4.26 -0.57,0.29 -1.13,0.62 -1.73,0.81 -1.98,0.61 -3.47,-0.61 -3.3,-2.69 0.03,-0.38 0.12,-0.76 0.22,-1.13 0.82,-2.86 0.33,-5.6 -0.97,-8.18 -3.11,-6.17 -6.26,-12.31 -9.46,-18.43 -1.55,-2.96 -3.77,-5.29 -6.84,-6.76 -1.23,-0.59 -2.39,-1.42 -2.32,-3 0.07,-1.51 1.33,-2.1 2.46,-2.68 2.17,-1.1 4.38,-2.1 6.55,-3.2 2.2,-1.11 4.37,-1.12 6.65,-0.21 5.93,2.37 11.89,4.69 17.85,7 1.01,0.39 2.04,0.8 3.09,1 1.92,0.35 2.74,-0.67 1.86,-2.44 -2.02,-4.07 -4.59,-7.69 -8.82,-9.81 -0.85,-0.42 -1.72,-0.89 -2.41,-1.52 -1.3,-1.18 -1.23,-2.47 0.09,-3.6 0.48,-0.41 1.05,-0.73 1.61,-1.03 2.55,-1.34 5.1,-2.65 7.66,-3.97 0.51,-0.26 1.02,-0.55 1.56,-0.74 1.96,-0.68 3.27,0.18 3.43,2.28 0.06,0.76 0,1.53 0,2.04 z"
     id="path8"
     style="fill:#f5f0e6;fill-opacity:1" />
  <path
     class="cls-1"
     d="m 335.76545,371.73515 c -0.04,-5.84 2.29,-10.69 6.15,-14.9 1.83,-1.99 3.9,-3.71 6.25,-5.06 1.86,-1.07 3.4,-2.46 4.69,-4.18 1.88,-2.5 3.5,-2.77 6.08,-0.98 2.79,1.94 5.47,4.01 8.2,6.03 0.15,0.11 0.28,0.26 0.42,0.39 0.78,0.76 1.36,1.63 0.88,2.73 -0.48,1.08 -1.51,1.34 -2.59,1.23 -0.95,-0.09 -1.89,-0.28 -2.83,-0.47 -2.76,-0.57 -5.5,-1.08 -8.35,-0.64 -5.67,0.88 -8.9,5.5 -7.69,11.13 0.46,2.16 1.37,4.14 2.67,5.91 3.86,5.23 8.79,8.9 15.29,10.15 1.9,0.36 3.81,0.42 5.7,-0.15 0.43,-0.13 0.86,-0.28 1.25,-0.48 2.01,-1.06 2.58,-2.71 1.35,-4.62 -2.04,-3.14 -4.71,-5.4 -8.73,-5.44 -0.76,0 -1.55,0 -2.28,-0.17 -2,-0.47 -2.6,-2.13 -1.4,-3.79 0.45,-0.62 1.01,-1.16 1.58,-1.68 3.15,-2.91 6.3,-5.82 9.47,-8.71 2.61,-2.38 4.37,-2.12 5.71,1.11 1.96,4.7 5.31,8.25 8.95,11.61 1.17,1.09 2.4,2.13 3.44,3.34 1.56,1.82 1.17,3.39 -0.95,4.51 -0.17,0.09 -0.34,0.18 -0.53,0.23 -3.1,0.83 -4.9,3.07 -6.32,5.76 -2,3.78 -4.59,7.11 -8.21,9.5 -6.75,4.46 -13.97,4.83 -21.24,1.71 -9.03,-3.87 -14.56,-10.81 -16.6,-20.45 -0.25,-1.18 -0.23,-2.41 -0.33,-3.62 z"
     id="path9"
     style="fill:#f5f0e6;fill-opacity:1" />
  <path
     class="cls-1"
     d="m 181.00545,10.935148 c -1.4,0.41 -2.85,0.67 -4.17,1.26 -1.29,0.57 -2.1,1.68 -2,3.22 0.09,1.48 1.04,2.4 2.29,2.8 1.75,0.56 3.59,0.9 5.4,1.26 3.45,0.68 6.93,1.19 10.35,2 2.82,0.68 5.34,2.08 7.51,4.09 5.15,4.79 6.71,16.25 -1.2,22.3 -3.51,2.69 -7.53,4.04 -11.82,4.69 -2.21,0.34 -4.46,0.39 -6.67,0.73 -2.14,0.33 -4.26,0.81 -6.37,1.31 -2.08,0.49 -3.3,0.13 -4.06,-1.79 -1.44,-3.62 -2.71,-7.31 -4.03,-10.98 -0.15,-0.41 -0.19,-0.88 -0.18,-1.32 0.06,-1.57 1.15,-2.38 2.59,-1.77 1.17,0.49 2.26,1.19 3.31,1.9 2.64,1.76 5.43,3.13 8.58,3.68 2.23,0.39 4.46,0.51 6.64,-0.25 1.25,-0.43 2.31,-1.14 2.65,-2.54 0.38,-1.56 -0.25,-3.05 -1.92,-3.78 -1.44,-0.63 -3.03,-0.99 -4.58,-1.3 -2.94,-0.58 -5.93,-0.98 -8.87,-1.58 -1.3,-0.27 -2.58,-0.77 -3.8,-1.31 -4.8,-2.15 -7.27,-6.05 -8.16,-11.1 -0.39,-2.23 -0.37,-4.46 0.17,-6.66 1.14,-4.63 4.09,-7.7500001 8.33,-9.6900001 2.76,-1.26 5.67,-1.92 8.72,-2.03 2.81,-0.1 5.59,-0.31 8.24,-1.53 2.35,-1.08 3.97,-0.48 5.09,1.83 1.59,3.28 2.98,6.6500001 4.44,10.0000001 0.18,0.4 0.27,0.86 0.3,1.3 0.11,1.67 -1.2,2.7 -2.75,2.05 -0.87,-0.36 -1.62,-1 -2.41,-1.53 -1.7,-1.13 -3.34,-2.37 -5.11,-3.38 -1.97,-1.13 -4.18,-1.56 -6.52,-1.87 z"
     id="path10"
     style="fill:#f5f0e6;fill-opacity:1" />
  <path
     class="cls-1"
     d="m 212.81545,383.66515 c -0.75,0.06 -1.5,0.23 -2.24,0.17 -15.73,-1.32 -30.88,-5.04 -45.5,-10.95 -5.53,-2.23 -10.91,-4.76 -15.93,-7.99 -1.34,-0.86 -2.64,-1.8 -3.88,-2.81 -2.01,-1.64 -1.89,-2.56 0.47,-3.76 4.05,-2.05 8.13,-4.06 12.2,-6.07 16.74,-8.29 33.48,-16.57 50.22,-24.86 0.63,-0.31 1.25,-0.77 1.91,-0.86 0.91,-0.13 1.94,-0.18 2.79,0.12 1.25,0.44 2.43,1.15 3.56,1.87 1.5,0.95 1.43,1.74 -0.15,2.65 -0.61,0.35 -1.25,0.65 -1.88,0.95 -7.99,3.75 -15.99,7.49 -23.98,11.23 -0.41,0.19 -0.79,0.43 -1.2,0.6 -2.18,0.87 -3.18,2.47 -2.99,4.81 0.16,2.04 -0.77,3.4 -2.55,4.3 -2,1.02 -3.96,2.09 -5.92,3.18 -2.85,1.59 -2.9,2.92 -0.1,4.64 10.03,6.16 20.1,12.28 30.14,18.42 1.36,0.83 2.73,1.68 4.05,2.58 0.48,0.33 0.83,0.84 1.25,1.26 l -0.25,0.52 z"
     id="path11"
     style="fill:#f5f0e6;fill-opacity:1" />
  <path
     class="cls-1"
     d="m 127.53545,27.655148 c -0.89,4.61 0.67,8.72 2.64,12.74 1.43,2.93 2.74,5.93 4.32,8.78 0.95,1.71 2.12,3.38 3.51,4.75 4.05,4 9.52,1.8 11.68,-1.4 1.15,-1.7 1.33,-3.63 0.66,-5.52 -1,-2.83 -2.04,-5.66 -3.32,-8.37 -1.42,-3 -3.06,-5.91 -4.76,-8.76 -1.5,-2.51 -3.56,-4.51 -6.22,-5.84 -0.62,-0.31 -1.23,-0.72 -1.71,-1.21 -1.12,-1.13 -0.98,-2.71 0.31,-3.66 0.56,-0.41 1.21,-0.71 1.85,-1.02 2.52,-1.24 5.06,-2.47 7.58,-3.7 1.21,-0.59 2.47,-1.32 3.79,-0.46 1.41,0.93 1.3,2.45 1.01,3.84 -0.52,2.51 -0.01,4.88 0.98,7.11 1.8,4.03 3.75,7.99 5.69,11.95 1.55,3.16 3.09,6.31 3.95,9.76 1.68,6.7 -0.19,12.15 -5.68,16.27 -4.03,3.03 -8.46,5.25 -13.58,5.85 -5.65,0.66 -10.19,-1.43 -13.75,-5.62 -1.68,-1.98 -3.06,-4.26 -4.3,-6.56 -2.07,-3.82 -3.95,-7.75 -5.86,-11.66 -1.67,-3.42 -3.83,-6.35 -7.39,-8.02 -0.29,-0.13 -0.56,-0.31 -0.81,-0.51 -1.75,-1.37 -1.71,-3.22 0.17,-4.39 1.13,-0.7 2.4,-1.19 3.6,-1.79 3.27,-1.61 6.53,-3.23 9.8,-4.84 0.75,-0.37 1.49,-0.76 2.27,-1.03 2.03,-0.71 3.43,0.23 3.58,2.36 0.02,0.32 0,0.64 0,0.96 z"
     id="path12"
     style="fill:#f5f0e6;fill-opacity:1" />
  <path
     class="cls-1"
     d="m 266.74545,408.04515 c 0.38,1.55 0.69,3.11 1.15,4.63 0.32,1.07 0.94,2 2.22,2.1 1.26,0.09 2,-0.73 2.59,-1.68 0.37,-0.59 0.58,-1.28 0.92,-1.89 0.27,-0.5 0.57,-1.01 0.96,-1.41 0.83,-0.84 1.72,-0.83 2.48,0.07 0.44,0.52 0.84,1.17 1,1.83 1.03,4.22 1.99,8.46 2.97,12.7 0.04,0.19 0.11,0.38 0.09,0.56 -0.1,0.77 -0.23,1.67 -1.08,1.86 -0.61,0.14 -1.45,0.04 -1.96,-0.29 -0.84,-0.56 -1.47,-1.41 -2.23,-2.1 -0.51,-0.47 -1.03,-1 -1.64,-1.31 -1.56,-0.8 -2.99,-0.03 -3.27,1.71 -0.07,0.44 -0.11,0.92 0,1.34 0.56,2.16 0.98,4.38 1.82,6.43 1.14,2.77 3.22,3.66 6.09,2.9 2.96,-0.79 5.37,-2.4 6.87,-5.15 0.64,-1.18 1.11,-2.44 1.65,-3.67 0.28,-0.64 0.49,-1.32 0.8,-1.95 0.42,-0.83 0.97,-1.53 2.04,-1.46 1.09,0.07 1.58,0.85 1.79,1.74 0.31,1.3 0.51,2.63 0.66,3.96 0.29,2.54 0.5,5.09 0.76,7.63 0.22,2.14 -0.55,3.35 -2.79,3.9 -3.29,0.81 -6.62,1.44 -9.92,2.21 -6.41,1.5 -12.8,3.05 -19.21,4.58 -0.68,0.16 -1.37,0.34 -2.06,0.43 -2.21,0.3 -3.43,-1.14 -2.8,-3.26 0.11,-0.37 0.22,-0.74 0.41,-1.07 1.52,-2.66 1.62,-5.55 1.02,-8.4 -1.42,-6.82 -2.99,-13.61 -4.58,-20.39 -0.7,-2.99 -2.16,-5.59 -4.52,-7.65 -0.62,-0.54 -1.18,-1.19 -1.59,-1.9 -0.76,-1.31 -0.39,-2.54 0.95,-3.23 0.73,-0.38 1.55,-0.62 2.35,-0.8 8.65,-2.03 17.3,-4.04 25.95,-6.05 0.5,-0.12 1.01,-0.18 1.51,-0.26 2.06,-0.33 3.3,0.19 4.32,2.02 0.71,1.28 1.27,2.65 1.89,3.98 0.64,1.39 1.28,2.79 1.9,4.19 0.21,0.47 0.41,0.94 0.56,1.43 0.47,1.5 0.27,2.56 -0.56,3.16 -0.87,0.62 -1.92,0.49 -3.15,-0.52 -1.03,-0.86 -2,-1.79 -2.96,-2.73 -2.81,-2.75 -6.13,-3.52 -9.9,-2.57 -2.54,0.64 -3.39,1.75 -3.54,4.41 z"
     id="path13"
     style="fill:#f5f0e6;fill-opacity:1" />
  <path
     class="cls-1"
     d="m 398.87545,335.52515 c -0.7,0 -1.41,-0.05 -2.11,0.01 -0.93,0.09 -1.77,0.44 -2.1,1.41 -0.31,0.92 -0.1,1.8 0.59,2.48 0.59,0.58 1.2,1.18 1.9,1.6 1.58,0.96 3.15,1.98 4.85,2.67 2.37,0.96 4.22,0.31 5.7,-1.76 1.97,-2.76 2.62,-5.82 1.75,-9.11 -0.39,-1.47 -1.06,-2.88 -1.55,-4.33 -0.24,-0.72 -0.5,-1.47 -0.53,-2.21 -0.07,-1.5 0.97,-2.27 2.38,-1.77 0.76,0.27 1.5,0.74 2.12,1.28 2.53,2.16 5.05,4.34 7.5,6.59 1.89,1.73 1.99,2.63 0.56,4.84 -1.64,2.52 -3.41,4.95 -5.08,7.46 -3.71,5.6 -7.38,11.23 -11.09,16.84 -0.56,0.85 -1.16,1.7 -1.86,2.43 -1.41,1.44 -2.91,1.17 -3.87,-0.62 -0.21,-0.39 -0.41,-0.81 -0.52,-1.23 -0.68,-2.76 -2.34,-4.87 -4.59,-6.43 -6.21,-4.29 -12.47,-8.51 -18.77,-12.65 -2.06,-1.36 -4.44,-1.9 -6.95,-1.81 -0.94,0.03 -1.94,-0.04 -2.84,-0.31 -1.58,-0.46 -2.15,-1.8 -1.51,-3.33 0.24,-0.59 0.59,-1.14 0.94,-1.67 5,-7.51 10.01,-15.02 15.01,-22.53 0.04,-0.05 0.06,-0.11 0.1,-0.16 2.03,-2.92 3.32,-3.31 6.67,-1.96 2.49,1.01 4.97,2.03 7.43,3.1 0.69,0.3 1.4,0.68 1.95,1.18 1.24,1.15 0.94,2.77 -0.63,3.38 -0.7,0.27 -1.49,0.35 -2.25,0.38 -1.28,0.06 -2.56,0 -3.84,0.02 -4,0.06 -6.73,2.16 -8.61,5.5 -1.03,1.83 -0.86,3.26 0.71,4.66 1.28,1.14 2.7,2.17 4.22,2.96 2.29,1.2 3.92,-0.01 3.7,-2.62 -0.05,-0.56 -0.24,-1.12 -0.39,-1.67 -0.12,-0.43 -0.34,-0.84 -0.4,-1.28 -0.13,-0.88 -0.37,-1.84 0.47,-2.5 0.8,-0.63 1.7,-0.42 2.54,-0.02 0.69,0.33 1.37,0.69 2.01,1.11 2.83,1.86 5.66,3.74 8.47,5.64 0.58,0.39 1.14,0.85 1.59,1.37 1.1,1.25 0.65,2.68 -1,3.02 -0.86,0.17 -1.78,0.03 -2.67,0.03 0,0 0,0 0,-0.01 z"
     id="path14"
     style="fill:#f5f0e6;fill-opacity:1" />
  <path
     class="cls-1"
     d="m 404.89545,197.18515 c -2.75,0.02 -3.47,-0.38 -4.02,-2.4 -1.03,-3.76 -1.87,-7.57 -2.86,-11.35 -1.63,-6.18 -3.32,-12.35 -4.96,-18.53 -0.18,-0.67 -0.28,-1.39 -0.27,-2.08 0.02,-1.69 0.9,-2.42 2.59,-2.23 0.44,0.05 0.9,0.15 1.28,0.35 3.14,1.65 6.44,1.56 9.73,0.74 6.39,-1.58 12.76,-3.24 19.13,-4.93 2.97,-0.79 5.57,-2.24 7.54,-4.69 0.32,-0.4 0.7,-0.75 1.08,-1.09 1.84,-1.67 3.59,-1.28 4.49,1.01 0.28,0.71 0.48,1.46 0.67,2.2 2.12,8.11 4.23,16.21 6.33,24.32 0.27,1.05 0.48,2.12 0.62,3.19 0.19,1.49 -0.48,2.61 -1.72,3.39 -0.59,0.37 -1.22,0.71 -1.85,1.02 -2.12,1.05 -4.24,2.1 -6.39,3.1 -0.8,0.38 -1.66,0.68 -2.52,0.89 -0.77,0.19 -1.54,0.03 -2.08,-0.66 -0.58,-0.74 -0.65,-1.57 -0.15,-2.33 0.59,-0.91 1.27,-1.75 1.96,-2.6 0.64,-0.8 1.37,-1.53 2,-2.33 2.31,-2.95 2.48,-6.22 1.33,-9.63 -0.66,-1.94 -1.87,-2.85 -3.94,-2.61 -1.82,0.2 -3.66,0.64 -5.35,1.33 -2.12,0.87 -2.24,2.78 -0.44,4.21 0.49,0.39 1.1,0.64 1.67,0.93 0.51,0.26 1.07,0.45 1.56,0.74 1.81,1.08 1.78,2.64 -0.12,3.63 -0.84,0.44 -1.77,0.74 -2.69,0.99 -3.21,0.87 -6.43,1.71 -9.65,2.51 -0.73,0.18 -1.52,0.26 -2.28,0.21 -1.39,-0.09 -2.06,-1.21 -1.41,-2.44 0.38,-0.72 1.01,-1.3 1.54,-1.93 0.58,-0.68 1.29,-1.27 1.76,-2.01 1.17,-1.84 0.27,-3.63 -1.88,-3.58 -3.05,0.07 -5.95,0.91 -8.5,2.62 -1.63,1.09 -2.23,2.72 -1.8,4.7 0.81,3.78 2.97,6.46 6.48,8.05 1.05,0.47 2.16,0.8 3.23,1.21 0.66,0.25 1.34,0.48 1.93,0.85 1.53,0.96 1.5,2.41 -0.05,3.32 -0.49,0.29 -1.05,0.52 -1.61,0.6 -3.67,0.51 -7.35,0.96 -10.35,1.35 z"
     id="path15"
     style="fill:#f5f0e6;fill-opacity:1" />
  <path
     class="cls-1"
     d="m 340.15545,66.445148 c 0,-0.83 0.11,-1.68 -0.02,-2.49 -0.32,-2.04 -2.14,-2.84 -3.66,-1.47 -2.32,2.08 -4,4.66 -4.82,7.7 -0.45,1.67 0.03,3.17 1.37,4.33 2.75,2.37 5.92,3.25 9.46,2.44 1.49,-0.34 2.91,-0.97 4.36,-1.45 0.72,-0.24 1.45,-0.57 2.2,-0.64 1.53,-0.15 2.46,1.02 1.9,2.45 -0.34,0.87 -0.89,1.71 -1.51,2.42 -1.98,2.27 -4.01,4.48 -6.07,6.68 -2.22,2.38 -2.97,2.48 -5.72,0.58 -3,-2.07 -5.92,-4.26 -8.93,-6.33 -4.85,-3.33 -9.75,-6.59 -14.62,-9.91 -0.84,-0.57 -1.71,-1.16 -2.41,-1.88 -1.4,-1.43 -1.09,-3 0.7,-3.89 0.68,-0.34 1.43,-0.56 2.16,-0.79 1.94,-0.63 3.56,-1.75 4.84,-3.32 4.99,-6.11 9.38,-12.64 13.58,-19.3 1.4,-2.22 2,-4.68 2.09,-7.29 0.02,-0.58 0,-1.16 0.05,-1.73 0.21,-2.27 1.91,-3.25 3.92,-2.23 0.62,0.32 1.2,0.74 1.78,1.14 7.06,4.87 14.12,9.75 21.18,14.62 3.92,2.7 4.21,3.74 2.27,8.14 -0.88,1.99 -1.71,4 -2.61,5.98 -0.34,0.75 -0.73,1.5 -1.2,2.18 -0.5,0.73 -1.23,1.11 -2.16,0.94 -0.95,-0.17 -1.43,-0.87 -1.6,-1.71 -0.16,-0.8 -0.17,-1.64 -0.19,-2.47 -0.05,-1.46 0,-2.93 -0.1,-4.39 -0.24,-3.45 -2.27,-5.75 -5.06,-7.48 -1.76,-1.08 -3.5,-0.95 -4.88,0.56 -1.15,1.26 -2.2,2.68 -3,4.19 -1.17,2.22 -0.05,3.84 2.43,3.69 0.81,-0.05 1.61,-0.35 2.42,-0.52 0.62,-0.13 1.25,-0.35 1.87,-0.34 1.16,0.03 1.87,0.96 1.61,2.1 -0.15,0.67 -0.41,1.37 -0.79,1.94 -2.32,3.46 -4.68,6.88 -7.03,10.31 -0.14,0.21 -0.32,0.41 -0.51,0.57 -0.59,0.52 -1.22,1.02 -2.06,0.71 -0.87,-0.32 -1.27,-1.04 -1.3,-1.95 -0.02,-0.7 0,-1.41 0,-2.11 0.02,0 0.05,0 0.07,0 z"
     id="path16"
     style="fill:#f5f0e6;fill-opacity:1" />
  <path
     class="cls-1"
     d="m 67.275451,125.73515 c 0.15,-2.13 -0.7,-4.13 -1.68,-6.09 -0.46,-0.92 -0.97,-1.81 -1.35,-2.75 -0.31,-0.78 -0.43,-1.65 0.25,-2.34 0.74,-0.75 1.66,-0.6 2.5,-0.25 0.7,0.29 1.36,0.71 1.98,1.16 2.53,1.85 5.06,3.71 7.56,5.6 1.97,1.49 2.24,2.56 1.02,4.79 -2.03,3.7 -4.21,7.32 -6.25,11.02 -2.69,4.87 -5.31,9.78 -7.98,14.67 -0.49,0.9 -0.99,1.81 -1.64,2.59 -1.21,1.44 -2.77,1.3 -3.81,-0.28 -0.31,-0.48 -0.56,-1.01 -0.77,-1.54 -0.88,-2.3 -2.39,-4.09 -4.44,-5.4 -2.69,-1.72 -5.41,-3.41 -8.19,-5 -3.5,-2 -7.06,-3.89 -10.6,-5.81 -2.94,-1.6 -6.08,-2.31 -9.43,-1.94 -1.37,0.15 -2.79,0.21 -3.62,-1.13 -0.83,-1.33 -0.09,-2.59 0.56,-3.77 4.44,-8 8.89,-15.99 13.34,-23.98 0.25,-0.45 0.53,-0.87 0.82,-1.29 0.98,-1.43 2.39,-2.05 4,-1.58 3.49,1.02 6.94,2.2 10.4,3.34 0.41,0.14 0.79,0.44 1.1,0.75 1.1,1.07 0.97,2.47 -0.4,3.18 -0.71,0.37 -1.57,0.49 -2.38,0.61 -1.89,0.28 -3.83,0.33 -5.68,0.79 -3.33,0.82 -5.25,3.29 -6.47,6.32 -0.54,1.34 -0.2,2.66 0.9,3.69 1.56,1.47 3.41,2.43 5.41,3.18 1.84,0.69 3.57,-1.31 3.03,-2.92 -0.25,-0.73 -0.5,-1.45 -0.76,-2.17 -0.18,-0.48 -0.43,-0.94 -0.55,-1.43 -0.4,-1.69 0.65,-2.79 2.36,-2.42 0.74,0.16 1.47,0.46 2.14,0.83 3.31,1.81 6.6,3.66 9.89,5.5 0.28,0.16 0.54,0.35 0.8,0.53 0.78,0.55 1.36,1.23 1.09,2.25 -0.27,1.02 -1.17,1.3 -2.07,1.45 -0.5,0.08 -1.02,0.02 -1.53,0.05 -0.7,0.03 -1.41,0.04 -2.11,0.12 -1.15,0.13 -2.15,0.59 -2.47,1.8 -0.3,1.13 0.33,2 1.19,2.63 2.07,1.53 4.31,2.77 6.8,3.45 2.3,0.63 4.1,-0.15 5.42,-2.2 1.09,-1.69 1.6,-3.55 1.6,-5.96 z"
     id="path17"
     style="fill:#f5f0e6;fill-opacity:1" />
  <path
     class="cls-1"
     d="m 295.76545,285.50515 c 0.17,0.61 0.3,1.34 0.57,2.01 0.61,1.47 1.39,2.88 1.94,4.38 1.41,3.84 1.06,7.67 -0.28,11.45 -0.46,1.31 -1.3,2.36 -2.54,3.02 -2,1.07 -3.84,-0.03 -3.81,-2.29 0,-0.63 0.17,-1.26 0.28,-1.89 0.8,-4.85 -1.39,-9.46 -5.58,-11.64 -0.76,-0.4 -1.63,-1.12 -2.47,-0.4 -0.92,0.8 -0.29,1.77 0.11,2.63 0.43,0.93 0.95,1.82 1.36,2.75 1.61,3.75 1.47,7.5 -0.3,11.13 -0.57,1.17 -1.53,2.2 -2.46,3.14 -0.73,0.73 -1.76,1.12 -2.83,0.64 -1.11,-0.5 -1.32,-1.5 -1.19,-2.59 0.12,-1.01 0.23,-2.04 0.48,-3.02 0.59,-2.27 0.01,-4.3 -1.15,-6.23 -1.68,-2.76 -3.82,-5.13 -6.3,-7.18 -1.18,-0.98 -2.41,-1.91 -3.69,-2.75 -1.51,-1 -2.41,-0.94 -3.26,0.01 -0.91,1.03 -1.08,2.82 -0.29,3.93 0.48,0.67 1.11,1.24 1.61,1.9 1.3,1.7 0.82,3.18 -1.22,3.8 -0.42,0.13 -0.88,0.27 -1.31,0.23 -4.05,-0.37 -7.5,-1.98 -9.43,-5.67 -1.66,-3.17 -1.86,-6.72 -1.64,-10.28 0.15,-2.48 1.4,-4.37 3.15,-5.95 3.26,-2.94 7.01,-5.15 11.08,-6.78 2.86,-1.15 5.89,-1.51 8.84,-0.61 8.52,2.59 16.89,5.62 24.21,10.88 1.81,1.3 3.51,2.79 5.1,4.35 2.47,2.42 3.79,5.46 4.04,8.89 0.12,1.67 -0.28,3.32 -1.22,4.75 -0.27,0.42 -0.64,0.82 -1.06,1.08 -1.14,0.71 -2.15,0.32 -2.52,-0.98 -0.19,-0.67 -0.23,-1.38 -0.29,-2.08 -0.25,-3.15 -1.33,-5.99 -3.2,-8.51 -0.6,-0.8 -1.41,-1.48 -2.22,-2.09 -0.66,-0.5 -1.47,-0.83 -2.52,-0.04 z"
     id="path18"
     style="fill:#f5f0e6;fill-opacity:1" />
  <path
     class="cls-1"
     d="m 152.14545,390.41515 c -0.32,4.29 -0.61,8.5 -0.94,12.7 -0.36,4.59 -0.75,9.17 -1.12,13.76 -0.23,2.93 -0.56,5.86 -0.62,8.8 -0.04,2.02 0.29,4.06 0.5,6.08 0.07,0.63 0.34,1.24 0.43,1.87 0.31,2.15 -1.06,3.51 -3.2,3.05 -1.05,-0.22 -2.06,-0.69 -3.04,-1.16 -4.56,-2.18 -9.1,-4.39 -13.63,-6.63 -0.8,-0.39 -1.6,-0.84 -2.26,-1.42 -1.46,-1.29 -1.27,-2.75 0.44,-3.72 0.72,-0.41 1.57,-0.58 2.28,-1 0.93,-0.54 1.92,-1.09 2.62,-1.87 1.28,-1.42 1.06,-2.94 -0.4,-4.19 -0.29,-0.25 -0.6,-0.49 -0.94,-0.66 -2.13,-1.04 -4.24,-2.1 -6.4,-3.07 -1.41,-0.64 -2.88,-0.76 -4.15,0.36 -1.25,1.1 -1.7,2.52 -1.3,4.16 0.18,0.75 0.37,1.49 0.5,2.25 0.44,2.41 -0.87,3.57 -3.2,2.84 -0.36,-0.12 -0.72,-0.25 -1.07,-0.42 -2.76,-1.34 -5.52,-2.68 -8.27,-4.04 -1.05,-0.52 -2.09,-1.1 -2.1,-2.48 0,-1.39 1.02,-2 2.11,-2.46 3.18,-1.35 5.81,-3.47 8.28,-5.81 5.21,-4.94 10.43,-9.85 15.59,-14.83 1.56,-1.51 3.16,-3.05 4.38,-4.83 2.5,-3.66 6.07,-4.15 10,-3.82 0.95,0.08 1.9,0.28 2.81,0.58 1.87,0.62 2.64,1.75 2.69,3.74 0.02,0.77 0,1.54 0,2.23 z m -14.95,12.55 c 0,0 -0.07,-0.01 -0.1,-0.02 0,-0.32 0,-0.64 0,-0.96 -0.01,-0.87 -0.19,-1.71 -1.03,-2.12 -0.84,-0.41 -1.67,-0.09 -2.31,0.48 -1.15,1.02 -2.31,2.03 -3.32,3.19 -1.04,1.19 -0.89,2.45 0.33,3.32 0.82,0.58 1.76,1.08 2.71,1.38 1.58,0.5 2.63,-0.09 3.08,-1.7 0.32,-1.16 0.44,-2.38 0.64,-3.57 z"
     id="path19"
     style="fill:#f5f0e6;fill-opacity:1" />
  <path
     class="cls-1"
     d="m 365.98545,108.81515 c 1.07,-0.15 2.18,-0.16 3.2,-0.47 2.5,-0.77 3.26,-2.84 1.71,-4.93 -1.56,-2.1 -3.24,-4.140002 -5.06,-6.010002 -2.61,-2.68 -5.44,-0.98 -6.38,1.52 -0.29,0.77 -0.37,1.620002 -0.55,2.420002 -0.25,1.07 -0.45,2.21 -1.7,2.57 -1.31,0.38 -2.16,-0.49 -2.96,-1.34 -0.44,-0.46 -0.8,-0.99 -1.22,-1.48 -1.44,-1.710002 -2.89,-3.410002 -4.32,-5.140002 -0.53,-0.64 -1.09,-1.28 -1.46,-2.01 -0.7,-1.35 -0.18,-2.56 1.26,-3.06 0.53,-0.19 1.13,-0.28 1.69,-0.26 2.99,0.11 5.83,-0.54 8.63,-1.51 6.88,-2.39 13.79,-4.71 20.64,-7.18 2.58,-0.93 5.1,-2.07 7.54,-3.3 2.27,-1.15 4.51,-1.38 6.83,-0.4 1.41,0.59 2.82,1.22 4.12,2.02 2.65,1.64 3.52,3.48 1.86,6.63 -1.31,2.49 -2.66,4.96 -4,7.43 -4.23,7.750002 -8.46,15.490002 -12.71,23.230002 -1.33,2.43 -2.43,4.93 -2.77,7.71 -0.05,0.38 -0.15,0.75 -0.25,1.12 -0.74,2.54 -2.64,3.1 -4.64,1.31 -0.76,-0.68 -1.42,-1.47 -2.08,-2.25 -3.05,-3.62 -6.1,-7.24 -9.12,-10.88 -0.65,-0.78 -1.32,-1.59 -1.79,-2.48 -1,-1.88 -0.12,-3.28 2.01,-3.39 0.51,-0.02 1.02,0 1.54,0 0,0.05 0.01,0.09 0.02,0.14 z m 10.7,-11.490002 c 0.53,-0.29 1.13,-0.46 1.49,-0.84 1.35,-1.47 2.37,-3.17 2.91,-5.1 0.36,-1.27 -0.57,-2.4 -1.91,-2.1 -1.84,0.41 -3.67,1.04 -5.38,1.85 -1.28,0.61 -1.47,1.85 -0.66,3.1 0.58,0.89 1.35,1.69 2.12,2.44 0.33,0.32 0.89,0.42 1.43,0.65 z"
     id="path20"
     style="fill:#f5f0e6;fill-opacity:1" />
  <path
     class="cls-1"
     d="m 33.645451,339.09515 c 0.04,-8.03 2.64,-13.33 6.96,-17.82 4.09,-4.25 9.06,-7.16 14.86,-8.3 9.58,-1.89 17.28,1.28 22.9,9.24 1.35,1.91 2.38,4.09 3.35,6.23 0.83,1.84 1.82,3.5 3.23,4.94 2.17,2.22 2.28,3.73 0.19,5.97 -2.36,2.53 -4.89,4.89 -7.35,7.32 -0.23,0.22 -0.5,0.4 -0.77,0.58 -0.79,0.52 -1.63,0.83 -2.51,0.27 -0.92,-0.58 -1.18,-1.5 -0.91,-2.51 0.3,-1.11 0.66,-2.2 1.08,-3.27 0.87,-2.21 1.64,-4.45 1.8,-6.84 0.17,-2.49 -0.21,-4.86 -1.73,-6.93 -2,-2.72 -4.75,-3.89 -8.05,-3.44 -7.05,0.95 -14.74,7.99 -16.56,14.95 -1.8,6.88 2.48,14.17 10.02,15.04 0.7,0.08 1.4,0.15 2.08,0.32 1.64,0.41 1.98,1.67 0.71,2.81 -0.66,0.59 -1.46,1.05 -2.27,1.41 -4.55,2.07 -9.15,1.89 -13.51,-0.37 -8.57,-4.44 -12.86,-11.71 -13.52,-19.6 z"
     id="path21"
     style="fill:#f5f0e6;fill-opacity:1" />
  <path
     class="cls-1"
     d="m 392.83545,147.88515 c -4.6,0.22 -7.75,-0.88 -10.27,-3.61 -1.9,-2.06 -2.19,-4.16 -0.57,-6.44 1.4,-1.98 3,-3.82 4.61,-5.64 6.28,-7.1 12.58,-14.17 18.91,-21.23 1.73,-1.93 3.14,-4.03 4.12,-6.43 0.26,-0.65 0.55,-1.31 0.95,-1.88 1.13,-1.61 2.69,-1.71 4.03,-0.27 0.47,0.51 0.88,1.11 1.2,1.73 2.7,5.16 5.39,10.32 8.06,15.5 0.29,0.56 0.53,1.18 0.64,1.8 0.32,1.78 -0.82,3 -2.64,2.86 -0.63,-0.05 -1.27,-0.16 -1.89,-0.31 -2.24,-0.54 -4.22,0.07 -5.89,1.53 -2.26,1.98 -4.43,4.07 -6.62,6.13 -0.84,0.79 -1.63,1.63 -2.4,2.49 -0.55,0.62 -1.12,1.25 -1.53,1.96 -0.81,1.38 -0.24,2.41 1.38,2.45 0.82,0.02 1.67,-0.08 2.48,-0.26 3.8,-0.87 7.6,-1.75 11.38,-2.69 2.78,-0.69 4.87,-2.22 5.69,-5.13 0.05,-0.18 0.14,-0.36 0.23,-0.53 1.12,-2.27 2.75,-2.43 4.22,-0.39 0.37,0.51 0.65,1.1 0.94,1.67 1.33,2.55 2.66,5.11 3.98,7.67 0.23,0.45 0.45,0.92 0.61,1.4 0.59,1.77 -0.34,3.05 -2.21,3.06 -0.51,0 -1.03,-0.05 -1.52,-0.19 -2.91,-0.84 -5.83,-0.61 -8.75,-0.09 -8.06,1.42 -16.11,2.87 -24.17,4.25 -1.95,0.33 -3.93,0.47 -4.97,0.59 z"
     id="path22"
     style="fill:#f5f0e6;fill-opacity:1" />
  <path
     class="cls-1"
     d="m 226.04545,47.445148 c -2.75,0 -5.51,0.02 -8.26,-0.01 -0.7,0 -1.42,-0.06 -2.08,-0.26 -1.68,-0.53 -2.17,-1.8 -1.27,-3.29 0.43,-0.71 0.99,-1.34 1.55,-1.95 1.25,-1.36 2.13,-2.91 2.33,-4.74 0.25,-2.29 0.49,-4.58 0.54,-6.88 0.06,-2.48 -0.71,-4.83 -1.96,-6.94 -2.79,-4.74 -5.64,-9.45 -8.56,-14.1100001 -0.77,-1.23 -1.93,-2.21 -2.87,-3.35 -0.56,-0.68 -1.17,-1.39 -1.53,-2.18 -0.66,-1.46 0,-2.85999997 1.51,-3.38999997 0.59,-0.21 1.25,-0.29 1.88,-0.32 1.15,-0.05 2.3,-0.01 3.46,-0.01 4.16,0 8.32,-0.02 12.48,0.02 0.82,0 1.68,0.08 2.45,0.35 1.37,0.47 1.92,1.71999997 1.41,3.09999997 -0.29,0.77 -0.73,1.49 -1.13,2.22 -0.86,1.53 -1.15,3.15 -0.52,4.8000001 0.63,1.67 1.26,3.36 2.15,4.89 1.08,1.85 2.61,1.85 3.75,0.08 1.29,-2.01 2.19,-4.23 2.29,-6.6400001 0.04,-1.03 -0.39,-2.11 -0.72,-3.13 -0.19,-0.6 -0.64,-1.11 -0.94,-1.67 -1.15,-2.16 -0.44,-3.63999997 1.99,-3.92999997 1.32,-0.16 2.68,-0.02 4.03,-0.02 1.98,0 3.96,-0.03 5.93,0 0.89,0.01 1.8,0.01 2.66,0.22 1.63,0.41 2.24,1.69999997 1.55,3.24999997 -0.31,0.69 -0.74,1.38 -1.28,1.89 -3.92,3.65 -6.52,8.1900001 -8.94,12.8700001 -1.17,2.27 -2.34,4.55 -3.45,6.86 -1.35,2.81 -1.43,5.8 -1.18,8.83 0.06,0.76 0.21,1.52 0.29,2.28 0.23,2.24 1.04,4.2 2.61,5.84 0.44,0.46 0.87,0.95 1.23,1.48 1.22,1.78 0.53,3.43 -1.62,3.8 -0.75,0.13 -1.53,0.09 -2.3,0.09 -2.5,0 -4.99,0 -7.49,0 0,0 0,-0.02 0,-0.02 z"
     id="path23"
     style="fill:#f5f0e6;fill-opacity:1" />
  <path
     class="cls-1"
     d="m 47.965451,229.32515 c 0,3.01 0,6.01 0,9.02 0,0.44 -0.02,0.91 -0.16,1.32 -0.46,1.42 -1.73,1.98 -3.05,1.27 -0.78,-0.42 -1.48,-1.01 -2.12,-1.63 -1.71,-1.64 -3.8,-2.47 -6.08,-2.48 -6.65,-0.04 -13.31,0.07 -19.96,0.14 -1.28,0.01 -2.56,0.07 -3.83,0.22 -0.81,0.09 -1.66,0.26 -2.39,0.61 -1.7000002,0.82 -2.0300002,2.59 -0.7100002,3.95 0.7000002,0.72 1.5900002,1.28 2.4600002,1.81 1.2,0.74 2.46,1.36 3.68,2.07 0.55,0.32 1.09,0.69 1.54,1.14 0.66,0.65 1.07,1.45 0.75,2.43 -0.33,1 -1.17,1.38 -2.09,1.41 -1.4,0.04 -2.81,-0.03 -4.22,-0.14 -2.1000002,-0.16 -4.1900002,-0.43 -6.2900002,-0.59 -3.38,-0.27 -4.67999995,-1.6 -4.71999995,-5 -0.06,-5.19 -0.04,-10.37 -0.17,-15.56 -0.1,-4.28 -0.37,-8.56 -0.56,-12.84 -0.02,-0.45 -0.06,-0.9 -0.04,-1.34 0.12,-3.11 1.24999995,-4.39 4.32999995,-4.84 2.65,-0.39 5.31,-0.78 7.9700002,-1.11 1.01,-0.12 2.05,-0.18 3.06,-0.09 1.77,0.16 2.5,1.72 1.49,3.2 -0.45,0.66 -1.12,1.23 -1.79,1.69 -1.26,0.87 -2.62,1.61 -3.89,2.47 -0.74,0.5 -1.4700002,1.05 -2.0500002,1.71 -1.28,1.46 -0.93,3.16 0.84,3.9 0.8600002,0.36 1.8600002,0.56 2.7900002,0.55 4.8,-0.04 9.59,-0.14 14.39,-0.29 2.68,-0.08 5.36,-0.29 8.04,-0.45 3,-0.17 5.59,-1.22 7.66,-3.47 0.83,-0.9 1.79,-1.78 3.15,-1.28 1.45,0.54 1.59,1.86 1.59,3.19 0,3.01 0,6.01 0,9.02 0.13,0 0.26,0 0.39,0 z"
     id="path24"
     style="fill:#f5f0e6;fill-opacity:1" />
  <path
     class="cls-1"
     d="m 171.39545,405.46515 c -0.38,-1.59 -0.72,-3.2 -1.14,-4.79 -0.21,-0.8 -0.64,-1.54 -0.82,-2.35 -0.51,-2.28 0.75,-3.63 3.05,-3.32 0.44,0.06 0.88,0.15 1.32,0.24 5.18,1.11 10.37,2.23 15.55,3.36 0.56,0.12 1.13,0.24 1.65,0.47 1.87,0.82 2.22,2.5 0.81,4 -0.47,0.51 -1.05,0.95 -1.65,1.3 -2.69,1.6 -4.3,3.98 -5.01,6.97 -1.06,4.48 -2.05,8.97 -3.04,13.46 -0.48,2.18 -0.92,4.38 -1.32,6.58 -0.15,0.81 -0.21,1.65 -0.19,2.47 0.05,2.21 1.25,3.73 3.37,4.37 2.81,0.84 5.49,0.42 7.88,-1.2 1.3,-0.88 2.39,-2.09 3.56,-3.18 0.88,-0.82 1.64,-1.81 2.62,-2.49 1.22,-0.85 2.42,-0.28 2.7,1.19 0.1,0.54 0.08,1.17 -0.08,1.7 -1.12,3.87 -2.21,7.74 -3.46,11.56 -0.64,1.96 -1.59,2.47 -3.71,2.09 -3.01,-0.54 -5.99,-1.29 -8.99,-1.92 -6.82,-1.42 -13.64,-2.82 -20.45,-4.25 -0.93,-0.2 -1.89,-0.44 -2.72,-0.88 -1.31,-0.7 -1.53,-2.04 -0.68,-3.26 0.29,-0.41 0.65,-0.8 1.05,-1.1 2.47,-1.86 3.92,-4.36 4.62,-7.31 1.19,-5.04 2.37,-10.07 3.48,-15.13 0.61,-2.8 1.06,-5.64 1.6,-8.57 z"
     id="path25"
     style="fill:#f5f0e6;fill-opacity:1" />
  <path
     class="cls-1"
     d="m 226.07545,449.48515 c -4.61,0.11 -9.22,0.24 -13.82,0.33 -0.7,0.02 -1.42,0 -2.1,-0.13 -2.08,-0.41 -2.75,-1.85 -1.75,-3.68 0.24,-0.45 0.54,-0.87 0.87,-1.26 1.69,-1.99 2.48,-4.32 2.53,-6.89 0.12,-5.57 0.2,-11.13 0.24,-16.7 0.01,-2.11 -0.13,-4.22 -0.23,-6.32 -0.13,-2.49 -0.92,-4.75 -2.39,-6.78 -0.41,-0.57 -0.82,-1.15 -1.14,-1.78 -0.99,-1.95 -0.28,-3.4 1.86,-3.81 0.75,-0.14 1.52,-0.22 2.28,-0.22 5.05,-0.03 10.1,-0.04 15.16,-0.04 0.7,0 1.42,-0.01 2.1,0.14 1.81,0.41 2.47,1.88 1.59,3.52 -0.3,0.55 -0.71,1.08 -1.17,1.5 -2.69,2.46 -3.73,5.6 -3.75,9.13 -0.04,5.89 -0.03,11.79 0.01,17.68 0,1.27 0.15,2.56 0.36,3.82 0.44,2.59 2.16,4.05 4.78,4.09 3.14,0.04 5.75,-1.2 7.73,-3.59 0.93,-1.12 1.61,-2.46 2.4,-3.7 0.48,-0.76 0.86,-1.6 1.44,-2.26 1.23,-1.4 2.86,-1.02 3.28,0.8 0.25,1.1 0.27,2.29 0.2,3.43 -0.17,2.81 -0.44,5.61 -0.68,8.41 -0.06,0.63 -0.16,1.27 -0.28,1.89 -0.29,1.42 -1.14,2.28 -2.61,2.38 -1.72,0.11 -3.45,0.19 -5.17,0.2 -3.9,0.03 -7.81,0 -11.72,0 0,-0.05 0,-0.1 0,-0.15 z"
     id="path26"
     style="fill:#f5f0e6;fill-opacity:1" />
  <path
     class="cls-1"
     d="m 276.01545,102.85515 c 0.65,-1.17 1.82,-1.2 2.85,-1.37 4.82,-0.8 9.47,-0.11 13.76,2.2 8.16,4.39 12.5,11.35 12.31,20.58 -0.3,14.96 -13.86,24.26 -26.58,21.79 -0.88,-0.17 -1.77,-0.3 -2.32,-1.25 0.06,-1.01 0.93,-1.43 1.62,-1.95 2.8,-2.1 5.11,-4.63 6.79,-7.72 5.61,-10.32 3,-22.7 -6.29,-29.97 -0.83,-0.65 -1.91,-1.1 -2.14,-2.31 z"
     id="path27"
     style="fill:#f5f0e6;fill-opacity:1" />
  <path
     class="cls-1"
     d="m 252.98545,380.74515 c 1.18,-0.71 2.32,-1.5 3.54,-2.13 5.4,-2.77 10.82,-5.51 16.25,-8.25 14.5,-7.31 29.01,-14.61 43.52,-21.91 0.68,-0.34 1.37,-0.71 2.09,-0.96 1.36,-0.48 1.99,0 2.16,1.47 0.23,1.99 -0.5,3.49 -2.13,4.6 -3.82,2.57 -7.55,5.29 -11.46,7.7 -14.99,9.23 -31.11,15.74 -48.31,19.5 -1.31,0.29 -2.64,0.44 -3.97,0.6 -0.48,0.06 -0.98,-0.05 -1.47,-0.08 -0.07,-0.18 -0.14,-0.36 -0.2,-0.54 z"
     id="path28"
     style="fill:#f5f0e6;fill-opacity:1" />
  <path
     class="cls-1"
     d="m 331.50545,183.39515 c 0.49,-1.23 1.59,-1.54 2.55,-1.99 5.15,-2.42 10.31,-4.81 15.47,-7.2 5.62,-2.61 11.25,-5.21 16.87,-7.82 0.52,-0.24 1.04,-0.5 1.58,-0.7 1.64,-0.62 2.52,-0.45 3.5,0.98 0.97,1.42 1.85,2.92 2.61,4.46 0.86,1.73 0.56,2.54 -1.18,3.38 -2.71,1.3 -5.46,2.5 -8.2,3.72 -5.95,2.66 -11.92,5.28 -17.84,7.99 -1.96,0.9 -3.86,1.12 -5.94,0.48 -2.26,-0.7 -4.56,-1.22 -6.83,-1.87 -0.9,-0.26 -1.9,-0.38 -2.57,-1.43 z"
     id="path29"
     style="fill:#f5f0e6;fill-opacity:1" />
  <path
     class="cls-1"
     d="m 256.51545,245.73515 c -1.39,0.43 -1.64,1.37 -2.03,2.14 -0.71,1.43 -1.28,2.93 -2,4.35 -1.17,2.3 -4.72,3.88 -7.18,3.28 -0.85,-0.21 -1.39,-0.7 -1.31,-1.62 0.12,-1.27 0.31,-2.53 0.47,-3.8 0.48,-3.67 0.98,-7.34 1.44,-11.02 0.25,-2.01 0.69,-2.64 2.72,-3.18 3.36,-0.89 6.53,-2.18 9.46,-4.08 1.87,-1.21 4.02,-1.19 6.13,-1.02 1.33,0.11 1.77,0.69 1.7,2.05 -0.04,0.82 -0.21,1.65 -0.39,2.45 -1.04,4.56 -2.45,9.01 -4.53,13.21 -0.42,0.85 -0.93,1.7 -1.58,2.37 -0.38,0.39 -1.16,0.66 -1.69,0.58 -0.78,-0.12 -0.68,-0.95 -0.68,-1.59 0,-0.77 0.06,-1.54 -0.02,-2.3 -0.07,-0.59 -0.31,-1.15 -0.51,-1.83 z"
     id="path30"
     style="fill:#f5f0e6;fill-opacity:1" />
  <path
     class="cls-1"
     d="m 32.005451,290.10515 c -4.85,0 -9.51,-4.35 -9.67,-9.84 -0.09,-3.24 1.36,-5.81 4.2,-7.49 6.39,-3.78 15.22,-0.11 15.78,8.12 0.21,3.12 -1.18,5.58 -3.73,7.35 -1.78,1.24 -3.76,1.88 -6.58,1.85 z"
     id="path31"
     style="fill:#f5f0e6;fill-opacity:1" />
  <path
     class="cls-1"
     d="m 426.69545,283.82515 c 0.02,4.49 -2.71,8.22 -6.59,9.03 -4.59,0.95 -9.46,-1.45 -11.5,-5.75 -0.92,-1.94 -1.33,-3.95 -0.9,-6.14 1.11,-5.66 5.86,-8.64 11.45,-7.09 4.54,1.26 7.53,5.21 7.54,9.95 z"
     id="path32"
     style="fill:#f5f0e6;fill-opacity:1" />
  <path
     class="cls-1"
     d="m 207.17545,129.70515 c -1.58,0.35 -2.5,-0.34 -3.45,-0.8 -5.11,-2.43 -10.39,-4.32 -15.96,-5.35 -1.25,-0.23 -2.52,-0.39 -3.78,-0.6 -0.5,-0.08 -1.02,-0.15 -1.5,-0.32 -1.08,-0.37 -1.24,-0.92 -0.58,-1.87 0.18,-0.26 0.4,-0.51 0.64,-0.71 4.97,-4.16 9.45,-5.02 15.08,-2.51 4.45,1.98 7.37,5.42 9.15,9.88 0.26,0.67 0.26,1.44 0.4,2.28 z"
     id="path33"
     style="fill:#f5f0e6;fill-opacity:1" />
  <path
     class="cls-1"
     d="m 320.52545,282.27515 c 0,2.56 0.03,5.12 0,7.69 -0.03,1.85 -0.79,2.3 -2.43,1.42 -1.95,-1.05 -3.62,-2.32 -4.27,-4.65 -0.69,-2.46 -2.33,-4.38 -4.02,-6.24 -0.26,-0.28 -0.56,-0.53 -0.79,-0.84 -0.7,-0.94 -0.7,-1.71 0.34,-2.27 3.04,-1.62 6.13,-3.16 9.27,-4.58 1.15,-0.52 1.85,0.15 1.89,1.59 0.05,2.18 0.02,4.36 0.02,6.53 0,0.45 0,0.9 0,1.35 v 0 z"
     id="path34"
     style="fill:#f5f0e6;fill-opacity:1" />
  <path
     class="cls-1"
     d="m 261.14545,353.16515 c -0.68,0.57 -1.18,1.16 -1.81,1.49 -2.6,1.38 -5.23,2.69 -7.86,4.02 -1.38,0.69 -2.71,0.62 -3.98,-0.29 -0.99,-0.71 -2.04,-1.34 -2.97,-2.11 -1.06,-0.89 -1.06,-1.82 0.14,-2.46 2.98,-1.6 6.04,-3.08 9.08,-4.57 0.38,-0.19 0.92,-0.29 1.3,-0.17 2.35,0.72 4.38,1.94 6.11,4.09 z"
     id="path35"
     style="fill:#f5f0e6;fill-opacity:1" />
  <path
     class="cls-1"
     d="m 275.25545,338.54515 c 0.52,0.14 1.05,0.18 1.48,0.43 1.27,0.73 2.55,1.46 3.72,2.33 1.22,0.9 1.22,1.84 -0.06,2.54 -2.97,1.61 -5.98,3.14 -9.03,4.59 -0.63,0.3 -1.64,0.41 -2.2,0.1 -1.55,-0.84 -3,-1.9 -4.41,-2.99 -0.65,-0.5 -0.56,-1.25 0.08,-1.82 0.28,-0.25 0.6,-0.48 0.94,-0.65 2.61,-1.34 5.22,-2.67 7.85,-3.98 0.5,-0.25 1.08,-0.36 1.64,-0.54 z"
     id="path36"
     style="fill:#f5f0e6;fill-opacity:1" />
  <path
     class="cls-1"
     d="m 290.56545,338.35515 c -0.38,-0.09 -0.73,-0.1 -0.98,-0.26 -1.39,-0.9 -2.83,-1.75 -4.11,-2.79 -0.93,-0.75 -0.79,-1.47 0.15,-2.2 0.3,-0.23 0.64,-0.43 0.98,-0.6 2.45,-1.25 4.91,-2.48 7.36,-3.72 1.43,-0.72 2.82,-0.73 4.18,0.17 0.85,0.56 1.76,1.06 2.58,1.66 1.58,1.15 1.54,2.01 -0.19,2.98 -1.95,1.09 -3.96,2.08 -5.96,3.1 -0.91,0.46 -1.84,0.89 -2.78,1.29 -0.4,0.17 -0.85,0.26 -1.23,0.37 z"
     id="path37"
     style="fill:#f5f0e6;fill-opacity:1" />
  <path
     class="cls-1"
     d="m 234.24545,359.40515 c 0.35,0.1 0.75,0.14 1.07,0.33 1.43,0.83 2.9,1.62 4.23,2.6 1.15,0.83 1.13,1.73 -0.1,2.41 -2.73,1.51 -5.52,2.93 -8.36,4.24 -0.66,0.3 -1.71,0.21 -2.39,-0.1 -1.49,-0.7 -2.93,-1.57 -4.27,-2.53 -1.13,-0.81 -1.17,-1.63 -0.02,-2.25 2.97,-1.61 6.03,-3.05 9.06,-4.54 0.22,-0.11 0.5,-0.1 0.78,-0.15 z"
     id="path38"
     style="fill:#f5f0e6;fill-opacity:1" />
  <path
     class="cls-1"
     d="m 316.63545,317.82515 c 1.68,0.19 2.92,1.01 3.64,2.49 0.67,1.4 0.22,2.93 -1.28,3.79 -2.27,1.29 -4.64,2.4 -6.97,3.56 -0.81,0.41 -1.65,0.31 -2.38,-0.15 -1.18,-0.75 -2.37,-1.51 -3.44,-2.4 -1.08,-0.9 -1.06,-1.8 0.13,-2.45 2.97,-1.61 6,-3.09 9.03,-4.59 0.38,-0.19 0.86,-0.17 1.28,-0.24 z"
     id="path39"
     style="fill:#f5f0e6;fill-opacity:1" />
  <path
     class="cls-1"
     d="m 298.17545,318.99515 c -0.51,-0.16 -0.99,-0.21 -1.35,-0.44 -1.19,-0.74 -2.4,-1.47 -3.5,-2.34 -1.07,-0.85 -1.04,-1.83 0.14,-2.46 2.81,-1.51 5.68,-2.91 8.56,-4.28 0.47,-0.22 1.22,-0.31 1.64,-0.09 1.63,0.84 3.24,1.75 4.74,2.82 0.79,0.56 0.65,1.27 -0.13,1.92 -0.34,0.28 -0.74,0.51 -1.13,0.71 -2.28,1.15 -4.56,2.3 -6.86,3.41 -0.68,0.33 -1.43,0.51 -2.11,0.75 z"
     id="path40"
     style="fill:#f5f0e6;fill-opacity:1" />
  <path
     class="cls-1"
     d="m 288.47545,323.46515 c -0.66,0.58 -1.1,1.13 -1.67,1.43 -2.54,1.32 -5.11,2.59 -7.69,3.84 -1.24,0.61 -2.48,0.54 -3.64,-0.22 -0.96,-0.63 -1.93,-1.26 -2.79,-2.01 -0.97,-0.85 -0.95,-1.73 0.14,-2.32 2.8,-1.52 5.66,-2.91 8.52,-4.31 0.38,-0.19 0.9,-0.29 1.3,-0.18 2.27,0.59 4.11,1.86 5.82,3.78 z"
     id="path41"
     style="fill:#f5f0e6;fill-opacity:1" />
  <path
     class="cls-1"
     d="m 267.74545,333.90515 c -0.81,0.63 -1.35,1.18 -2,1.52 -2.27,1.19 -4.59,2.27 -6.85,3.45 -1.66,0.87 -3.18,0.74 -4.65,-0.39 -0.66,-0.51 -1.39,-0.93 -2.02,-1.47 -1.05,-0.91 -1.08,-1.83 0.09,-2.47 2.75,-1.5 5.57,-2.87 8.39,-4.24 0.43,-0.21 1.04,-0.24 1.51,-0.12 2.15,0.54 3.94,1.66 5.54,3.71 z"
     id="path42"
     style="fill:#f5f0e6;fill-opacity:1" />
  <path
     class="cls-1"
     d="m 215.04545,360.30515 c -2.05,-0.37 -3.62,-1.46 -5.08,-2.7 -0.48,-0.41 -0.46,-1.08 0.05,-1.53 0.47,-0.42 1.02,-0.78 1.58,-1.07 2.27,-1.17 4.58,-2.25 6.83,-3.45 1.65,-0.88 3.17,-0.76 4.68,0.27 0.68,0.47 1.41,0.88 2.04,1.41 1.11,0.94 1.05,1.54 -0.14,2.42 -0.15,0.11 -0.31,0.23 -0.48,0.31 -2.57,1.28 -5.13,2.57 -7.72,3.82 -0.56,0.27 -1.2,0.37 -1.76,0.53 z"
     id="path43"
     style="fill:#f5f0e6;fill-opacity:1" />
  <path
     class="cls-1"
     d="m 246.83545,344.29515 c -0.62,0.49 -1.14,1.06 -1.79,1.39 -2.31,1.22 -4.68,2.33 -7,3.55 -1.53,0.81 -2.93,0.68 -4.29,-0.34 -0.71,-0.54 -1.49,-1.01 -2.14,-1.61 -1.04,-0.97 -0.96,-1.62 0.24,-2.45 0.42,-0.29 0.88,-0.52 1.33,-0.75 1.99,-1.01 3.99,-2.01 5.98,-3.03 1.5,-0.76 2.94,-0.72 4.34,0.24 1.14,0.78 2.53,1.26 3.32,3 z"
     id="path44"
     style="fill:#f5f0e6;fill-opacity:1" />
  <path
     class="cls-1"
     d="m 207.95545,343.25515 c 1.86,-0.03 3.02,0.77 4.02,1.78 0.51,0.51 0.48,1.17 -0.1,1.69 -0.23,0.21 -0.5,0.41 -0.78,0.55 -2.8,1.4 -5.58,2.84 -8.42,4.15 -1.83,0.85 -4.09,0.22 -5.4,-1.29 -0.56,-0.65 -0.54,-1.25 0.11,-1.83 0.28,-0.25 0.62,-0.46 0.96,-0.62 2.75,-1.35 5.51,-2.69 8.28,-4.01 0.51,-0.24 1.08,-0.35 1.32,-0.42 z"
     id="path45"
     style="fill:#f5f0e6;fill-opacity:1" />
  <path
     class="cls-1"
     d="m 284.24545,353.85515 c -0.02,1.01 -0.48,2.14 -1.76,2.8 -2.71,1.4 -5.41,2.84 -8.17,4.15 -1.7,0.81 -2.54,0.22 -2.58,-1.64 -0.03,-1.37 0.42,-2.53 1.69,-3.19 2.76,-1.44 5.52,-2.9 8.34,-4.24 1.64,-0.78 2.47,-0.13 2.48,2.12 z"
     id="path46"
     style="fill:#f5f0e6;fill-opacity:1" />
  <path
     class="cls-1"
     d="m 303.61545,343.78515 c 0.13,1.34 -0.49,2.37 -1.75,3.02 -2.66,1.37 -5.3,2.79 -8,4.08 -1.81,0.86 -2.55,0.26 -2.62,-1.77 -0.05,-1.54 0.65,-2.58 1.92,-3.25 2.59,-1.38 5.18,-2.75 7.82,-4.02 1.94,-0.93 2.65,-0.38 2.63,1.95 z"
     id="path47"
     style="fill:#f5f0e6;fill-opacity:1" />
  <path
     class="cls-1"
     d="m 252.23545,369.09515 c 0.08,-1.41 0.56,-2.55 1.83,-3.21 2.72,-1.41 5.43,-2.85 8.2,-4.17 1.59,-0.76 2.45,-0.18 2.51,1.56 0.05,1.38 -0.41,2.54 -1.68,3.21 -2.78,1.45 -5.55,2.91 -8.37,4.25 -1.55,0.73 -2.45,0.04 -2.48,-1.63 z"
     id="path48"
     style="fill:#f5f0e6;fill-opacity:1" />
  <path
     class="cls-1"
     d="m 245.23545,373.69515 c 0.06,1.01 -0.45,2.06 -1.65,2.68 -2.2,1.15 -4.38,2.34 -6.63,3.38 -1.62,0.75 -2.39,0.15 -2.45,-1.62 -0.04,-1.26 0.39,-2.31 1.48,-2.91 2.34,-1.29 4.7,-2.55 7.12,-3.67 1.43,-0.66 2.14,0.03 2.13,2.14 z"
     id="path49"
     style="fill:#f5f0e6;fill-opacity:1" />
  <path
     class="cls-1"
     d="m 320.52545,335.20515 c 0.1,1.27 -0.45,2.31 -1.62,2.94 -1.91,1.02 -3.82,2.03 -5.79,2.93 -1.55,0.71 -2.32,0.23 -2.46,-1.43 -0.12,-1.48 0.26,-2.81 1.67,-3.58 1.79,-0.97 3.59,-1.93 5.42,-2.8 2.02,-0.96 2.8,-0.39 2.77,1.95 z"
     id="path50"
     style="fill:#f5f0e6;fill-opacity:1" />
  <path
     class="cls-1"
     d="m 268.03545,220.98515 c 0.25,-0.9 0.33,-1.53 0.59,-2.08 1.03,-2.2 2.04,-4.41 3.2,-6.54 0.54,-0.99 1.34,-1.86 2.14,-2.66 0.4,-0.4 1.07,-0.52 1.61,-0.75 1.23,2.18 0.38,6.59 -1.76,9.25 -1.37,1.7 -2.94,3.18 -5.78,2.78 z"
     id="path51"
     style="fill:#f5f0e6;fill-opacity:1" />
  <path
     class="cls-1"
     d="m 320.50545,304.50515 c 0,0.7 0.07,1.41 -0.01,2.1 -0.19,1.59 -1.46,2.41 -2.87,1.69 -1.4,-0.72 -2.71,-1.65 -3.93,-2.65 -0.86,-0.7 -0.76,-1.63 0.22,-2.21 1.47,-0.87 3.01,-1.65 4.58,-2.32 1.11,-0.47 1.84,0.07 1.99,1.29 0.08,0.69 0.01,1.4 0.02,2.1 z"
     id="path52"
     style="fill:#f5f0e6;fill-opacity:1" />
  <path
     class="cls-1"
     d="m 266.63545,316.41515 c -0.13,-1.06 0.39,-1.94 1.43,-2.53 1.69,-0.96 3.38,-1.88 5.33,-0.51 1.5,1.06 1.57,1.95 0.02,2.86 -1.31,0.77 -2.7,1.45 -4.09,2.06 -1.85,0.81 -2.65,0.26 -2.68,-1.88 z"
     id="path53"
     style="fill:#f5f0e6;fill-opacity:1" />
</svg>
