<?xml version="1.0" encoding="UTF-8" standalone="no"?>
<svg
   id="Calque_1"
   data-name="Calque 1"
   version="1.1"
   viewBox="0 0 357.87729 346.51389"
   sodipodi:docname="bbchallenge_logo_no_text.svg"
   inkscape:version="1.3.2 (091e20e, 2023-11-25)"
   inkscape:export-filename="bbchallenge_logo_negative_ F5F0E6.png"
   inkscape:export-xdpi="100"
   inkscape:export-ydpi="100"
   width="357.87729"
   height="346.51389"
   xmlns:inkscape="http://www.inkscape.org/namespaces/inkscape"
   xmlns:sodipodi="http://sodipodi.sourceforge.net/DTD/sodipodi-0.dtd"
   xmlns="http://www.w3.org/2000/svg"
   xmlns:svg="http://www.w3.org/2000/svg">
  <sodipodi:namedview
     id="namedview53"
     pagecolor="#121826"
     bordercolor="#000000"
     borderopacity="0.25"
     inkscape:showpageshadow="2"
     inkscape:pageopacity="0.0"
     inkscape:pagecheckerboard="0"
     inkscape:deskcolor="#d1d1d1"
     inkscape:zoom="1.1758689"
     inkscape:cx="188.79656"
     inkscape:cy="189.64699"
     inkscape:window-width="1472"
     inkscape:window-height="823"
     inkscape:window-x="143"
     inkscape:window-y="307"
     inkscape:window-maximized="0"
     inkscape:current-layer="Calque_1"
     inkscape:export-bgcolor="#121826ff" />
  <defs
     id="defs1">
    <style
       id="style1">
      .cls-1 {
        fill: #fff;
        stroke-width: 0px;
      }
    </style>
  </defs>
  <path
     class="cls-1"
     d="m 161.34,192.20548 c 0.47,-0.65 0.95,-1.28 1.4,-1.94 0.56,-0.82 1.68,-1.64 1.04,-2.67 -0.71,-1.16 -1.98,-0.49 -2.97,-0.18 -4.73,1.49 -9.55,2.41 -14.53,2.18 -1.23,-0.06 -2.57,0.08 -3.64,-1.3 0.7,-0.6 1.37,-1.15 2.02,-1.73 1.82,-1.6 3.68,-3.16 5.42,-4.84 0.77,-0.74 1.59,-1.8 0.95,-2.9 -0.69,-1.17 -1.94,-0.63 -2.97,-0.38 -3.62,0.88 -7.28,1.49 -11,1.51 -6.55,0.03 -12.81,-1.39 -18.75,-4.21 -7.6,-3.61 -13.85,-8.91 -19.31,-15.24 -0.87,-1.01 -1.65,-2.14 -3.01,-2.6 -1.12,0.5 -0.93,1.41 -0.74,2.3 0.63,3.04 1.89,5.84 3.28,8.58 3.27,6.46 7.73,12.05 12.72,17.25 1.15,1.2 2.37,2.34 3.52,3.55 0.45,0.48 0.79,1.06 1.29,1.74 -1.39,0.34 -2.33,-0.16 -3.22,-0.57 -3.01,-1.41 -5.98,-2.91 -8.99,-4.34 -0.9,-0.43 -1.83,-0.98 -2.89,-0.42 -0.49,1.02 0.04,1.81 0.64,2.45 1.59,1.66 3.16,3.36 4.92,4.84 2.69,2.26 5.54,4.34 8.3,6.53 0.61,0.48 1.46,0.86 1.39,1.95 -0.88,0.53 -1.79,0.35 -2.61,0.1 -2.82,-0.84 -5.6,-1.76 -8.4,-2.66 -0.85,-0.27 -1.68,-0.66 -2.54,-0.84 -1.08,-0.22 -1.64,0.43 -1.22,1.45 0.36,0.88 0.85,1.74 1.46,2.47 3.15,3.79 6.26,7.62 9.57,11.26 3.96,4.36 8.09,8.57 12.18,12.81 1.11,1.15 2.36,2.17 3.53,3.26 2.1,1.96 4.61,2.93 7.44,3.17 3.12,0.27 6.23,0.67 9.36,0.83 5.75,0.3 11.51,0.58 17.27,0.65 3.45,0.04 6.9,-0.29 10.34,-0.56 4.4,-0.34 8.58,0.5 12.44,2.53 7.99,4.19 15.94,8.46 23.83,12.82 3.46,1.92 6.2,4.73 8.38,8.04 2.19,3.32 2.34,6.96 1.51,10.71 -0.24,1.1 -0.84,2.05 -1.94,2.48 -1.34,0.53 -2.94,0.43 -3.29,-1.7 -0.15,-0.95 -0.24,-1.9 -0.39,-2.85 -0.55,-3.59 -1.96,-6.75 -4.73,-9.19 -0.86,-0.76 -1.75,-1.51 -3.01,-1.34 -0.68,0.67 -0.37,1.33 -0.07,1.97 0.44,0.93 0.93,1.83 1.34,2.77 2.06,4.73 1.24,9.27 -1.01,13.67 -0.36,0.7 -1.06,1.32 -1.76,1.71 -1.47,0.83 -2.88,0.05 -3.05,-1.63 -0.09,-0.95 0,-1.92 -0.03,-2.88 -0.07,-3.61 -1.96,-6.26 -4.59,-8.49 -0.24,-0.2 -0.55,-0.33 -0.85,-0.44 -0.95,-0.34 -1.5,0.06 -1.41,1.09 0.05,0.57 0.22,1.13 0.4,1.68 1.24,3.86 0.84,7.74 -0.1,11.56 -0.28,1.12 -0.94,2.29 -1.75,3.12 -1.85,1.89 -4.19,1.16 -4.73,-1.42 -0.28,-1.37 -0.35,-2.79 -0.4,-4.19 -0.1,-2.74 -1.5,-4.55 -3.92,-5.65 -1.28,-0.58 -2.63,-1.02 -3.88,-1.66 -2.16,-1.11 -4.47,-2.07 -6.34,-3.56 -2.8,-2.24 -5.79,-2.5 -9.05,-1.8 -3.75,0.8 -7.48,1.73 -11.23,2.51 -5.08,1.05 -10.21,1.67 -15.39,2 -6.06,0.38 -12.07,1.19 -18.05,2.33 -2.29,0.44 -4.71,0.34 -7.07,0.28 -1.72,-0.04 -3.13,-0.97 -4.39,-2.15 -2.91,-2.74 -5.32,-5.89 -7.6,-9.14 -2.61,-3.72 -5.11,-7.52 -7.67,-11.28 -0.43,-0.63 -0.85,-1.3 -1.38,-1.84 -1.03,-1.05 -2.14,-0.83 -2.7,0.55 -0.28,0.7 -0.46,1.48 -0.5,2.23 -0.11,1.85 -0.1,3.71 -0.17,5.57 -0.02,0.68 -0.13,1.36 -0.2,2.08 -1.32,0 -1.84,-0.84 -2.39,-1.6 -2.35,-3.24 -4.05,-6.82 -5.38,-10.57 -1,-2.83 -1.8,-5.73 -2.7,-8.6 -0.27,-0.85 -0.49,-1.74 -0.91,-2.52 -0.55,-1.01 -1.48,-1.03 -2.14,-0.07 -0.36,0.51 -0.65,1.13 -0.77,1.74 -0.31,1.56 -0.51,3.15 -0.74,4.73 -0.16,1.11 -0.31,2.23 -0.48,3.48 -1.22,-0.33 -1.46,-1.19 -1.68,-1.92 -0.84,-2.75 -1.73,-5.5 -2.35,-8.3 -1.29,-5.81 -2.09,-11.71 -2.48,-17.65 -0.06,-0.89 -0.16,-1.79 -0.38,-2.66 -0.15,-0.58 -0.53,-1.09 -0.77,-1.57 -1.39,-0.02 -1.92,0.85 -2.26,1.73 -0.71,1.84 -1.49,3.69 -1.89,5.62 -0.78,3.75 -1.31,7.55 -1.95,11.33 -0.17,0.99 -0.11,2.05 -0.94,2.88 -1.08,-0.41 -1.34,-1.4 -1.53,-2.29 -0.66,-2.99 -1.39,-5.99 -1.75,-9.02 -0.83,-7.03 -0.37,-14.05 0.65,-21.04 0.09,-0.63 0.11,-1.29 0.04,-1.92 -0.13,-1.19 -0.99,-1.7 -2.05,-1.14 -0.66,0.35 -1.33,0.86 -1.74,1.47 -1.37,2.07 -2.86,4.12 -3.87,6.37 -1.25,2.79 -2.06,5.77 -3.08,8.66 -0.37,1.05 -0.5,2.22 -1.41,3.19 -1.13,-1.11 -1.03,-2.46 -1.11,-3.66 -0.35,-5.2 0.16,-10.36 0.83,-15.5 1.1,-8.51 2.95,-16.88 4.97,-25.21 0.48,-1.99 0.48,-2.38 0.03,-3.78 -1.17,-0.46 -1.94,0.33 -2.61,1.06 -1.04,1.12 -2.01,2.33 -2.93,3.56 -2.63,3.5 -4.7,7.32 -6.55,11.27 -0.39,0.84 -0.91,1.63 -1.61,2.84 -0.38,-0.84 -0.7,-1.24 -0.73,-1.67 -0.14,-1.72 -0.32,-3.45 -0.25,-5.17 0.39,-8.84 2.17,-17.37 6.01,-25.4 0.33,-0.69 0.68,-1.39 0.89,-2.12 0.17,-0.62 0.15,-1.29 0.21,-1.95 -1.36,-0.3 -2.16,0.34 -2.8,1 -2.13,2.21 -4.16,4.51 -6.23,6.77 -0.67,0.73 -1.35,1.46 -2.09,2.26 -0.99,-1.04 -0.69,-1.99 -0.51,-2.9 0.84,-4.33 2.62,-8.28 4.92,-12.01 3.47,-5.63 7.99,-10.34 13.09,-14.46 8.89,-7.17 18.39,-13.46 28.34,-19.05 3.62,-2.03 7.47,-3.34 11.68,-3.36 0.38,0 0.76,-0.08 1.13,-0.18 1.42,-0.38 1.8,-1.13 1.09,-2.4 -0.53,-0.94 -1.23,-1.79 -1.86,-2.68 -2.35,-3.300004 -4.47,-6.720004 -5.39,-10.740004 -0.88,-3.83 -0.81,-7.62 0.6,-11.33 1.01,-2.67 2.74,-4.74 5.24,-6.17 2.88,-1.64 5.95,-2.72 9.26,-2.87 5.04,-0.22 9.03,1.96 12.22,5.73 2.39,2.82 4,6.08 5.17,9.57 0.24,0.73 0.47,1.48 0.84,2.14 0.65,1.15 1.85,1.21 2.36,0 0.54,-1.26 0.88,-2.69 0.93,-4.06 0.07,-1.91 -0.2,-3.83 -0.36,-5.74 -0.19,-2.15 0.15,-2.83 2.24,-3.3 2.11,-0.47 4.27,-0.86 6.43,-1.03 8.72,-0.67 17.22,0.68 25.55,3.21 9.36,2.85 18.11,7.06 26.46,12.12 11.56,7.02 22.8,14.490004 33.25,23.110004 4.7,3.87 9.25,7.91 13.13,12.64 1.01,1.23 1.96,2.54 2.74,3.93 1.04,1.84 0.5,3.18 -1.57,3.59 -2.12,0.42 -4.31,0.48 -6.47,0.65 -1.84,0.14 -3.72,0.06 -5.53,0.36 -1.02,0.17 -2.07,0.73 -2.88,1.39 -3.26,2.69 -3.31,5.66 -0.09,8.37 1.75,1.48 3.73,2.69 5.62,4.01 1.05,0.73 2.19,1.35 3.16,2.17 1.74,1.48 2.48,3.37 1.86,5.67 -0.13,0.49 -0.22,1.02 -0.46,1.46 -1.71,3.15 -3.36,6.33 -5.21,9.39 -1.37,2.27 -3.55,3.72 -6.08,4.44 -6.68,1.89 -13.17,1.42 -19.3,-2.03 -2.99,-1.68 -5.46,-4.01 -7.63,-6.65 -0.49,-0.59 -0.99,-1.19 -1.58,-1.67 -0.87,-0.69 -1.54,-0.44 -1.82,0.67 -0.13,0.53 -0.11,1.14 0,1.68 1.14,6.12 4.32,10.85 9.64,14.13 1.46,0.9 2.92,1.85 4.23,2.96 1.57,1.33 2.07,3.2 1.9,5.21 -0.18,2.22 -1.32,3.52 -3.52,3.97 -2.68,0.54 -5.23,-0.01 -7.61,-1.27 -1.01,-0.53 -1.92,-1.26 -2.87,-1.92 -0.42,-0.29 -0.79,-0.67 -1.23,-0.92 -1.32,-0.74 -2.23,-0.22 -2.36,1.3 0,0.06 -0.02,0.13 0,0.19 0.62,2.65 -1,3.64 -3.11,4.43 -3.44,1.3 -6.98,2.1 -10.62,2.46 -0.78,0.08 -1.59,-0.16 -2.38,-0.25 -0.08,-0.19 -0.16,-0.39 -0.24,-0.58 z m -21.81,-73.4 c 0.78,1.25 1.71,1.29 2.59,1.39 4.07,0.46 8.09,1.18 11.93,2.64 5.39,2.05 10.15,5.09 14.16,9.27 0.62,0.64 1.25,1.3 1.96,1.82 0.36,0.26 1.05,0.43 1.37,0.25 0.34,-0.18 0.59,-0.84 0.58,-1.29 -0.01,-0.68 -0.17,-1.42 -0.47,-2.03 -0.54,-1.08 -1.06,-2.25 -1.89,-3.09 -1.85,-1.89 -2.02,-3.73 -1.06,-6.22 1.63,-4.22 0.05,-9 -3.46,-11.93 -3.48,-2.9 -8.35,-3.34 -12.38,-1.12 -2.15,1.18 -3.7,2.93 -4.72,5.14 -0.7,1.53 -1.81,2.37 -3.47,2.68 -1.18,0.22 -2.35,0.62 -3.45,1.11 -0.64,0.28 -1.13,0.89 -1.72,1.38 z M 86.48,86.145476 c 0.01,4.5 2.17,10.21 5.2,13.51 0.63,0.690004 1.42,1.320004 2.26,1.730004 1.67,0.81 3.5,-0.2 3.78,-1.990004 0.17,-1.09 -0.3,-2.01 -0.93,-2.84 -0.54,-0.71 -1.23,-1.31 -1.74,-2.05 -0.54,-0.78 -1.11,-1.6 -1.38,-2.49 -0.71,-2.29 1.11,-4.14 3.43,-3.52 0.91,0.24 1.74,0.76 2.62,1.15 1.11,0.49 2.18,1.14 3.33,1.43 1.85,0.46 3.76,0.48 5.15,-1.12 1.36,-1.56 1.07,-3.42 0.23,-5.06 -0.86,-1.69 -1.9,-3.35 -3.15,-4.78 -2.33,-2.67 -5.3,-4.07 -8.97,-3.98 -5.79,0.14 -9.86,4.2 -9.84,10 z"
     id="path1"
     style="fill:#f5f0e6;fill-opacity:1" />
  <path
     class="cls-1"
     d="m 286.07,288.99548 c -0.2,-0.7 -0.49,-1.33 -0.55,-1.98 -0.1,-1.02 -0.07,-2.05 -0.07,-3.07 0,-47.99 0,-95.98 0,-143.97 0,-0.96 -0.01,-1.93 0.07,-2.88 0.13,-1.54 0.83,-2.17 2.27,-1.81 3.04,0.76 6.04,1.64 9.05,2.52 1.24,0.36 1.87,1.29 1.94,2.57 0.04,0.83 0.06,1.66 0.05,2.5 -0.11,13.52 -0.23,27.03 -0.34,40.55 -0.18,23 -0.35,46 -0.54,68.99 -0.06,7.43 -0.24,14.86 -0.19,22.29 0.02,2.84 -0.8,5.08 -2.93,6.96 -2.11,1.87 -4.06,3.91 -6.09,5.86 -0.69,0.66 -1.41,1.28 -2.65,1.46 z"
     id="path2"
     style="fill:#f5f0e6;fill-opacity:1" />
  <path
     class="cls-1"
     d="m 170.77,327.78548 c -0.75,0.06 -1.5,0.23 -2.24,0.17 -15.73,-1.32 -30.88,-5.04 -45.5,-10.95 -5.53,-2.23 -10.91,-4.76 -15.93,-7.99 -1.34,-0.86 -2.64,-1.8 -3.88,-2.81 -2.01,-1.64 -1.89,-2.56 0.47,-3.76 4.05,-2.05 8.13,-4.06 12.2,-6.07 16.74,-8.29 33.48,-16.57 50.22,-24.86 0.63,-0.31 1.25,-0.77 1.91,-0.86 0.91,-0.13 1.94,-0.18 2.79,0.12 1.25,0.44 2.43,1.15 3.56,1.87 1.5,0.95 1.43,1.74 -0.15,2.65 -0.61,0.35 -1.25,0.65 -1.88,0.95 -7.99,3.75 -15.99,7.49 -23.98,11.23 -0.41,0.19 -0.79,0.43 -1.2,0.6 -2.18,0.87 -3.18,2.47 -2.99,4.81 0.16,2.04 -0.77,3.4 -2.55,4.3 -2,1.02 -3.96,2.09 -5.92,3.18 -2.85,1.59 -2.9,2.92 -0.1,4.64 10.03,6.16 20.1,12.28 30.14,18.42 1.36,0.83 2.73,1.68 4.05,2.58 0.48,0.33 0.83,0.84 1.25,1.26 l -0.25,0.52 z"
     id="path11"
     style="fill:#f5f0e6;fill-opacity:1" />
  <path
     class="cls-1"
     d="m 253.72,229.62548 c 0.17,0.61 0.3,1.34 0.57,2.01 0.61,1.47 1.39,2.88 1.94,4.38 1.41,3.84 1.06,7.67 -0.28,11.45 -0.46,1.31 -1.3,2.36 -2.54,3.02 -2,1.07 -3.84,-0.03 -3.81,-2.29 0,-0.63 0.17,-1.26 0.28,-1.89 0.8,-4.85 -1.39,-9.46 -5.58,-11.64 -0.76,-0.4 -1.63,-1.12 -2.47,-0.4 -0.92,0.8 -0.29,1.77 0.11,2.63 0.43,0.93 0.95,1.82 1.36,2.75 1.61,3.75 1.47,7.5 -0.3,11.13 -0.57,1.17 -1.53,2.2 -2.46,3.14 -0.73,0.73 -1.76,1.12 -2.83,0.64 -1.11,-0.5 -1.32,-1.5 -1.19,-2.59 0.12,-1.01 0.23,-2.04 0.48,-3.02 0.59,-2.27 0.01,-4.3 -1.15,-6.23 -1.68,-2.76 -3.82,-5.13 -6.3,-7.18 -1.18,-0.98 -2.41,-1.91 -3.69,-2.75 -1.51,-1 -2.41,-0.94 -3.26,0.01 -0.91,1.03 -1.08,2.82 -0.29,3.93 0.48,0.67 1.11,1.24 1.61,1.9 1.3,1.7 0.82,3.18 -1.22,3.8 -0.42,0.13 -0.88,0.27 -1.31,0.23 -4.05,-0.37 -7.5,-1.98 -9.43,-5.67 -1.66,-3.17 -1.86,-6.72 -1.64,-10.28 0.15,-2.48 1.4,-4.37 3.15,-5.95 3.26,-2.94 7.01,-5.15 11.08,-6.78 2.86,-1.15 5.89,-1.51 8.84,-0.61 8.52,2.59 16.89,5.62 24.21,10.88 1.81,1.3 3.51,2.79 5.1,4.35 2.47,2.42 3.79,5.46 4.04,8.89 0.12,1.67 -0.28,3.32 -1.22,4.75 -0.27,0.42 -0.64,0.82 -1.06,1.08 -1.14,0.71 -2.15,0.32 -2.52,-0.98 -0.19,-0.67 -0.23,-1.38 -0.29,-2.08 -0.25,-3.15 -1.33,-5.99 -3.2,-8.51 -0.6,-0.8 -1.41,-1.48 -2.22,-2.09 -0.66,-0.5 -1.47,-0.83 -2.52,-0.04 z"
     id="path18"
     style="fill:#f5f0e6;fill-opacity:1" />
  <path
     class="cls-1"
     d="m 233.97,46.975476 c 0.65,-1.17 1.82,-1.2 2.85,-1.37 4.82,-0.8 9.47,-0.11 13.76,2.2 8.16,4.39 12.5,11.35 12.31,20.58 -0.3,14.96 -13.86,24.26 -26.58,21.79 -0.88,-0.17 -1.77,-0.3 -2.32,-1.25 0.06,-1.01 0.93,-1.43 1.62,-1.95 2.8,-2.1 5.11,-4.63 6.79,-7.72 5.61,-10.32 3,-22.7 -6.29,-29.97 -0.83,-0.65 -1.91,-1.1 -2.14,-2.31 z"
     id="path27"
     style="fill:#f5f0e6;fill-opacity:1" />
  <path
     class="cls-1"
     d="m 210.94,324.86548 c 1.18,-0.71 2.32,-1.5 3.54,-2.13 5.4,-2.77 10.82,-5.51 16.25,-8.25 14.5,-7.31 29.01,-14.61 43.52,-21.91 0.68,-0.34 1.37,-0.71 2.09,-0.96 1.36,-0.48 1.99,0 2.16,1.47 0.23,1.99 -0.5,3.49 -2.13,4.6 -3.82,2.57 -7.55,5.29 -11.46,7.7 -14.99,9.23 -31.11,15.74 -48.31,19.5 -1.31,0.29 -2.64,0.44 -3.97,0.6 -0.48,0.06 -0.98,-0.05 -1.47,-0.08 -0.07,-0.18 -0.14,-0.36 -0.2,-0.54 z"
     id="path28"
     style="fill:#f5f0e6;fill-opacity:1" />
  <path
     class="cls-1"
     d="m 289.46,127.51548 c 0.49,-1.23 1.59,-1.54 2.55,-1.99 5.15,-2.42 10.31,-4.81 15.47,-7.2 5.62,-2.61 11.25,-5.21 16.87,-7.82 0.52,-0.24 1.04,-0.5 1.58,-0.7 1.64,-0.62 2.52,-0.45 3.5,0.98 0.97,1.42 1.85,2.92 2.61,4.46 0.86,1.73 0.56,2.54 -1.18,3.38 -2.71,1.3 -5.46,2.5 -8.2,3.72 -5.95,2.66 -11.92,5.28 -17.84,7.99 -1.96,0.9 -3.86,1.12 -5.94,0.48 -2.26,-0.7 -4.56,-1.22 -6.83,-1.87 -0.9,-0.26 -1.9,-0.38 -2.57,-1.43 z"
     id="path29"
     style="fill:#f5f0e6;fill-opacity:1" />
  <path
     class="cls-1"
     d="m 214.47,189.85548 c -1.39,0.43 -1.64,1.37 -2.03,2.14 -0.71,1.43 -1.28,2.93 -2,4.35 -1.17,2.3 -4.72,3.88 -7.18,3.28 -0.85,-0.21 -1.39,-0.7 -1.31,-1.62 0.12,-1.27 0.31,-2.53 0.47,-3.8 0.48,-3.67 0.98,-7.34 1.44,-11.02 0.25,-2.01 0.69,-2.64 2.72,-3.18 3.36,-0.89 6.53,-2.18 9.46,-4.08 1.87,-1.21 4.02,-1.19 6.13,-1.02 1.33,0.11 1.77,0.69 1.7,2.05 -0.04,0.82 -0.21,1.65 -0.39,2.45 -1.04,4.56 -2.45,9.01 -4.53,13.21 -0.42,0.85 -0.93,1.7 -1.58,2.37 -0.38,0.39 -1.16,0.66 -1.69,0.58 -0.78,-0.12 -0.68,-0.95 -0.68,-1.59 0,-0.77 0.06,-1.54 -0.02,-2.3 -0.07,-0.59 -0.31,-1.15 -0.51,-1.83 z"
     id="path30"
     style="fill:#f5f0e6;fill-opacity:1" />
  <path
     class="cls-1"
     d="m 165.13,73.825476 c -1.58,0.35 -2.5,-0.34 -3.45,-0.8 -5.11,-2.43 -10.39,-4.32 -15.96,-5.35 -1.25,-0.23 -2.52,-0.39 -3.78,-0.6 -0.5,-0.08 -1.02,-0.15 -1.5,-0.32 -1.08,-0.37 -1.24,-0.92 -0.58,-1.87 0.18,-0.26 0.4,-0.51 0.64,-0.71 4.97,-4.16 9.45,-5.02 15.08,-2.51 4.45,1.98 7.37,5.42 9.15,9.88 0.26,0.67 0.26,1.44 0.4,2.28 z"
     id="path33"
     style="fill:#f5f0e6;fill-opacity:1" />
  <path
     class="cls-1"
     d="m 278.48,226.39548 c 0,2.56 0.03,5.12 0,7.69 -0.03,1.85 -0.79,2.3 -2.43,1.42 -1.95,-1.05 -3.62,-2.32 -4.27,-4.65 -0.69,-2.46 -2.33,-4.38 -4.02,-6.24 -0.26,-0.28 -0.56,-0.53 -0.79,-0.84 -0.7,-0.94 -0.7,-1.71 0.34,-2.27 3.04,-1.62 6.13,-3.16 9.27,-4.58 1.15,-0.52 1.85,0.15 1.89,1.59 0.05,2.18 0.02,4.36 0.02,6.53 0,0.45 0,0.9 0,1.35 v 0 z"
     id="path34"
     style="fill:#f5f0e6;fill-opacity:1" />
  <path
     class="cls-1"
     d="m 219.1,297.28548 c -0.68,0.57 -1.18,1.16 -1.81,1.49 -2.6,1.38 -5.23,2.69 -7.86,4.02 -1.38,0.69 -2.71,0.62 -3.98,-0.29 -0.99,-0.71 -2.04,-1.34 -2.97,-2.11 -1.06,-0.89 -1.06,-1.82 0.14,-2.46 2.98,-1.6 6.04,-3.08 9.08,-4.57 0.38,-0.19 0.92,-0.29 1.3,-0.17 2.35,0.72 4.38,1.94 6.11,4.09 z"
     id="path35"
     style="fill:#f5f0e6;fill-opacity:1" />
  <path
     class="cls-1"
     d="m 233.21,282.66548 c 0.52,0.14 1.05,0.18 1.48,0.43 1.27,0.73 2.55,1.46 3.72,2.33 1.22,0.9 1.22,1.84 -0.06,2.54 -2.97,1.61 -5.98,3.14 -9.03,4.59 -0.63,0.3 -1.64,0.41 -2.2,0.1 -1.55,-0.84 -3,-1.9 -4.41,-2.99 -0.65,-0.5 -0.56,-1.25 0.08,-1.82 0.28,-0.25 0.6,-0.48 0.94,-0.65 2.61,-1.34 5.22,-2.67 7.85,-3.98 0.5,-0.25 1.08,-0.36 1.64,-0.54 z"
     id="path36"
     style="fill:#f5f0e6;fill-opacity:1" />
  <path
     class="cls-1"
     d="m 248.52,282.47548 c -0.38,-0.09 -0.73,-0.1 -0.98,-0.26 -1.39,-0.9 -2.83,-1.75 -4.11,-2.79 -0.93,-0.75 -0.79,-1.47 0.15,-2.2 0.3,-0.23 0.64,-0.43 0.98,-0.6 2.45,-1.25 4.91,-2.48 7.36,-3.72 1.43,-0.72 2.82,-0.73 4.18,0.17 0.85,0.56 1.76,1.06 2.58,1.66 1.58,1.15 1.54,2.01 -0.19,2.98 -1.95,1.09 -3.96,2.08 -5.96,3.1 -0.91,0.46 -1.84,0.89 -2.78,1.29 -0.4,0.17 -0.85,0.26 -1.23,0.37 z"
     id="path37"
     style="fill:#f5f0e6;fill-opacity:1" />
  <path
     class="cls-1"
     d="m 192.2,303.52548 c 0.35,0.1 0.75,0.14 1.07,0.33 1.43,0.83 2.9,1.62 4.23,2.6 1.15,0.83 1.13,1.73 -0.1,2.41 -2.73,1.51 -5.52,2.93 -8.36,4.24 -0.66,0.3 -1.71,0.21 -2.39,-0.1 -1.49,-0.7 -2.93,-1.57 -4.27,-2.53 -1.13,-0.81 -1.17,-1.63 -0.02,-2.25 2.97,-1.61 6.03,-3.05 9.06,-4.54 0.22,-0.11 0.5,-0.1 0.78,-0.15 z"
     id="path38"
     style="fill:#f5f0e6;fill-opacity:1" />
  <path
     class="cls-1"
     d="m 274.59,261.94548 c 1.68,0.19 2.92,1.01 3.64,2.49 0.67,1.4 0.22,2.93 -1.28,3.79 -2.27,1.29 -4.64,2.4 -6.97,3.56 -0.81,0.41 -1.65,0.31 -2.38,-0.15 -1.18,-0.75 -2.37,-1.51 -3.44,-2.4 -1.08,-0.9 -1.06,-1.8 0.13,-2.45 2.97,-1.61 6,-3.09 9.03,-4.59 0.38,-0.19 0.86,-0.17 1.28,-0.24 z"
     id="path39"
     style="fill:#f5f0e6;fill-opacity:1" />
  <path
     class="cls-1"
     d="m 256.13,263.11548 c -0.51,-0.16 -0.99,-0.21 -1.35,-0.44 -1.19,-0.74 -2.4,-1.47 -3.5,-2.34 -1.07,-0.85 -1.04,-1.83 0.14,-2.46 2.81,-1.51 5.68,-2.91 8.56,-4.28 0.47,-0.22 1.22,-0.31 1.64,-0.09 1.63,0.84 3.24,1.75 4.74,2.82 0.79,0.56 0.65,1.27 -0.13,1.92 -0.34,0.28 -0.74,0.51 -1.13,0.71 -2.28,1.15 -4.56,2.3 -6.86,3.41 -0.68,0.33 -1.43,0.51 -2.11,0.75 z"
     id="path40"
     style="fill:#f5f0e6;fill-opacity:1" />
  <path
     class="cls-1"
     d="m 246.43,267.58548 c -0.66,0.58 -1.1,1.13 -1.67,1.43 -2.54,1.32 -5.11,2.59 -7.69,3.84 -1.24,0.61 -2.48,0.54 -3.64,-0.22 -0.96,-0.63 -1.93,-1.26 -2.79,-2.01 -0.97,-0.85 -0.95,-1.73 0.14,-2.32 2.8,-1.52 5.66,-2.91 8.52,-4.31 0.38,-0.19 0.9,-0.29 1.3,-0.18 2.27,0.59 4.11,1.86 5.82,3.78 z"
     id="path41"
     style="fill:#f5f0e6;fill-opacity:1" />
  <path
     class="cls-1"
     d="m 225.7,278.02548 c -0.81,0.63 -1.35,1.18 -2,1.52 -2.27,1.19 -4.59,2.27 -6.85,3.45 -1.66,0.87 -3.18,0.74 -4.65,-0.39 -0.66,-0.51 -1.39,-0.93 -2.02,-1.47 -1.05,-0.91 -1.08,-1.83 0.09,-2.47 2.75,-1.5 5.57,-2.87 8.39,-4.24 0.43,-0.21 1.04,-0.24 1.51,-0.12 2.15,0.54 3.94,1.66 5.54,3.71 z"
     id="path42"
     style="fill:#f5f0e6;fill-opacity:1" />
  <path
     class="cls-1"
     d="m 173,304.42548 c -2.05,-0.37 -3.62,-1.46 -5.08,-2.7 -0.48,-0.41 -0.46,-1.08 0.05,-1.53 0.47,-0.42 1.02,-0.78 1.58,-1.07 2.27,-1.17 4.58,-2.25 6.83,-3.45 1.65,-0.88 3.17,-0.76 4.68,0.27 0.68,0.47 1.41,0.88 2.04,1.41 1.11,0.94 1.05,1.54 -0.14,2.42 -0.15,0.11 -0.31,0.23 -0.48,0.31 -2.57,1.28 -5.13,2.57 -7.72,3.82 -0.56,0.27 -1.2,0.37 -1.76,0.53 z"
     id="path43"
     style="fill:#f5f0e6;fill-opacity:1" />
  <path
     class="cls-1"
     d="m 204.79,288.41548 c -0.62,0.49 -1.14,1.06 -1.79,1.39 -2.31,1.22 -4.68,2.33 -7,3.55 -1.53,0.81 -2.93,0.68 -4.29,-0.34 -0.71,-0.54 -1.49,-1.01 -2.14,-1.61 -1.04,-0.97 -0.96,-1.62 0.24,-2.45 0.42,-0.29 0.88,-0.52 1.33,-0.75 1.99,-1.01 3.99,-2.01 5.98,-3.03 1.5,-0.76 2.94,-0.72 4.34,0.24 1.14,0.78 2.53,1.26 3.32,3 z"
     id="path44"
     style="fill:#f5f0e6;fill-opacity:1" />
  <path
     class="cls-1"
     d="m 165.91,287.37548 c 1.86,-0.03 3.02,0.77 4.02,1.78 0.51,0.51 0.48,1.17 -0.1,1.69 -0.23,0.21 -0.5,0.41 -0.78,0.55 -2.8,1.4 -5.58,2.84 -8.42,4.15 -1.83,0.85 -4.09,0.22 -5.4,-1.29 -0.56,-0.65 -0.54,-1.25 0.11,-1.83 0.28,-0.25 0.62,-0.46 0.96,-0.62 2.75,-1.35 5.51,-2.69 8.28,-4.01 0.51,-0.24 1.08,-0.35 1.32,-0.42 z"
     id="path45"
     style="fill:#f5f0e6;fill-opacity:1" />
  <path
     class="cls-1"
     d="m 242.2,297.97548 c -0.02,1.01 -0.48,2.14 -1.76,2.8 -2.71,1.4 -5.41,2.84 -8.17,4.15 -1.7,0.81 -2.54,0.22 -2.58,-1.64 -0.03,-1.37 0.42,-2.53 1.69,-3.19 2.76,-1.44 5.52,-2.9 8.34,-4.24 1.64,-0.78 2.47,-0.13 2.48,2.12 z"
     id="path46"
     style="fill:#f5f0e6;fill-opacity:1" />
  <path
     class="cls-1"
     d="m 261.57,287.90548 c 0.13,1.34 -0.49,2.37 -1.75,3.02 -2.66,1.37 -5.3,2.79 -8,4.08 -1.81,0.86 -2.55,0.26 -2.62,-1.77 -0.05,-1.54 0.65,-2.58 1.92,-3.25 2.59,-1.38 5.18,-2.75 7.82,-4.02 1.94,-0.93 2.65,-0.38 2.63,1.95 z"
     id="path47"
     style="fill:#f5f0e6;fill-opacity:1" />
  <path
     class="cls-1"
     d="m 210.19,313.21548 c 0.08,-1.41 0.56,-2.55 1.83,-3.21 2.72,-1.41 5.43,-2.85 8.2,-4.17 1.59,-0.76 2.45,-0.18 2.51,1.56 0.05,1.38 -0.41,2.54 -1.68,3.21 -2.78,1.45 -5.55,2.91 -8.37,4.25 -1.55,0.73 -2.45,0.04 -2.48,-1.63 z"
     id="path48"
     style="fill:#f5f0e6;fill-opacity:1" />
  <path
     class="cls-1"
     d="m 203.19,317.81548 c 0.06,1.01 -0.45,2.06 -1.65,2.68 -2.2,1.15 -4.38,2.34 -6.63,3.38 -1.62,0.75 -2.39,0.15 -2.45,-1.62 -0.04,-1.26 0.39,-2.31 1.48,-2.91 2.34,-1.29 4.7,-2.55 7.12,-3.67 1.43,-0.66 2.14,0.03 2.13,2.14 z"
     id="path49"
     style="fill:#f5f0e6;fill-opacity:1" />
  <path
     class="cls-1"
     d="m 278.48,279.32548 c 0.1,1.27 -0.45,2.31 -1.62,2.94 -1.91,1.02 -3.82,2.03 -5.79,2.93 -1.55,0.71 -2.32,0.23 -2.46,-1.43 -0.12,-1.48 0.26,-2.81 1.67,-3.58 1.79,-0.97 3.59,-1.93 5.42,-2.8 2.02,-0.96 2.8,-0.39 2.77,1.95 z"
     id="path50"
     style="fill:#f5f0e6;fill-opacity:1" />
  <path
     class="cls-1"
     d="m 225.99,165.10548 c 0.25,-0.9 0.33,-1.53 0.59,-2.08 1.03,-2.2 2.04,-4.41 3.2,-6.54 0.54,-0.99 1.34,-1.86 2.14,-2.66 0.4,-0.4 1.07,-0.52 1.61,-0.75 1.23,2.18 0.38,6.59 -1.76,9.25 -1.37,1.7 -2.94,3.18 -5.78,2.78 z"
     id="path51"
     style="fill:#f5f0e6;fill-opacity:1" />
  <path
     class="cls-1"
     d="m 278.46,248.62548 c 0,0.7 0.07,1.41 -0.01,2.1 -0.19,1.59 -1.46,2.41 -2.87,1.69 -1.4,-0.72 -2.71,-1.65 -3.93,-2.65 -0.86,-0.7 -0.76,-1.63 0.22,-2.21 1.47,-0.87 3.01,-1.65 4.58,-2.32 1.11,-0.47 1.84,0.07 1.99,1.29 0.08,0.69 0.01,1.4 0.02,2.1 z"
     id="path52"
     style="fill:#f5f0e6;fill-opacity:1" />
  <path
     class="cls-1"
     d="m 224.59,260.53548 c -0.13,-1.06 0.39,-1.94 1.43,-2.53 1.69,-0.96 3.38,-1.88 5.33,-0.51 1.5,1.06 1.57,1.95 0.02,2.86 -1.31,0.77 -2.7,1.45 -4.09,2.06 -1.85,0.81 -2.65,0.26 -2.68,-1.88 z"
     id="path53"
     style="fill:#f5f0e6;fill-opacity:1" />
</svg>
