<?xml version="1.0" encoding="UTF-8" standalone="no"?>
<svg
   id="Calque_1"
   data-name="Calque 1"
   version="1.1"
   viewBox="0 0 511.67002 79.635118"
   sodipodi:docname="bbchallenge-forum-logo_with_website.svg"
   width="511.67001"
   height="79.635117"
   inkscape:version="1.3.2 (091e20e, 2023-11-25)"
   inkscape:export-filename="bbchallenge-forum-logo-dark_with_website.png"
   inkscape:export-xdpi="150"
   inkscape:export-ydpi="150"
   xmlns:inkscape="http://www.inkscape.org/namespaces/inkscape"
   xmlns:sodipodi="http://sodipodi.sourceforge.net/DTD/sodipodi-0.dtd"
   xmlns="http://www.w3.org/2000/svg"
   xmlns:svg="http://www.w3.org/2000/svg">
  <sodipodi:namedview
     id="namedview22"
     pagecolor="#ffffff"
     bordercolor="#000000"
     borderopacity="0.25"
     inkscape:showpageshadow="2"
     inkscape:pageopacity="0.0"
     inkscape:pagecheckerboard="0"
     inkscape:deskcolor="#d1d1d1"
     inkscape:zoom="0.8325543"
     inkscape:cx="281.06275"
     inkscape:cy="10.209544"
     inkscape:window-width="1840"
     inkscape:window-height="712"
     inkscape:window-x="478"
     inkscape:window-y="191"
     inkscape:window-maximized="0"
     inkscape:current-layer="Calque_1" />
  <defs
     id="defs1">
    <style
       id="style1">
      .cls-1 {
        fill: #000000;
        stroke-width: 0px;
      }
    </style>
  </defs>
  <path
     class="cls-1"
     d="m 21.1,2.12 c 1.59,0 2.29,0.45 2.43,2.61 0.25,3.1 0.65,4.63 0.65,6.25 0,1.06 -0.65,1.41 -1.27,1.41 -0.86,0 -1.35,-0.73 -1.84,-1.61 C 19.42,7.53 19.01,6.51 17.4,6.51 16.79,6.51 16.42,6.8 16.22,7.37 16,7.94 15.89,8.7 15.89,12.21 v 3.12 c 0,4.72 0.1,7.96 0.31,9.29 0.39,2.65 2.72,2.65 2.72,4.23 0,0.69 -0.61,1.29 -1.76,1.29 -1.45,0 -3.53,-0.12 -5.02,-0.12 -1.57,0 -3.65,0.12 -5.08,0.12 -1.2,0 -1.78,-0.59 -1.78,-1.29 0,-1.57 2.37,-1.59 2.78,-4.23 C 8.22,23.33 8.3,19.7 8.3,15.33 V 12.21 C 8.3,8.7 8.2,7.94 7.99,7.37 7.77,6.8 7.4,6.51 6.81,6.51 5.2,6.51 4.77,7.53 3.11,10.78 2.62,11.66 2.13,12.39 1.27,12.39 0.66,12.39 0,12.04 0,10.98 0,9.37 0.41,7.84 0.65,4.73 0.79,2.57 1.49,2.12 3.08,2.12 c 2.96,0 5.33,0.12 9,0.12 3.67,0 6.04,-0.12 9,-0.12 z"
     id="path1" />
  <path
     class="cls-1"
     d="M 27.22,6.96 C 27.22,5.86 26.44,5.27 25.93,4.98 25.48,4.69 25.07,4.41 25.07,3.8 25.07,2.72 26.56,2.49 28.4,1.74 30.46,0.92 31.91,0 32.91,0 c 0.84,0 1.45,0.43 1.45,1.43 0,1.27 -0.47,4.37 -0.47,9.45 0,0.71 0.16,0.86 0.33,0.86 0.49,0 2.8,-2.96 6.64,-2.96 4.68,0 6.53,2.9 6.53,7.45 0,3.02 -0.55,6.57 -0.55,8.08 0,1.02 0.33,2.06 1,2.65 0.78,0.65 1.41,0.82 1.41,1.8 0,0.82 -0.57,1.37 -1.86,1.37 -1.29,0 -2.41,-0.12 -3.57,-0.12 -1.51,0 -2.08,0.12 -3.63,0.12 -0.98,0 -1.33,-0.59 -1.33,-1.29 0,-0.96 0.35,-1.76 0.53,-2.27 0.41,-1.16 0.82,-4.86 0.82,-8.08 0,-3.47 -1.02,-5 -3.06,-5 -1.2,0 -2.96,1.04 -2.96,3.41 v 6.76 c 0,1.8 0.1,2.47 0.71,3.19 0.61,0.71 1.33,0.88 1.33,1.92 0,0.82 -0.45,1.37 -1.74,1.37 -1.29,0 -2.53,-0.12 -3.7,-0.12 -1.51,0 -2.69,0.12 -4.47,0.12 -1.02,0 -1.41,-0.59 -1.41,-1.29 0,-1 0.82,-1.55 1.2,-1.98 1,-1.27 1.1,-2.47 1.1,-3.53 V 6.97 Z"
     id="path2" />
  <path
     class="cls-1"
     d="m 58.47,20.96 c -0.39,0.02 -0.55,0.1 -0.55,0.39 0,1.31 1.35,3.49 4.65,3.49 2.69,0 4.27,-1.25 5.31,-2.2 0.29,-0.22 0.61,-0.39 0.86,-0.39 0.43,0 0.69,0.41 0.69,1.29 0,2.88 -3.35,6.94 -9.15,6.94 -6.49,0 -10.35,-4.31 -10.35,-10.39 0,-6.08 4.35,-11.31 10.96,-11.31 6,0 8.17,4.53 8.17,7.35 0,1.51 -0.8,2.39 -1.94,2.98 -2.29,1.18 -6.59,1.69 -8.66,1.86 z m 1.71,-8.62 c -1.98,0 -3.23,2.04 -3.23,4.1 0,0.88 0.29,1.39 0.9,1.39 1.04,0 3.43,-0.59 4.35,-1.71 0.27,-0.33 0.39,-0.67 0.39,-1.14 0,-1.49 -0.98,-2.63 -2.41,-2.63 z"
     id="path3" />
  <path
     class="cls-1"
     d="m 81.71,28.84 c 0,-1.53 1.96,-1.53 2.35,-4.14 0.2,-1.35 0.29,-4.33 0.29,-9.37 0,-3.88 -0.04,-5.61 -0.1,-6.57 C 83.92,5.11 81.9,5.27 81.9,3.51 c 0,-0.8 0.43,-1.39 1.59,-1.39 2.1,0 4.31,0.12 6.43,0.12 2.12,0 4.19,-0.12 6.33,-0.12 4.33,0 8.9,1.63 8.9,6.59 0,2.78 -2,5 -3.8,5.8 -0.08,0.04 -0.2,0.12 -0.2,0.25 0,0.13 0.12,0.16 0.2,0.2 3.12,1.02 5.61,3.51 5.61,6.86 0,7.15 -5.98,8.31 -11.05,8.31 -2.12,0 -5.04,-0.12 -7.21,-0.12 -1.84,0 -3.39,0.12 -5.23,0.12 -1.18,0 -1.78,-0.53 -1.78,-1.29 z M 91.94,12 c 0,0.82 0.33,0.92 1.31,0.92 0.98,0 2.12,-0.2 2.82,-0.63 0.9,-0.53 1.43,-1.53 1.43,-2.84 0,-2.41 -1.9,-3.35 -4.08,-3.35 -1.04,0 -1.47,0.27 -1.47,0.98 V 12 Z m 3.75,5.22 c -0.8,-0.33 -2.1,-0.47 -3.02,-0.47 -0.59,0 -0.73,0.37 -0.73,2.35 v 4.53 c 0,1.96 0.35,2.27 2.39,2.27 2.9,0 4.14,-1.53 4.14,-4.29 0,-2.25 -1.14,-3.72 -2.78,-4.39 z"
     id="path4" />
  <path
     class="cls-1"
     d="m 129.74,23.63 c 0,0.74 0.35,1.63 1.27,1.63 0.35,0 0.59,-0.12 0.88,-0.12 0.27,0 0.45,0.41 0.45,0.88 0,2.53 -2.14,4.37 -4.84,4.37 -2.43,0 -3.57,-1.12 -4.21,-2.25 -0.1,-0.21 -0.25,-0.47 -0.55,-0.47 -0.12,0 -0.33,0.18 -0.63,0.45 -0.86,0.73 -2.61,2.29 -5.59,2.29 -5.02,0 -6.74,-3.14 -6.74,-7.37 0,-2.8 0.49,-6.51 0.49,-7.57 0,-1.14 -0.31,-1.8 -0.94,-2.41 -0.71,-0.67 -1.47,-0.84 -1.47,-1.86 0,-0.84 0.61,-1.27 1.88,-1.39 4.12,-0.43 5.39,-0.96 6.39,-0.96 1.18,0 1.47,0.84 1.47,1.57 0,2.84 -0.65,4.98 -0.65,10.29 0,3.23 0.8,5 3.02,5 1.35,0 2.84,-0.88 2.84,-3.8 V 16.4 c 0,-1.82 -0.14,-2.51 -0.84,-3.27 -0.59,-0.71 -1.29,-0.9 -1.29,-1.94 0,-0.84 0.55,-1.25 1.8,-1.39 3.41,-0.37 5.63,-0.96 6.39,-0.96 1.1,0 1.35,0.82 1.35,1.55 0,1.47 -0.47,2.47 -0.47,5.94 v 7.29 z"
     id="path5" />
  <path
     class="cls-1"
     d="m 148.91,10.2 c 1.04,1.04 1.29,2.35 1.29,4 0,1.14 -0.65,1.8 -1.45,1.8 -0.69,0 -1.29,-0.59 -1.92,-1.29 -1.06,-1.1 -2.37,-2.61 -4.51,-2.61 -1.35,0 -2,0.74 -2,1.63 0,1.39 1.43,1.69 4.45,2.82 3.12,1.14 6.35,2.69 6.35,7.17 0,4.02 -3.53,6.88 -8.98,6.88 -2.14,0 -5.55,-0.57 -7.1,-2.04 -0.71,-0.63 -1.27,-2.21 -1.27,-4.23 0,-1.08 0.51,-1.82 1.51,-1.82 0.47,0 0.92,0.41 1.39,0.9 1.14,1.22 2.63,3.23 5.33,3.23 1.27,0 1.94,-0.69 1.94,-1.69 0,-1.59 -2.33,-1.94 -5.04,-3.33 -2.25,-1.14 -4.7,-2.43 -4.7,-6.19 0,-4 3.84,-6.74 8.45,-6.74 2.14,0 5.19,0.39 6.27,1.51 z"
     id="path6" />
  <path
     class="cls-1"
     d="m 168.05,24.21 c -3.29,7.88 -5.72,14.78 -10.98,14.78 -2.45,0 -4.31,-1.61 -4.31,-4.06 0,-2.14 1.39,-3.76 3.1,-3.76 0.84,0 1.39,0.41 1.82,0.88 0.63,0.67 1.06,1.45 1.78,1.45 0.63,0 1.55,-1 1.55,-1.98 0,-1.39 -2.37,-6.17 -3.59,-9.15 -0.92,-2.21 -3.59,-8.53 -4.76,-9.74 -0.65,-0.71 -1.23,-1.29 -1.23,-2.21 0,-0.82 0.51,-1.37 1.53,-1.37 1.31,0 2.29,0.12 3.63,0.12 1.34,0 2.72,-0.12 4.1,-0.12 1.02,0 1.59,0.31 1.59,1.57 0,0.8 -1.06,1.37 -1.06,2.57 0,0.74 0.45,2.06 1.51,4.55 0.94,2.23 1.65,4.08 1.96,4.08 0.49,0 1.31,-2.82 2.08,-5.33 0.49,-1.45 0.59,-2.08 0.59,-2.49 0,-1.9 -1.59,-2.45 -1.59,-3.63 0,-0.84 0.59,-1.33 1.35,-1.33 1.02,0 2.35,0.12 3.29,0.12 1.04,0 1.78,-0.12 2.49,-0.12 1.06,0 1.35,0.55 1.35,1.23 0,1.61 -1.41,1.29 -2.74,4.88 -1.1,2.98 -2.55,6.94 -3.47,9.04 z"
     id="path7" />
  <path
     class="cls-1"
     d="m 185.7,28.84 c 0,-1.53 1.96,-1.53 2.35,-4.14 0.2,-1.35 0.29,-4.33 0.29,-9.37 0,-3.88 -0.04,-5.61 -0.1,-6.57 -0.33,-3.65 -2.35,-3.49 -2.35,-5.25 0,-0.8 0.43,-1.39 1.59,-1.39 2.1,0 4.31,0.12 6.43,0.12 2.12,0 4.19,-0.12 6.33,-0.12 4.33,0 8.9,1.63 8.9,6.59 0,2.78 -2,5 -3.8,5.8 -0.08,0.04 -0.2,0.12 -0.2,0.25 0,0.13 0.12,0.16 0.2,0.2 3.12,1.02 5.61,3.51 5.61,6.86 0,7.15 -5.98,8.31 -11.05,8.31 -2.12,0 -5.04,-0.12 -7.21,-0.12 -1.84,0 -3.39,0.12 -5.23,0.12 -1.18,0 -1.78,-0.53 -1.78,-1.29 z M 195.93,12 c 0,0.82 0.33,0.92 1.31,0.92 0.98,0 2.12,-0.2 2.82,-0.63 0.9,-0.53 1.43,-1.53 1.43,-2.84 0,-2.41 -1.9,-3.35 -4.08,-3.35 -1.04,0 -1.47,0.27 -1.47,0.98 V 12 Z m 3.76,5.22 c -0.8,-0.33 -2.1,-0.47 -3.02,-0.47 -0.59,0 -0.73,0.37 -0.73,2.35 v 4.53 c 0,1.96 0.35,2.27 2.39,2.27 2.9,0 4.14,-1.53 4.14,-4.29 0,-2.25 -1.14,-3.72 -2.78,-4.39 z"
     id="path8" />
  <path
     class="cls-1"
     d="m 220.93,20.96 c -0.39,0.02 -0.55,0.1 -0.55,0.39 0,1.31 1.35,3.49 4.65,3.49 2.7,0 4.27,-1.25 5.31,-2.2 0.29,-0.22 0.61,-0.39 0.86,-0.39 0.43,0 0.69,0.41 0.69,1.29 0,2.88 -3.35,6.94 -9.15,6.94 -6.49,0 -10.35,-4.31 -10.35,-10.39 0,-6.08 4.35,-11.31 10.96,-11.31 6,0 8.17,4.53 8.17,7.35 0,1.51 -0.8,2.39 -1.94,2.98 -2.29,1.18 -6.59,1.69 -8.66,1.86 z m 1.71,-8.62 c -1.98,0 -3.23,2.04 -3.23,4.1 0,0.88 0.29,1.39 0.9,1.39 1.04,0 3.43,-0.59 4.35,-1.71 0.27,-0.33 0.39,-0.67 0.39,-1.14 0,-1.49 -0.98,-2.63 -2.41,-2.63 z"
     id="path9" />
  <path
     class="cls-1"
     d="m 244.49,17.2 c 0.29,-0.22 0.55,-0.71 0.55,-2.14 0,-1.86 -0.84,-3.21 -2.45,-3.21 -1.39,0 -2.31,1.2 -2.92,3.27 -0.37,1.2 -0.9,2.14 -2.45,2.14 -1.67,0 -3.08,-1.14 -3.08,-3.31 0,-2.55 3.02,-5.23 8.47,-5.23 4.92,0 9.45,2.06 9.45,8.15 0,2.55 -0.2,4.49 -0.2,6.76 0,0.74 0.22,1.63 1.16,1.63 0.35,0 0.57,-0.12 0.88,-0.12 0.27,0 0.45,0.41 0.45,0.88 0,2.53 -2.16,4.37 -4.84,4.37 -2.08,0 -3.23,-0.71 -3.92,-1.92 -0.1,-0.16 -0.22,-0.37 -0.39,-0.37 -0.18,0 -0.35,0.18 -0.51,0.35 -1.22,1.14 -3.33,2.04 -5.33,2.04 -3.43,0 -6.08,-1.74 -6.08,-5.17 0,-3.23 2.18,-5.21 5.72,-6.51 2.45,-0.88 4.86,-1.12 5.49,-1.61 z m 0.27,3.45 c -0.69,0 -1.43,0.16 -2.16,0.49 -1.33,0.55 -2.33,1.61 -2.33,2.9 0,1.04 0.67,1.9 1.92,1.9 2.02,0 2.92,-1.69 2.92,-3.57 0,-1.45 -0.14,-1.71 -0.35,-1.71 z"
     id="path10" />
  <path
     class="cls-1"
     d="m 269.79,23.7 c -0.82,2.1 -1.2,3.55 -2.41,5.06 -0.71,0.94 -2.57,1.59 -3.8,1.59 -1.53,0 -1.76,-0.71 -2.49,-2.63 -0.33,-0.86 -1.98,-4.68 -3.39,-8.25 -0.9,-2.23 -2.29,-5.66 -3.45,-6.84 -0.63,-0.71 -1.23,-1.29 -1.23,-2.21 0,-0.82 0.53,-1.37 1.53,-1.37 1.31,0 2.27,0.12 3.61,0.12 1.34,0 2.74,-0.12 4.1,-0.12 1.02,0 1.59,0.31 1.59,1.57 0,0.8 -1.04,1.37 -1.04,2.57 0,0.74 0.43,2.06 1.45,4.55 0.94,2.23 1.61,4.08 1.96,4.08 0.51,0 1.37,-3.02 2.08,-5.53 0.43,-1.37 0.51,-1.94 0.51,-2.29 0,-1.9 -1.57,-2.45 -1.57,-3.63 0,-0.84 0.59,-1.33 1.35,-1.33 0.98,0 2.33,0.12 3.25,0.12 1.04,0 1.78,-0.12 2.49,-0.12 1.04,0 1.33,0.55 1.33,1.23 0,1.61 -1.41,1.29 -2.71,4.88 -1.1,2.98 -2.76,7.47 -3.17,8.53 z"
     id="path11" />
  <path
     class="cls-1"
     d="m 283.46,20.96 c -0.39,0.02 -0.55,0.1 -0.55,0.39 0,1.31 1.35,3.49 4.66,3.49 2.7,0 4.27,-1.25 5.31,-2.2 0.29,-0.22 0.61,-0.39 0.86,-0.39 0.43,0 0.69,0.41 0.69,1.29 0,2.88 -3.35,6.94 -9.15,6.94 -6.49,0 -10.35,-4.31 -10.35,-10.39 0,-6.08 4.35,-11.31 10.96,-11.31 6,0 8.17,4.53 8.17,7.35 0,1.51 -0.8,2.39 -1.94,2.98 -2.29,1.18 -6.59,1.69 -8.66,1.86 z m 1.71,-8.62 c -1.98,0 -3.23,2.04 -3.23,4.1 0,0.88 0.29,1.39 0.9,1.39 1.04,0 3.43,-0.59 4.35,-1.71 0.27,-0.33 0.39,-0.67 0.39,-1.14 0,-1.49 -0.98,-2.63 -2.41,-2.63 z"
     id="path12" />
  <path
     class="cls-1"
     d="m 304.73,17.9 v 5.43 c 0,1.8 0.25,2.55 1.43,3.55 0.71,0.59 1.92,0.82 1.92,1.88 0,0.82 -0.43,1.37 -1.71,1.37 -1.28,0 -2.67,-0.12 -5,-0.12 -1.51,0 -2.72,0.12 -4.47,0.12 -1.04,0 -1.41,-0.59 -1.41,-1.29 0,-1 0.82,-1.55 1.18,-1.98 1.02,-1.27 1.12,-2.47 1.12,-3.53 V 15.9 c 0,-1.33 -0.82,-1.9 -1.33,-2.18 -0.45,-0.29 -0.82,-0.57 -0.82,-1.18 0,-1.18 1.49,-1.37 3.29,-2.18 2.31,-1.06 2.78,-1.51 3.55,-1.51 0.88,0 1.37,0.35 1.72,1.57 0.14,0.65 0.29,1.27 0.61,1.27 0.49,0 2.29,-2.9 5.37,-2.9 2.16,0 4.14,1.25 4.14,4.84 0,2.49 -1.9,5.1 -4.17,5.1 -1.53,0 -1.67,-0.94 -2.02,-2.49 -0.29,-1.29 -0.78,-2 -1.33,-2 -1.33,0 -2.08,1.8 -2.08,3.67 z"
     id="path13" />
  <path
     class="cls-1"
     d="m 339.06,1.54 c 3.02,0 4.33,0.84 5.59,0.84 0.96,0 1.59,-0.45 2.51,-0.45 1.82,0 1.86,1.76 2.33,4.19 0.55,3 0.86,3.7 0.86,4.33 0,0.98 -0.59,1.43 -1.23,1.43 -1.22,0 -1.84,-1.39 -2.84,-2.82 -1.86,-2.57 -4.1,-3.9 -6.23,-3.9 -4.1,0 -6,3.76 -6,8.02 0,5.98 3.19,10.98 8.43,10.98 3.41,0 5.35,-2.12 6.33,-3.76 0.43,-0.63 0.78,-1.12 1.2,-1.12 0.67,0 0.94,0.9 0.94,1.65 0,1.53 -0.45,3.12 -1.33,4.53 -1.84,2.92 -5.53,5.23 -10.6,5.23 -8.82,0 -13.56,-6.96 -13.56,-14.56 0,-7.6 4.31,-14.6 13.58,-14.6 z"
     id="path14" />
  <path
     class="cls-1"
     d="m 354.33,6.96 c 0,-1.1 -0.78,-1.69 -1.29,-1.98 -0.45,-0.29 -0.86,-0.57 -0.86,-1.18 0,-1.08 1.49,-1.31 3.33,-2.06 2.06,-0.82 3.51,-1.74 4.51,-1.74 0.84,0 1.45,0.43 1.45,1.43 0,1.27 -0.47,4.37 -0.47,9.45 0,0.71 0.16,0.86 0.33,0.86 0.49,0 2.8,-2.96 6.63,-2.96 4.68,0 6.53,2.9 6.53,7.45 0,3.02 -0.55,6.57 -0.55,8.08 0,1.02 0.33,2.06 1,2.65 0.78,0.65 1.41,0.82 1.41,1.8 0,0.82 -0.57,1.37 -1.86,1.37 -1.29,0 -2.41,-0.12 -3.57,-0.12 -1.51,0 -2.08,0.12 -3.63,0.12 -0.98,0 -1.33,-0.59 -1.33,-1.29 0,-0.96 0.35,-1.76 0.53,-2.27 0.41,-1.16 0.82,-4.86 0.82,-8.08 0,-3.47 -1.02,-5 -3.06,-5 -1.2,0 -2.96,1.04 -2.96,3.41 v 6.76 c 0,1.8 0.1,2.47 0.71,3.19 0.61,0.72 1.33,0.88 1.33,1.92 0,0.82 -0.45,1.37 -1.74,1.37 -1.29,0 -2.53,-0.12 -3.7,-0.12 -1.51,0 -2.7,0.12 -4.47,0.12 -1.02,0 -1.41,-0.59 -1.41,-1.29 0,-1 0.82,-1.55 1.2,-1.98 1,-1.27 1.1,-2.47 1.1,-3.53 V 6.97 Z"
     id="path15" />
  <path
     class="cls-1"
     d="m 388.6,17.2 c 0.29,-0.22 0.55,-0.71 0.55,-2.14 0,-1.86 -0.84,-3.21 -2.45,-3.21 -1.39,0 -2.31,1.2 -2.92,3.27 -0.37,1.2 -0.9,2.14 -2.45,2.14 -1.67,0 -3.08,-1.14 -3.08,-3.31 0,-2.55 3.02,-5.23 8.47,-5.23 4.92,0 9.45,2.06 9.45,8.15 0,2.55 -0.2,4.49 -0.2,6.76 0,0.74 0.22,1.63 1.16,1.63 0.35,0 0.57,-0.12 0.88,-0.12 0.27,0 0.45,0.41 0.45,0.88 0,2.53 -2.16,4.37 -4.84,4.37 -2.08,0 -3.23,-0.71 -3.92,-1.92 -0.1,-0.16 -0.22,-0.37 -0.39,-0.37 -0.18,0 -0.35,0.18 -0.51,0.35 -1.22,1.14 -3.33,2.04 -5.33,2.04 -3.43,0 -6.08,-1.74 -6.08,-5.17 0,-3.23 2.18,-5.21 5.72,-6.51 2.45,-0.88 4.86,-1.12 5.49,-1.61 z m 0.26,3.45 c -0.69,0 -1.43,0.16 -2.16,0.49 -1.33,0.55 -2.33,1.61 -2.33,2.9 0,1.04 0.67,1.9 1.92,1.9 2.02,0 2.92,-1.69 2.92,-3.57 0,-1.45 -0.14,-1.71 -0.35,-1.71 z"
     id="path16" />
  <path
     class="cls-1"
     d="m 408.65,9.92 v 13.74 c 0,1.8 0.31,2.47 0.92,3.19 0.59,0.71 1.31,0.88 1.31,1.92 0,0.82 -0.43,1.37 -1.74,1.37 -1.21,0 -2.76,-0.12 -3.88,-0.12 -1.49,0 -2.84,0.12 -4.47,0.12 -1.02,0 -1.41,-0.59 -1.41,-1.29 0,-1 0.82,-1.55 1.2,-1.98 1,-1.27 1.1,-2.47 1.1,-3.53 V 6.97 c 0,-1.1 -0.78,-1.69 -1.29,-1.98 -0.45,-0.29 -0.86,-0.57 -0.86,-1.18 0,-1.08 1.49,-1.31 3.33,-2.06 2.06,-0.82 3.51,-1.74 4.51,-1.74 0.84,0 1.45,0.43 1.45,1.43 0,2.61 -0.18,2.59 -0.18,8.49 z"
     id="path17" />
  <path
     class="cls-1"
     d="m 421.42,9.92 v 13.74 c 0,1.8 0.31,2.47 0.92,3.19 0.59,0.71 1.31,0.88 1.31,1.92 0,0.82 -0.43,1.37 -1.74,1.37 -1.21,0 -2.76,-0.12 -3.88,-0.12 -1.49,0 -2.84,0.12 -4.47,0.12 -1.02,0 -1.41,-0.59 -1.41,-1.29 0,-1 0.82,-1.55 1.2,-1.98 1,-1.27 1.1,-2.47 1.1,-3.53 V 6.97 c 0,-1.1 -0.78,-1.69 -1.29,-1.98 -0.45,-0.29 -0.86,-0.57 -0.86,-1.18 0,-1.08 1.49,-1.31 3.33,-2.06 2.06,-0.82 3.51,-1.74 4.51,-1.74 0.84,0 1.45,0.43 1.45,1.43 0,2.61 -0.18,2.59 -0.18,8.49 z"
     id="path18" />
  <path
     class="cls-1"
     d="m 432.94,20.96 c -0.39,0.02 -0.55,0.1 -0.55,0.39 0,1.31 1.35,3.49 4.66,3.49 2.7,0 4.27,-1.25 5.31,-2.2 0.29,-0.22 0.61,-0.39 0.86,-0.39 0.43,0 0.69,0.41 0.69,1.29 0,2.88 -3.35,6.94 -9.15,6.94 -6.49,0 -10.35,-4.31 -10.35,-10.39 0,-6.08 4.35,-11.31 10.96,-11.31 6,0 8.17,4.53 8.17,7.35 0,1.51 -0.8,2.39 -1.94,2.98 -2.29,1.18 -6.59,1.69 -8.66,1.86 z m 1.72,-8.62 c -1.98,0 -3.23,2.04 -3.23,4.1 0,0.88 0.29,1.39 0.9,1.39 1.04,0 3.43,-0.59 4.35,-1.71 0.27,-0.33 0.39,-0.67 0.39,-1.14 0,-1.49 -0.98,-2.63 -2.41,-2.63 z"
     id="path19" />
  <path
     class="cls-1"
     d="m 466.87,24.31 c 0,1.02 0.33,2.06 1.02,2.65 0.76,0.65 1.41,0.82 1.41,1.8 0,0.82 -0.57,1.37 -1.88,1.37 -1.21,0 -2.39,-0.12 -3.57,-0.12 -1.49,0 -2.06,0.12 -3.61,0.12 -0.98,0 -1.35,-0.59 -1.35,-1.29 0,-0.96 0.37,-1.76 0.55,-2.27 0.39,-1.16 0.82,-4.86 0.82,-8.08 0,-3.47 -1.04,-5 -3.06,-5 -1.22,0 -2.98,1.04 -2.98,3.41 v 6.76 c 0,1.8 0.12,2.47 0.74,3.19 0.59,0.71 1.31,0.88 1.31,1.92 0,0.82 -0.43,1.37 -1.74,1.37 -1.31,0 -2.55,-0.12 -3.67,-0.12 -1.49,0 -2.84,0.12 -4.47,0.12 -1.04,0 -1.41,-0.59 -1.41,-1.29 0,-1 0.82,-1.55 1.18,-1.98 1.02,-1.27 1.12,-2.47 1.12,-3.53 v -7.43 c 0,-1.33 -0.82,-1.9 -1.33,-2.18 -0.45,-0.29 -0.82,-0.57 -0.82,-1.18 0,-1.18 1.49,-1.37 3.29,-2.18 2.31,-1.06 2.78,-1.51 3.55,-1.51 0.88,0 1.37,0.35 1.72,1.57 0.14,0.65 0.29,1.27 0.61,1.27 0.49,0 2.86,-2.9 6.61,-2.9 4.68,0 6.51,2.9 6.51,7.45 0,3.02 -0.55,6.57 -0.55,8.08 z"
     id="path20" />
  <path
     class="cls-1"
     d="m 486.9,9.57 c 2.84,0 3.41,-0.8 4.31,-0.8 0.51,0 0.8,0.39 0.8,1.14 0,0.8 -0.14,1.65 -0.39,2.33 -0.18,0.51 -0.61,1.61 -1.59,1.61 -0.69,0 -1.41,-0.24 -1.65,-0.24 -0.16,0 -0.2,0.08 -0.2,0.2 0,0.29 0.61,1.06 0.61,2.27 0,4.51 -3.86,7.12 -8.7,7.12 -0.82,0 -1.59,-0.08 -2.08,-0.08 -0.9,0 -1.86,0.51 -1.86,1.41 0,0.9 0.78,1.37 2.04,1.37 1.49,0 4.17,-0.71 6.8,-0.71 3.94,0 6.49,1.69 6.49,5.59 0,5.47 -6.41,8.6 -13.17,8.6 -5.78,0 -8.35,-2 -8.35,-5.06 0,-1.92 1.29,-3.1 2.39,-3.7 0.25,-0.14 0.33,-0.27 0.33,-0.37 0,-0.08 -0.06,-0.2 -0.29,-0.35 -0.63,-0.39 -1.82,-1.45 -1.82,-3.33 0,-1.88 1.31,-3.39 3.25,-4.29 0.16,-0.08 0.29,-0.22 0.29,-0.35 0,-0.13 -0.08,-0.25 -0.25,-0.39 -1.55,-1.23 -2.53,-3.1 -2.53,-5.43 0,-4.84 3.84,-7.35 8.45,-7.35 2.9,0 5.59,0.8 7.12,0.8 z m -6.66,21.78 c -1.14,0 -2.59,0.18 -3.35,0.47 -1.12,0.35 -1.86,1.02 -1.86,1.86 0,1.39 1.39,1.98 3.39,1.98 2.78,0 4.66,-1.12 4.66,-2.43 0,-1.16 -0.92,-1.88 -2.84,-1.88 z m 0.02,-12.04 c 1.29,0 2.33,-0.86 2.33,-2.92 0,-1.49 -0.65,-4.1 -2.59,-4.1 -1.33,0 -2.16,1.33 -2.16,3.35 0,2.72 1.27,3.67 2.43,3.67 z"
     id="path21" />
  <path
     class="cls-1"
     d="m 500.71,20.96 c -0.39,0.02 -0.55,0.1 -0.55,0.39 0,1.31 1.35,3.49 4.65,3.49 2.7,0 4.27,-1.25 5.31,-2.2 0.29,-0.22 0.61,-0.39 0.86,-0.39 0.43,0 0.69,0.41 0.69,1.29 0,2.88 -3.35,6.94 -9.15,6.94 -6.49,0 -10.35,-4.31 -10.35,-10.39 0,-6.08 4.35,-11.31 10.96,-11.31 6,0 8.17,4.53 8.17,7.35 0,1.51 -0.8,2.39 -1.94,2.98 -2.29,1.18 -6.59,1.69 -8.66,1.86 z m 1.71,-8.62 c -1.98,0 -3.23,2.04 -3.23,4.1 0,0.88 0.29,1.39 0.9,1.39 1.04,0 3.43,-0.59 4.35,-1.71 0.27,-0.33 0.39,-0.67 0.39,-1.14 0,-1.49 -0.98,-2.63 -2.41,-2.63 z"
     id="path22" />
  <text
     xml:space="preserve"
     style="font-style:normal;font-variant:normal;font-weight:normal;font-stretch:normal;font-size:24.0662px;line-height:1;font-family:Roboto;-inkscape-font-specification:Roboto;text-align:center;letter-spacing:0.831052px;word-spacing:0px;text-anchor:middle;fill:#00fffc;fill-opacity:1;stroke:#00fffc;stroke-width:0.677404"
     x="275.80914"
     y="74.290459"
     id="text1"><tspan
       sodipodi:role="line"
       id="tspan1"
       x="276.22467"
       y="74.290459"
       style="fill:#00fffc;fill-opacity:1;stroke:#00fffc;stroke-width:0.677404">https://bbchallenge.org</tspan></text>
  <text
     xml:space="preserve"
     style="font-style:normal;font-variant:normal;font-weight:normal;font-stretch:normal;font-size:86.8762px;line-height:1;font-family:Roboto;-inkscape-font-specification:Roboto;text-align:center;letter-spacing:3px;word-spacing:0px;text-anchor:middle;fill:#000000;stroke:#000000;stroke-width:2.44535"
     x="-42.466106"
     y="-37.370174"
     id="text2"><tspan
       sodipodi:role="line"
       id="tspan2"
       x="-42.466106"
       y="-37.370174" /></text>
</svg>
