<?xml version="1.0" standalone="no"?>
<!DOCTYPE svg PUBLIC "-//W3C//DTD SVG 20010904//EN"
 "http://www.w3.org/TR/2001/REC-SVG-20010904/DTD/svg10.dtd">
<svg version="1.0" xmlns="http://www.w3.org/2000/svg"
 width="500.000000pt" height="500.000000pt" viewBox="0 0 500.000000 500.000000"
 preserveAspectRatio="xMidYMid meet">
<metadata>
Created by potrace 1.14, written by Peter Selinger 2001-2017
</metadata>
<g transform="translate(0.000000,500.000000) scale(0.100000,-0.100000)"
fill="#000000" stroke="none">
<path d="M2211 4996 c2 -2 101 -67 219 -143 859 -553 1525 -1114 1690 -1424
79 -148 18 -179 -387 -198 -214 -10 -250 -20 -316 -87 -67 -67 -94 -140 -77
-203 20 -75 122 -165 342 -305 230 -145 256 -239 134 -479 -134 -263 -204
-360 -310 -429 -207 -134 -602 -137 -873 -7 -115 55 -225 141 -349 274 -107
115 -133 132 -162 103 -20 -20 -14 -114 13 -194 75 -224 201 -381 401 -500
179 -107 236 -180 237 -304 1 -77 -29 -143 -79 -172 -51 -30 -136 -41 -217
-28 -112 17 -173 46 -311 145 -91 66 -144 41 -130 -64 9 -74 -20 -107 -133
-153 -113 -45 -258 -82 -383 -98 -83 -10 -101 -10 -133 4 -20 8 -37 21 -37 29
0 8 23 45 50 83 94 128 57 149 -157 90 -218 -60 -411 -83 -562 -67 -65 7 -88
13 -105 31 l-21 22 65 56 c158 139 244 219 263 244 12 17 21 44 21 70 l1 43
-42 3 c-23 2 -95 -8 -160 -22 -183 -38 -310 -50 -468 -42 -77 4 -161 10 -188
15 l-47 8 0 -649 0 -648 2500 0 2500 0 0 2500 0 2500 -1397 0 c-768 0 -1394
-2 -1392 -4z m2185 -2622 c31 -47 10 -183 -46 -295 -55 -108 -170 -196 -246
-187 -52 6 -44 44 45 223 93 189 164 281 218 284 7 1 20 -11 29 -25z m-435
-913 c27 -33 24 -66 -20 -241 -82 -328 -215 -610 -286 -610 -37 0 -55 37 -62
131 -3 46 -10 92 -15 102 -9 18 -10 18 -30 0 -11 -10 -51 -82 -90 -161 -61
-126 -75 -147 -116 -177 -90 -65 -223 -84 -273 -39 -18 16 -20 27 -16 79 6 86
76 593 88 636 14 54 45 76 159 110 116 34 219 79 313 136 82 50 135 63 240 60
80 -2 91 -4 108 -26z"/>
<path d="M1093 4315 c-117 -32 -216 -110 -283 -225 -60 -101 -92 -127 -197
-154 -76 -19 -162 -61 -170 -83 -9 -23 9 -46 43 -55 16 -4 89 -17 163 -29 250
-38 443 -101 616 -200 129 -74 215 -139 341 -260 61 -59 121 -110 133 -114 33
-10 51 11 51 63 0 55 -32 121 -106 222 -69 93 -74 121 -40 224 39 119 42 167
17 266 -34 135 -109 237 -221 303 -93 54 -237 71 -347 42z"/>
</g>
</svg>
